0
SECTION
2
HEADER
9
$ACADVER
1
AC1006
0
ENDSEC
0
SECTION
2
TABLES
0
TABLE
2
LAYER
70
4
0
LAYER
70
0
62
1
6
CONTINUOUS
2
L1D10
0
LAYER
70
0
62
2
6
CONTINUOUS
2
L1D11
0
LAYER
70
0
62
3
6
CONTINUOUS
2
L1D0
0
LAYER
70
0
62
4
6
CONTINUOUS
2
L1D99
0
ENDTAB
0
ENDSEC
0
SECTION
2
BLOCKS
0
BLOCK
2
TOP_main_1_Cheese_100
70
0
10
0
20
0
0
ENDBLK
0
BLOCK
2
TOP_main_1_Cheese_diff
70
0
10
0
20
0
0
ENDBLK
0
BLOCK
2
TOP_main_1_one_hole
70
0
10
0
20
0
0
ENDBLK
0
BLOCK
2
ground_main_1
70
0
10
0
20
0
0
POLYLINE
8
L1D0
70
1
40
0
41
0
66
1
0
VERTEX
8
L1D0
10
-2500
20
-2500
0
VERTEX
8
L1D0
10
-2500
20
-269.036
0
VERTEX
8
L1D0
10
-1511
20
-269.036
0
VERTEX
8
L1D0
10
-1511
20
-1000
0
VERTEX
8
L1D0
10
-1794
20
-1122
0
VERTEX
8
L1D0
10
-1794
20
-1456
0
VERTEX
8
L1D0
10
-1206
20
-1456
0
VERTEX
8
L1D0
10
-1206
20
-1122
0
VERTEX
8
L1D0
10
-1489
20
-1000
0
VERTEX
8
L1D0
10
-1489
20
-269.036
0
VERTEX
8
L1D0
10
-604.731
20
-269.036
0
VERTEX
8
L1D0
10
-602.242
20
-270.674
0
VERTEX
8
L1D0
10
-599.711
20
-272.244
0
VERTEX
8
L1D0
10
-597.138
20
-273.745
0
VERTEX
8
L1D0
10
-594.525
20
-275.176
0
VERTEX
8
L1D0
10
-591.874
20
-276.536
0
VERTEX
8
L1D0
10
-589.188
20
-277.823
0
VERTEX
8
L1D0
10
-586.467
20
-279.037
0
VERTEX
8
L1D0
10
-583.715
20
-280.177
0
VERTEX
8
L1D0
10
-580.933
20
-281.243
0
VERTEX
8
L1D0
10
-578.123
20
-282.232
0
VERTEX
8
L1D0
10
-575.287
20
-283.145
0
VERTEX
8
L1D0
10
-572.428
20
-283.981
0
VERTEX
8
L1D0
10
-569.547
20
-284.739
0
VERTEX
8
L1D0
10
-566.647
20
-285.418
0
VERTEX
8
L1D0
10
-563.729
20
-286.019
0
VERTEX
8
L1D0
10
-560.796
20
-286.541
0
VERTEX
8
L1D0
10
-557.85
20
-286.983
0
VERTEX
8
L1D0
10
-554.893
20
-287.345
0
VERTEX
8
L1D0
10
-551.927
20
-287.627
0
VERTEX
8
L1D0
10
-548.955
20
-287.829
0
VERTEX
8
L1D0
10
-545.979
20
-287.95
0
VERTEX
8
L1D0
10
-543
20
-287.99
0
VERTEX
8
L1D0
10
-541
20
-287.99
0
VERTEX
8
L1D0
10
-538.021
20
-287.95
0
VERTEX
8
L1D0
10
-535.045
20
-287.829
0
VERTEX
8
L1D0
10
-532.073
20
-287.627
0
VERTEX
8
L1D0
10
-529.107
20
-287.345
0
VERTEX
8
L1D0
10
-526.15
20
-286.983
0
VERTEX
8
L1D0
10
-523.204
20
-286.541
0
VERTEX
8
L1D0
10
-520.271
20
-286.019
0
VERTEX
8
L1D0
10
-517.353
20
-285.418
0
VERTEX
8
L1D0
10
-514.453
20
-284.739
0
VERTEX
8
L1D0
10
-511.572
20
-283.981
0
VERTEX
8
L1D0
10
-508.713
20
-283.145
0
VERTEX
8
L1D0
10
-505.877
20
-282.232
0
VERTEX
8
L1D0
10
-503.067
20
-281.243
0
VERTEX
8
L1D0
10
-500.285
20
-280.177
0
VERTEX
8
L1D0
10
-497.533
20
-279.037
0
VERTEX
8
L1D0
10
-494.812
20
-277.823
0
VERTEX
8
L1D0
10
-492.126
20
-276.536
0
VERTEX
8
L1D0
10
-489.475
20
-275.176
0
VERTEX
8
L1D0
10
-486.862
20
-273.745
0
VERTEX
8
L1D0
10
-484.289
20
-272.244
0
VERTEX
8
L1D0
10
-481.758
20
-270.674
0
VERTEX
8
L1D0
10
-479.269
20
-269.036
0
VERTEX
8
L1D0
10
-204.731
20
-269.036
0
VERTEX
8
L1D0
10
-202.242
20
-270.674
0
VERTEX
8
L1D0
10
-199.711
20
-272.244
0
VERTEX
8
L1D0
10
-197.138
20
-273.745
0
VERTEX
8
L1D0
10
-194.525
20
-275.176
0
VERTEX
8
L1D0
10
-191.874
20
-276.536
0
VERTEX
8
L1D0
10
-189.188
20
-277.823
0
VERTEX
8
L1D0
10
-186.467
20
-279.037
0
VERTEX
8
L1D0
10
-183.715
20
-280.177
0
VERTEX
8
L1D0
10
-180.933
20
-281.243
0
VERTEX
8
L1D0
10
-178.123
20
-282.232
0
VERTEX
8
L1D0
10
-175.287
20
-283.145
0
VERTEX
8
L1D0
10
-172.428
20
-283.981
0
VERTEX
8
L1D0
10
-169.547
20
-284.739
0
VERTEX
8
L1D0
10
-166.647
20
-285.418
0
VERTEX
8
L1D0
10
-163.729
20
-286.019
0
VERTEX
8
L1D0
10
-160.796
20
-286.541
0
VERTEX
8
L1D0
10
-157.85
20
-286.983
0
VERTEX
8
L1D0
10
-154.893
20
-287.345
0
VERTEX
8
L1D0
10
-151.927
20
-287.627
0
VERTEX
8
L1D0
10
-148.955
20
-287.829
0
VERTEX
8
L1D0
10
-145.979
20
-287.95
0
VERTEX
8
L1D0
10
-143
20
-287.99
0
VERTEX
8
L1D0
10
-141
20
-287.99
0
VERTEX
8
L1D0
10
-138.021
20
-287.95
0
VERTEX
8
L1D0
10
-135.045
20
-287.829
0
VERTEX
8
L1D0
10
-132.073
20
-287.627
0
VERTEX
8
L1D0
10
-129.107
20
-287.345
0
VERTEX
8
L1D0
10
-126.15
20
-286.983
0
VERTEX
8
L1D0
10
-123.204
20
-286.541
0
VERTEX
8
L1D0
10
-120.271
20
-286.019
0
VERTEX
8
L1D0
10
-117.353
20
-285.418
0
VERTEX
8
L1D0
10
-114.453
20
-284.739
0
VERTEX
8
L1D0
10
-111.572
20
-283.981
0
VERTEX
8
L1D0
10
-108.713
20
-283.145
0
VERTEX
8
L1D0
10
-105.877
20
-282.232
0
VERTEX
8
L1D0
10
-103.067
20
-281.243
0
VERTEX
8
L1D0
10
-100.285
20
-280.177
0
VERTEX
8
L1D0
10
-97.533
20
-279.037
0
VERTEX
8
L1D0
10
-94.812
20
-277.823
0
VERTEX
8
L1D0
10
-92.126
20
-276.536
0
VERTEX
8
L1D0
10
-89.475
20
-275.176
0
VERTEX
8
L1D0
10
-86.862
20
-273.745
0
VERTEX
8
L1D0
10
-84.289
20
-272.244
0
VERTEX
8
L1D0
10
-81.758
20
-270.674
0
VERTEX
8
L1D0
10
-79.269
20
-269.036
0
VERTEX
8
L1D0
10
195.269
20
-269.036
0
VERTEX
8
L1D0
10
197.758
20
-270.674
0
VERTEX
8
L1D0
10
200.289
20
-272.244
0
VERTEX
8
L1D0
10
202.862
20
-273.745
0
VERTEX
8
L1D0
10
205.475
20
-275.176
0
VERTEX
8
L1D0
10
208.126
20
-276.536
0
VERTEX
8
L1D0
10
210.812
20
-277.823
0
VERTEX
8
L1D0
10
213.533
20
-279.037
0
VERTEX
8
L1D0
10
216.285
20
-280.177
0
VERTEX
8
L1D0
10
219.067
20
-281.243
0
VERTEX
8
L1D0
10
221.877
20
-282.232
0
VERTEX
8
L1D0
10
224.713
20
-283.145
0
VERTEX
8
L1D0
10
227.572
20
-283.981
0
VERTEX
8
L1D0
10
230.453
20
-284.739
0
VERTEX
8
L1D0
10
233.353
20
-285.418
0
VERTEX
8
L1D0
10
236.271
20
-286.019
0
VERTEX
8
L1D0
10
239.204
20
-286.541
0
VERTEX
8
L1D0
10
242.15
20
-286.983
0
VERTEX
8
L1D0
10
245.107
20
-287.345
0
VERTEX
8
L1D0
10
248.073
20
-287.627
0
VERTEX
8
L1D0
10
251.045
20
-287.829
0
VERTEX
8
L1D0
10
254.021
20
-287.95
0
VERTEX
8
L1D0
10
257
20
-287.99
0
VERTEX
8
L1D0
10
259
20
-287.99
0
VERTEX
8
L1D0
10
261.979
20
-287.95
0
VERTEX
8
L1D0
10
264.955
20
-287.829
0
VERTEX
8
L1D0
10
267.927
20
-287.627
0
VERTEX
8
L1D0
10
270.893
20
-287.345
0
VERTEX
8
L1D0
10
273.85
20
-286.983
0
VERTEX
8
L1D0
10
276.796
20
-286.541
0
VERTEX
8
L1D0
10
279.729
20
-286.019
0
VERTEX
8
L1D0
10
282.647
20
-285.418
0
VERTEX
8
L1D0
10
285.547
20
-284.739
0
VERTEX
8
L1D0
10
288.428
20
-283.981
0
VERTEX
8
L1D0
10
291.287
20
-283.145
0
VERTEX
8
L1D0
10
294.123
20
-282.232
0
VERTEX
8
L1D0
10
296.933
20
-281.243
0
VERTEX
8
L1D0
10
299.715
20
-280.177
0
VERTEX
8
L1D0
10
302.467
20
-279.037
0
VERTEX
8
L1D0
10
305.188
20
-277.823
0
VERTEX
8
L1D0
10
307.874
20
-276.536
0
VERTEX
8
L1D0
10
310.525
20
-275.176
0
VERTEX
8
L1D0
10
313.138
20
-273.745
0
VERTEX
8
L1D0
10
315.711
20
-272.244
0
VERTEX
8
L1D0
10
318.242
20
-270.674
0
VERTEX
8
L1D0
10
320.731
20
-269.036
0
VERTEX
8
L1D0
10
595.269
20
-269.036
0
VERTEX
8
L1D0
10
597.758
20
-270.674
0
VERTEX
8
L1D0
10
600.289
20
-272.244
0
VERTEX
8
L1D0
10
602.862
20
-273.745
0
VERTEX
8
L1D0
10
605.475
20
-275.176
0
VERTEX
8
L1D0
10
608.126
20
-276.536
0
VERTEX
8
L1D0
10
610.812
20
-277.823
0
VERTEX
8
L1D0
10
613.533
20
-279.037
0
VERTEX
8
L1D0
10
616.285
20
-280.177
0
VERTEX
8
L1D0
10
619.067
20
-281.243
0
VERTEX
8
L1D0
10
621.877
20
-282.232
0
VERTEX
8
L1D0
10
624.713
20
-283.145
0
VERTEX
8
L1D0
10
627.572
20
-283.981
0
VERTEX
8
L1D0
10
630.453
20
-284.739
0
VERTEX
8
L1D0
10
633.353
20
-285.418
0
VERTEX
8
L1D0
10
636.271
20
-286.019
0
VERTEX
8
L1D0
10
639.204
20
-286.541
0
VERTEX
8
L1D0
10
642.15
20
-286.983
0
VERTEX
8
L1D0
10
645.107
20
-287.345
0
VERTEX
8
L1D0
10
648.073
20
-287.627
0
VERTEX
8
L1D0
10
651.045
20
-287.829
0
VERTEX
8
L1D0
10
654.021
20
-287.95
0
VERTEX
8
L1D0
10
657
20
-287.99
0
VERTEX
8
L1D0
10
659
20
-287.99
0
VERTEX
8
L1D0
10
661.979
20
-287.95
0
VERTEX
8
L1D0
10
664.955
20
-287.829
0
VERTEX
8
L1D0
10
667.927
20
-287.627
0
VERTEX
8
L1D0
10
670.893
20
-287.345
0
VERTEX
8
L1D0
10
673.85
20
-286.983
0
VERTEX
8
L1D0
10
676.796
20
-286.541
0
VERTEX
8
L1D0
10
679.729
20
-286.019
0
VERTEX
8
L1D0
10
682.647
20
-285.418
0
VERTEX
8
L1D0
10
685.547
20
-284.739
0
VERTEX
8
L1D0
10
688.428
20
-283.981
0
VERTEX
8
L1D0
10
691.287
20
-283.145
0
VERTEX
8
L1D0
10
694.123
20
-282.232
0
VERTEX
8
L1D0
10
696.933
20
-281.243
0
VERTEX
8
L1D0
10
699.715
20
-280.177
0
VERTEX
8
L1D0
10
702.467
20
-279.037
0
VERTEX
8
L1D0
10
705.188
20
-277.823
0
VERTEX
8
L1D0
10
707.874
20
-276.536
0
VERTEX
8
L1D0
10
710.525
20
-275.176
0
VERTEX
8
L1D0
10
713.138
20
-273.745
0
VERTEX
8
L1D0
10
713.271
20
-273.668
0
VERTEX
8
L1D0
10
715.711
20
-272.244
0
VERTEX
8
L1D0
10
718.242
20
-270.674
0
VERTEX
8
L1D0
10
720.731
20
-269.036
0
VERTEX
8
L1D0
10
2500
20
-269.036
0
VERTEX
8
L1D0
10
2500
20
-2500
0
SEQEND
0
POLYLINE
8
L1D0
70
1
40
0
41
0
66
1
0
VERTEX
8
L1D0
10
-1489
20
-269.036
0
VERTEX
8
L1D0
10
-1489
20
-255.772
0
VERTEX
8
L1D0
10
-620.782
20
-255.772
0
VERTEX
8
L1D0
10
-618.647
20
-257.85
0
VERTEX
8
L1D0
10
-616.457
20
-259.869
0
VERTEX
8
L1D0
10
-614.212
20
-261.828
0
VERTEX
8
L1D0
10
-611.916
20
-263.726
0
VERTEX
8
L1D0
10
-609.569
20
-265.56
0
VERTEX
8
L1D0
10
-607.173
20
-267.331
0
VERTEX
8
L1D0
10
-604.731
20
-269.036
0
SEQEND
0
POLYLINE
8
L1D0
70
1
40
0
41
0
66
1
0
VERTEX
8
L1D0
10
-543
20
-265.99
0
VERTEX
8
L1D0
10
-545.658
20
-265.95
0
VERTEX
8
L1D0
10
-548.313
20
-265.83
0
VERTEX
8
L1D0
10
-550.964
20
-265.629
0
VERTEX
8
L1D0
10
-553.607
20
-265.348
0
VERTEX
8
L1D0
10
-556.241
20
-264.988
0
VERTEX
8
L1D0
10
-558.862
20
-264.549
0
VERTEX
8
L1D0
10
-561.47
20
-264.03
0
VERTEX
8
L1D0
10
-564.06
20
-263.433
0
VERTEX
8
L1D0
10
-566.631
20
-262.758
0
VERTEX
8
L1D0
10
-569.18
20
-262.005
0
VERTEX
8
L1D0
10
-571.706
20
-261.176
0
VERTEX
8
L1D0
10
-574.205
20
-260.271
0
VERTEX
8
L1D0
10
-576.676
20
-259.291
0
VERTEX
8
L1D0
10
-579.116
20
-258.237
0
VERTEX
8
L1D0
10
-581.524
20
-257.11
0
VERTEX
8
L1D0
10
-583.896
20
-255.91
0
VERTEX
8
L1D0
10
-584.15
20
-255.772
0
VERTEX
8
L1D0
10
-499.85
20
-255.772
0
VERTEX
8
L1D0
10
-500.104
20
-255.91
0
VERTEX
8
L1D0
10
-502.476
20
-257.11
0
VERTEX
8
L1D0
10
-504.884
20
-258.237
0
VERTEX
8
L1D0
10
-507.324
20
-259.291
0
VERTEX
8
L1D0
10
-509.795
20
-260.271
0
VERTEX
8
L1D0
10
-512.294
20
-261.176
0
VERTEX
8
L1D0
10
-514.82
20
-262.005
0
VERTEX
8
L1D0
10
-517.369
20
-262.758
0
VERTEX
8
L1D0
10
-519.94
20
-263.433
0
VERTEX
8
L1D0
10
-522.53
20
-264.03
0
VERTEX
8
L1D0
10
-525.138
20
-264.549
0
VERTEX
8
L1D0
10
-527.759
20
-264.988
0
VERTEX
8
L1D0
10
-530.393
20
-265.348
0
VERTEX
8
L1D0
10
-533.036
20
-265.629
0
VERTEX
8
L1D0
10
-535.687
20
-265.83
0
VERTEX
8
L1D0
10
-538.342
20
-265.95
0
VERTEX
8
L1D0
10
-541
20
-265.99
0
SEQEND
0
POLYLINE
8
L1D0
70
1
40
0
41
0
66
1
0
VERTEX
8
L1D0
10
-479.269
20
-269.036
0
VERTEX
8
L1D0
10
-476.827
20
-267.331
0
VERTEX
8
L1D0
10
-474.431
20
-265.56
0
VERTEX
8
L1D0
10
-472.084
20
-263.726
0
VERTEX
8
L1D0
10
-469.788
20
-261.828
0
VERTEX
8
L1D0
10
-467.543
20
-259.869
0
VERTEX
8
L1D0
10
-465.353
20
-257.85
0
VERTEX
8
L1D0
10
-463.218
20
-255.772
0
VERTEX
8
L1D0
10
-220.782
20
-255.772
0
VERTEX
8
L1D0
10
-218.647
20
-257.85
0
VERTEX
8
L1D0
10
-216.457
20
-259.869
0
VERTEX
8
L1D0
10
-214.212
20
-261.828
0
VERTEX
8
L1D0
10
-211.916
20
-263.726
0
VERTEX
8
L1D0
10
-209.569
20
-265.56
0
VERTEX
8
L1D0
10
-207.173
20
-267.331
0
VERTEX
8
L1D0
10
-204.731
20
-269.036
0
SEQEND
0
POLYLINE
8
L1D0
70
1
40
0
41
0
66
1
0
VERTEX
8
L1D0
10
-143
20
-265.99
0
VERTEX
8
L1D0
10
-145.658
20
-265.95
0
VERTEX
8
L1D0
10
-148.313
20
-265.83
0
VERTEX
8
L1D0
10
-150.964
20
-265.629
0
VERTEX
8
L1D0
10
-153.607
20
-265.348
0
VERTEX
8
L1D0
10
-156.241
20
-264.988
0
VERTEX
8
L1D0
10
-158.862
20
-264.549
0
VERTEX
8
L1D0
10
-161.47
20
-264.03
0
VERTEX
8
L1D0
10
-164.06
20
-263.433
0
VERTEX
8
L1D0
10
-166.631
20
-262.758
0
VERTEX
8
L1D0
10
-169.18
20
-262.005
0
VERTEX
8
L1D0
10
-171.706
20
-261.176
0
VERTEX
8
L1D0
10
-174.205
20
-260.271
0
VERTEX
8
L1D0
10
-176.676
20
-259.291
0
VERTEX
8
L1D0
10
-179.116
20
-258.237
0
VERTEX
8
L1D0
10
-181.524
20
-257.11
0
VERTEX
8
L1D0
10
-183.896
20
-255.91
0
VERTEX
8
L1D0
10
-184.15
20
-255.772
0
VERTEX
8
L1D0
10
-99.85
20
-255.772
0
VERTEX
8
L1D0
10
-100.104
20
-255.91
0
VERTEX
8
L1D0
10
-102.476
20
-257.11
0
VERTEX
8
L1D0
10
-104.884
20
-258.237
0
VERTEX
8
L1D0
10
-107.324
20
-259.291
0
VERTEX
8
L1D0
10
-109.795
20
-260.271
0
VERTEX
8
L1D0
10
-112.294
20
-261.176
0
VERTEX
8
L1D0
10
-114.453
20
-261.885
0
VERTEX
8
L1D0
10
-114.82
20
-262.005
0
VERTEX
8
L1D0
10
-117.369
20
-262.758
0
VERTEX
8
L1D0
10
-119.94
20
-263.433
0
VERTEX
8
L1D0
10
-122.53
20
-264.03
0
VERTEX
8
L1D0
10
-125.138
20
-264.549
0
VERTEX
8
L1D0
10
-127.759
20
-264.988
0
VERTEX
8
L1D0
10
-130.393
20
-265.348
0
VERTEX
8
L1D0
10
-133.036
20
-265.629
0
VERTEX
8
L1D0
10
-135.687
20
-265.83
0
VERTEX
8
L1D0
10
-138.342
20
-265.95
0
VERTEX
8
L1D0
10
-141
20
-265.99
0
SEQEND
0
POLYLINE
8
L1D0
70
1
40
0
41
0
66
1
0
VERTEX
8
L1D0
10
-79.269
20
-269.036
0
VERTEX
8
L1D0
10
-76.827
20
-267.331
0
VERTEX
8
L1D0
10
-74.431
20
-265.56
0
VERTEX
8
L1D0
10
-72.084
20
-263.726
0
VERTEX
8
L1D0
10
-69.788
20
-261.828
0
VERTEX
8
L1D0
10
-67.543
20
-259.869
0
VERTEX
8
L1D0
10
-65.353
20
-257.85
0
VERTEX
8
L1D0
10
-63.218
20
-255.772
0
VERTEX
8
L1D0
10
179.218
20
-255.772
0
VERTEX
8
L1D0
10
181.353
20
-257.85
0
VERTEX
8
L1D0
10
183.543
20
-259.869
0
VERTEX
8
L1D0
10
185.788
20
-261.828
0
VERTEX
8
L1D0
10
188.084
20
-263.726
0
VERTEX
8
L1D0
10
190.431
20
-265.56
0
VERTEX
8
L1D0
10
192.827
20
-267.331
0
VERTEX
8
L1D0
10
195.269
20
-269.036
0
SEQEND
0
POLYLINE
8
L1D0
70
1
40
0
41
0
66
1
0
VERTEX
8
L1D0
10
257
20
-265.99
0
VERTEX
8
L1D0
10
254.342
20
-265.95
0
VERTEX
8
L1D0
10
251.687
20
-265.83
0
VERTEX
8
L1D0
10
249.036
20
-265.629
0
VERTEX
8
L1D0
10
246.393
20
-265.348
0
VERTEX
8
L1D0
10
243.759
20
-264.988
0
VERTEX
8
L1D0
10
241.138
20
-264.549
0
VERTEX
8
L1D0
10
238.53
20
-264.03
0
VERTEX
8
L1D0
10
235.94
20
-263.433
0
VERTEX
8
L1D0
10
233.369
20
-262.758
0
VERTEX
8
L1D0
10
230.82
20
-262.005
0
VERTEX
8
L1D0
10
228.294
20
-261.176
0
VERTEX
8
L1D0
10
225.795
20
-260.271
0
VERTEX
8
L1D0
10
223.324
20
-259.291
0
VERTEX
8
L1D0
10
220.884
20
-258.237
0
VERTEX
8
L1D0
10
218.476
20
-257.11
0
VERTEX
8
L1D0
10
216.104
20
-255.91
0
VERTEX
8
L1D0
10
215.85
20
-255.772
0
VERTEX
8
L1D0
10
300.15
20
-255.772
0
VERTEX
8
L1D0
10
299.896
20
-255.91
0
VERTEX
8
L1D0
10
297.524
20
-257.11
0
VERTEX
8
L1D0
10
295.116
20
-258.237
0
VERTEX
8
L1D0
10
292.676
20
-259.291
0
VERTEX
8
L1D0
10
290.205
20
-260.271
0
VERTEX
8
L1D0
10
287.706
20
-261.176
0
VERTEX
8
L1D0
10
285.18
20
-262.005
0
VERTEX
8
L1D0
10
282.631
20
-262.758
0
VERTEX
8
L1D0
10
280.06
20
-263.433
0
VERTEX
8
L1D0
10
277.47
20
-264.03
0
VERTEX
8
L1D0
10
274.862
20
-264.549
0
VERTEX
8
L1D0
10
272.241
20
-264.988
0
VERTEX
8
L1D0
10
269.607
20
-265.348
0
VERTEX
8
L1D0
10
266.964
20
-265.629
0
VERTEX
8
L1D0
10
264.313
20
-265.83
0
VERTEX
8
L1D0
10
261.658
20
-265.95
0
VERTEX
8
L1D0
10
259
20
-265.99
0
SEQEND
0
POLYLINE
8
L1D0
70
1
40
0
41
0
66
1
0
VERTEX
8
L1D0
10
320.731
20
-269.036
0
VERTEX
8
L1D0
10
323.173
20
-267.331
0
VERTEX
8
L1D0
10
325.569
20
-265.56
0
VERTEX
8
L1D0
10
327.916
20
-263.726
0
VERTEX
8
L1D0
10
330.212
20
-261.828
0
VERTEX
8
L1D0
10
332.457
20
-259.869
0
VERTEX
8
L1D0
10
334.647
20
-257.85
0
VERTEX
8
L1D0
10
336.782
20
-255.772
0
VERTEX
8
L1D0
10
579.218
20
-255.772
0
VERTEX
8
L1D0
10
581.353
20
-257.85
0
VERTEX
8
L1D0
10
583.543
20
-259.869
0
VERTEX
8
L1D0
10
585.788
20
-261.828
0
VERTEX
8
L1D0
10
588.084
20
-263.726
0
VERTEX
8
L1D0
10
590.431
20
-265.56
0
VERTEX
8
L1D0
10
592.827
20
-267.331
0
VERTEX
8
L1D0
10
595.269
20
-269.036
0
SEQEND
0
POLYLINE
8
L1D0
70
1
40
0
41
0
66
1
0
VERTEX
8
L1D0
10
657
20
-265.99
0
VERTEX
8
L1D0
10
654.342
20
-265.95
0
VERTEX
8
L1D0
10
651.687
20
-265.83
0
VERTEX
8
L1D0
10
649.036
20
-265.629
0
VERTEX
8
L1D0
10
646.393
20
-265.348
0
VERTEX
8
L1D0
10
643.759
20
-264.988
0
VERTEX
8
L1D0
10
641.138
20
-264.549
0
VERTEX
8
L1D0
10
638.53
20
-264.03
0
VERTEX
8
L1D0
10
635.94
20
-263.433
0
VERTEX
8
L1D0
10
633.369
20
-262.758
0
VERTEX
8
L1D0
10
630.82
20
-262.005
0
VERTEX
8
L1D0
10
628.294
20
-261.176
0
VERTEX
8
L1D0
10
625.795
20
-260.271
0
VERTEX
8
L1D0
10
623.324
20
-259.291
0
VERTEX
8
L1D0
10
620.884
20
-258.237
0
VERTEX
8
L1D0
10
618.476
20
-257.11
0
VERTEX
8
L1D0
10
616.104
20
-255.91
0
VERTEX
8
L1D0
10
615.85
20
-255.772
0
VERTEX
8
L1D0
10
700.15
20
-255.772
0
VERTEX
8
L1D0
10
699.896
20
-255.91
0
VERTEX
8
L1D0
10
697.524
20
-257.11
0
VERTEX
8
L1D0
10
695.116
20
-258.237
0
VERTEX
8
L1D0
10
692.676
20
-259.291
0
VERTEX
8
L1D0
10
690.205
20
-260.271
0
VERTEX
8
L1D0
10
687.706
20
-261.176
0
VERTEX
8
L1D0
10
685.18
20
-262.005
0
VERTEX
8
L1D0
10
682.631
20
-262.758
0
VERTEX
8
L1D0
10
680.06
20
-263.433
0
VERTEX
8
L1D0
10
677.47
20
-264.03
0
VERTEX
8
L1D0
10
674.862
20
-264.549
0
VERTEX
8
L1D0
10
672.241
20
-264.988
0
VERTEX
8
L1D0
10
669.607
20
-265.348
0
VERTEX
8
L1D0
10
666.964
20
-265.629
0
VERTEX
8
L1D0
10
664.313
20
-265.83
0
VERTEX
8
L1D0
10
661.658
20
-265.95
0
VERTEX
8
L1D0
10
659
20
-265.99
0
SEQEND
0
POLYLINE
8
L1D0
70
1
40
0
41
0
66
1
0
VERTEX
8
L1D0
10
720.731
20
-269.036
0
VERTEX
8
L1D0
10
723.173
20
-267.331
0
VERTEX
8
L1D0
10
725.569
20
-265.56
0
VERTEX
8
L1D0
10
727.916
20
-263.726
0
VERTEX
8
L1D0
10
730.212
20
-261.828
0
VERTEX
8
L1D0
10
732.457
20
-259.869
0
VERTEX
8
L1D0
10
734.647
20
-257.85
0
VERTEX
8
L1D0
10
736.782
20
-255.772
0
VERTEX
8
L1D0
10
2500
20
-255.772
0
VERTEX
8
L1D0
10
2500
20
-269.036
0
SEQEND
0
POLYLINE
8
L1D0
70
1
40
0
41
0
66
1
0
VERTEX
8
L1D0
10
-1489
20
-255.772
0
VERTEX
8
L1D0
10
-1489
20
-232.128
0
VERTEX
8
L1D0
10
-638.755
20
-232.128
0
VERTEX
8
L1D0
10
-637.254
20
-234.701
0
VERTEX
8
L1D0
10
-635.684
20
-237.233
0
VERTEX
8
L1D0
10
-634.046
20
-239.721
0
VERTEX
8
L1D0
10
-632.341
20
-242.163
0
VERTEX
8
L1D0
10
-630.57
20
-244.559
0
VERTEX
8
L1D0
10
-630.358
20
-244.83
0
VERTEX
8
L1D0
10
-628.735
20
-246.906
0
VERTEX
8
L1D0
10
-626.838
20
-249.203
0
VERTEX
8
L1D0
10
-624.879
20
-251.447
0
VERTEX
8
L1D0
10
-622.86
20
-253.637
0
VERTEX
8
L1D0
10
-620.782
20
-255.772
0
SEQEND
0
POLYLINE
8
L1D0
70
1
40
0
41
0
66
1
0
VERTEX
8
L1D0
10
-584.15
20
-255.772
0
VERTEX
8
L1D0
10
-586.23
20
-254.639
0
VERTEX
8
L1D0
10
-588.526
20
-253.299
0
VERTEX
8
L1D0
10
-590.78
20
-251.889
0
VERTEX
8
L1D0
10
-592.99
20
-250.413
0
VERTEX
8
L1D0
10
-595.154
20
-248.87
0
VERTEX
8
L1D0
10
-597.271
20
-247.262
0
VERTEX
8
L1D0
10
-599.339
20
-245.591
0
VERTEX
8
L1D0
10
-601.355
20
-243.859
0
VERTEX
8
L1D0
10
-603.318
20
-242.066
0
VERTEX
8
L1D0
10
-605.225
20
-240.215
0
VERTEX
8
L1D0
10
-607.076
20
-238.308
0
VERTEX
8
L1D0
10
-608.869
20
-236.345
0
VERTEX
8
L1D0
10
-610.601
20
-234.329
0
VERTEX
8
L1D0
10
-612.272
20
-232.261
0
VERTEX
8
L1D0
10
-612.374
20
-232.128
0
VERTEX
8
L1D0
10
-471.626
20
-232.128
0
VERTEX
8
L1D0
10
-471.728
20
-232.261
0
VERTEX
8
L1D0
10
-473.399
20
-234.329
0
VERTEX
8
L1D0
10
-475.131
20
-236.345
0
VERTEX
8
L1D0
10
-476.924
20
-238.308
0
VERTEX
8
L1D0
10
-478.775
20
-240.215
0
VERTEX
8
L1D0
10
-480.682
20
-242.066
0
VERTEX
8
L1D0
10
-482.645
20
-243.859
0
VERTEX
8
L1D0
10
-484.661
20
-245.591
0
VERTEX
8
L1D0
10
-486.729
20
-247.262
0
VERTEX
8
L1D0
10
-488.846
20
-248.87
0
VERTEX
8
L1D0
10
-491.01
20
-250.413
0
VERTEX
8
L1D0
10
-493.22
20
-251.889
0
VERTEX
8
L1D0
10
-495.474
20
-253.299
0
VERTEX
8
L1D0
10
-497.77
20
-254.639
0
VERTEX
8
L1D0
10
-499.85
20
-255.772
0
SEQEND
0
POLYLINE
8
L1D0
70
1
40
0
41
0
66
1
0
VERTEX
8
L1D0
10
-463.218
20
-255.772
0
VERTEX
8
L1D0
10
-461.14
20
-253.637
0
VERTEX
8
L1D0
10
-459.121
20
-251.447
0
VERTEX
8
L1D0
10
-457.162
20
-249.203
0
VERTEX
8
L1D0
10
-455.265
20
-246.906
0
VERTEX
8
L1D0
10
-453.43
20
-244.559
0
VERTEX
8
L1D0
10
-451.659
20
-242.163
0
VERTEX
8
L1D0
10
-449.954
20
-239.721
0
VERTEX
8
L1D0
10
-448.316
20
-237.233
0
VERTEX
8
L1D0
10
-446.746
20
-234.701
0
VERTEX
8
L1D0
10
-445.245
20
-232.128
0
VERTEX
8
L1D0
10
-238.755
20
-232.128
0
VERTEX
8
L1D0
10
-237.254
20
-234.701
0
VERTEX
8
L1D0
10
-235.684
20
-237.233
0
VERTEX
8
L1D0
10
-234.046
20
-239.721
0
VERTEX
8
L1D0
10
-232.341
20
-242.163
0
VERTEX
8
L1D0
10
-230.57
20
-244.559
0
VERTEX
8
L1D0
10
-228.735
20
-246.906
0
VERTEX
8
L1D0
10
-226.838
20
-249.203
0
VERTEX
8
L1D0
10
-224.879
20
-251.447
0
VERTEX
8
L1D0
10
-222.86
20
-253.637
0
VERTEX
8
L1D0
10
-220.782
20
-255.772
0
SEQEND
0
POLYLINE
8
L1D0
70
1
40
0
41
0
66
1
0
VERTEX
8
L1D0
10
-184.15
20
-255.772
0
VERTEX
8
L1D0
10
-186.23
20
-254.639
0
VERTEX
8
L1D0
10
-188.526
20
-253.299
0
VERTEX
8
L1D0
10
-190.78
20
-251.889
0
VERTEX
8
L1D0
10
-192.99
20
-250.413
0
VERTEX
8
L1D0
10
-195.154
20
-248.87
0
VERTEX
8
L1D0
10
-197.271
20
-247.262
0
VERTEX
8
L1D0
10
-199.339
20
-245.591
0
VERTEX
8
L1D0
10
-201.355
20
-243.859
0
VERTEX
8
L1D0
10
-203.318
20
-242.066
0
VERTEX
8
L1D0
10
-205.225
20
-240.215
0
VERTEX
8
L1D0
10
-207.076
20
-238.308
0
VERTEX
8
L1D0
10
-208.869
20
-236.345
0
VERTEX
8
L1D0
10
-210.601
20
-234.329
0
VERTEX
8
L1D0
10
-212.272
20
-232.261
0
VERTEX
8
L1D0
10
-212.374
20
-232.128
0
VERTEX
8
L1D0
10
-71.626
20
-232.128
0
VERTEX
8
L1D0
10
-71.728
20
-232.261
0
VERTEX
8
L1D0
10
-73.399
20
-234.329
0
VERTEX
8
L1D0
10
-75.131
20
-236.345
0
VERTEX
8
L1D0
10
-76.924
20
-238.308
0
VERTEX
8
L1D0
10
-78.775
20
-240.215
0
VERTEX
8
L1D0
10
-80.682
20
-242.066
0
VERTEX
8
L1D0
10
-82.645
20
-243.859
0
VERTEX
8
L1D0
10
-84.661
20
-245.591
0
VERTEX
8
L1D0
10
-86.729
20
-247.262
0
VERTEX
8
L1D0
10
-88.846
20
-248.87
0
VERTEX
8
L1D0
10
-91.01
20
-250.413
0
VERTEX
8
L1D0
10
-93.22
20
-251.889
0
VERTEX
8
L1D0
10
-95.474
20
-253.299
0
VERTEX
8
L1D0
10
-97.77
20
-254.639
0
VERTEX
8
L1D0
10
-99.85
20
-255.772
0
SEQEND
0
POLYLINE
8
L1D0
70
1
40
0
41
0
66
1
0
VERTEX
8
L1D0
10
-63.218
20
-255.772
0
VERTEX
8
L1D0
10
-61.14
20
-253.637
0
VERTEX
8
L1D0
10
-59.121
20
-251.447
0
VERTEX
8
L1D0
10
-57.162
20
-249.203
0
VERTEX
8
L1D0
10
-55.265
20
-246.906
0
VERTEX
8
L1D0
10
-53.43
20
-244.559
0
VERTEX
8
L1D0
10
-51.659
20
-242.163
0
VERTEX
8
L1D0
10
-49.954
20
-239.721
0
VERTEX
8
L1D0
10
-48.316
20
-237.233
0
VERTEX
8
L1D0
10
-46.746
20
-234.701
0
VERTEX
8
L1D0
10
-45.245
20
-232.128
0
VERTEX
8
L1D0
10
161.245
20
-232.128
0
VERTEX
8
L1D0
10
162.746
20
-234.701
0
VERTEX
8
L1D0
10
164.316
20
-237.233
0
VERTEX
8
L1D0
10
165.954
20
-239.721
0
VERTEX
8
L1D0
10
167.659
20
-242.163
0
VERTEX
8
L1D0
10
169.43
20
-244.559
0
VERTEX
8
L1D0
10
171.265
20
-246.906
0
VERTEX
8
L1D0
10
173.162
20
-249.203
0
VERTEX
8
L1D0
10
175.121
20
-251.447
0
VERTEX
8
L1D0
10
177.14
20
-253.637
0
VERTEX
8
L1D0
10
179.218
20
-255.772
0
SEQEND
0
POLYLINE
8
L1D0
70
1
40
0
41
0
66
1
0
VERTEX
8
L1D0
10
215.85
20
-255.772
0
VERTEX
8
L1D0
10
213.77
20
-254.639
0
VERTEX
8
L1D0
10
211.474
20
-253.299
0
VERTEX
8
L1D0
10
209.22
20
-251.889
0
VERTEX
8
L1D0
10
207.01
20
-250.413
0
VERTEX
8
L1D0
10
204.846
20
-248.87
0
VERTEX
8
L1D0
10
202.729
20
-247.262
0
VERTEX
8
L1D0
10
200.661
20
-245.591
0
VERTEX
8
L1D0
10
198.645
20
-243.859
0
VERTEX
8
L1D0
10
196.682
20
-242.066
0
VERTEX
8
L1D0
10
194.775
20
-240.215
0
VERTEX
8
L1D0
10
192.924
20
-238.308
0
VERTEX
8
L1D0
10
191.131
20
-236.345
0
VERTEX
8
L1D0
10
189.399
20
-234.329
0
VERTEX
8
L1D0
10
187.728
20
-232.261
0
VERTEX
8
L1D0
10
187.626
20
-232.128
0
VERTEX
8
L1D0
10
328.374
20
-232.128
0
VERTEX
8
L1D0
10
328.272
20
-232.261
0
VERTEX
8
L1D0
10
326.601
20
-234.329
0
VERTEX
8
L1D0
10
324.869
20
-236.345
0
VERTEX
8
L1D0
10
323.076
20
-238.308
0
VERTEX
8
L1D0
10
321.225
20
-240.215
0
VERTEX
8
L1D0
10
319.318
20
-242.066
0
VERTEX
8
L1D0
10
317.355
20
-243.859
0
VERTEX
8
L1D0
10
315.339
20
-245.591
0
VERTEX
8
L1D0
10
313.271
20
-247.262
0
VERTEX
8
L1D0
10
311.154
20
-248.87
0
VERTEX
8
L1D0
10
308.99
20
-250.413
0
VERTEX
8
L1D0
10
306.78
20
-251.889
0
VERTEX
8
L1D0
10
304.526
20
-253.299
0
VERTEX
8
L1D0
10
302.23
20
-254.639
0
VERTEX
8
L1D0
10
300.15
20
-255.772
0
SEQEND
0
POLYLINE
8
L1D0
70
1
40
0
41
0
66
1
0
VERTEX
8
L1D0
10
336.782
20
-255.772
0
VERTEX
8
L1D0
10
338.86
20
-253.637
0
VERTEX
8
L1D0
10
340.879
20
-251.447
0
VERTEX
8
L1D0
10
342.838
20
-249.203
0
VERTEX
8
L1D0
10
344.735
20
-246.906
0
VERTEX
8
L1D0
10
346.57
20
-244.559
0
VERTEX
8
L1D0
10
348.341
20
-242.163
0
VERTEX
8
L1D0
10
350.046
20
-239.721
0
VERTEX
8
L1D0
10
351.684
20
-237.233
0
VERTEX
8
L1D0
10
353.254
20
-234.701
0
VERTEX
8
L1D0
10
354.755
20
-232.128
0
VERTEX
8
L1D0
10
561.245
20
-232.128
0
VERTEX
8
L1D0
10
562.746
20
-234.701
0
VERTEX
8
L1D0
10
564.316
20
-237.233
0
VERTEX
8
L1D0
10
565.954
20
-239.721
0
VERTEX
8
L1D0
10
567.659
20
-242.163
0
VERTEX
8
L1D0
10
569.43
20
-244.559
0
VERTEX
8
L1D0
10
571.265
20
-246.906
0
VERTEX
8
L1D0
10
573.162
20
-249.203
0
VERTEX
8
L1D0
10
575.121
20
-251.447
0
VERTEX
8
L1D0
10
577.14
20
-253.637
0
VERTEX
8
L1D0
10
579.218
20
-255.772
0
SEQEND
0
POLYLINE
8
L1D0
70
1
40
0
41
0
66
1
0
VERTEX
8
L1D0
10
615.85
20
-255.772
0
VERTEX
8
L1D0
10
613.77
20
-254.639
0
VERTEX
8
L1D0
10
611.474
20
-253.299
0
VERTEX
8
L1D0
10
609.22
20
-251.889
0
VERTEX
8
L1D0
10
607.01
20
-250.413
0
VERTEX
8
L1D0
10
604.846
20
-248.87
0
VERTEX
8
L1D0
10
602.729
20
-247.262
0
VERTEX
8
L1D0
10
600.661
20
-245.591
0
VERTEX
8
L1D0
10
598.645
20
-243.859
0
VERTEX
8
L1D0
10
596.682
20
-242.066
0
VERTEX
8
L1D0
10
594.775
20
-240.215
0
VERTEX
8
L1D0
10
592.924
20
-238.308
0
VERTEX
8
L1D0
10
591.131
20
-236.345
0
VERTEX
8
L1D0
10
589.399
20
-234.329
0
VERTEX
8
L1D0
10
587.728
20
-232.261
0
VERTEX
8
L1D0
10
587.626
20
-232.128
0
VERTEX
8
L1D0
10
728.374
20
-232.128
0
VERTEX
8
L1D0
10
728.272
20
-232.261
0
VERTEX
8
L1D0
10
726.601
20
-234.329
0
VERTEX
8
L1D0
10
724.869
20
-236.345
0
VERTEX
8
L1D0
10
723.076
20
-238.308
0
VERTEX
8
L1D0
10
721.225
20
-240.215
0
VERTEX
8
L1D0
10
719.318
20
-242.066
0
VERTEX
8
L1D0
10
717.355
20
-243.859
0
VERTEX
8
L1D0
10
715.339
20
-245.591
0
VERTEX
8
L1D0
10
713.271
20
-247.262
0
VERTEX
8
L1D0
10
711.154
20
-248.87
0
VERTEX
8
L1D0
10
708.99
20
-250.413
0
VERTEX
8
L1D0
10
706.78
20
-251.889
0
VERTEX
8
L1D0
10
704.526
20
-253.299
0
VERTEX
8
L1D0
10
702.23
20
-254.639
0
VERTEX
8
L1D0
10
700.15
20
-255.772
0
SEQEND
0
POLYLINE
8
L1D0
70
1
40
0
41
0
66
1
0
VERTEX
8
L1D0
10
736.782
20
-255.772
0
VERTEX
8
L1D0
10
738.86
20
-253.637
0
VERTEX
8
L1D0
10
740.879
20
-251.447
0
VERTEX
8
L1D0
10
742.838
20
-249.203
0
VERTEX
8
L1D0
10
744.735
20
-246.906
0
VERTEX
8
L1D0
10
746.57
20
-244.559
0
VERTEX
8
L1D0
10
748.341
20
-242.163
0
VERTEX
8
L1D0
10
750.046
20
-239.721
0
VERTEX
8
L1D0
10
751.684
20
-237.233
0
VERTEX
8
L1D0
10
753.254
20
-234.701
0
VERTEX
8
L1D0
10
754.755
20
-232.128
0
VERTEX
8
L1D0
10
2500
20
-232.128
0
VERTEX
8
L1D0
10
2500
20
-255.772
0
SEQEND
0
POLYLINE
8
L1D0
70
1
40
0
41
0
66
1
0
VERTEX
8
L1D0
10
-1489
20
-232.128
0
VERTEX
8
L1D0
10
-1489
20
-201.621
0
VERTEX
8
L1D0
10
-650.432
20
-201.621
0
VERTEX
8
L1D0
10
-650.428
20
-201.637
0
VERTEX
8
L1D0
10
-649.749
20
-204.537
0
VERTEX
8
L1D0
10
-648.99
20
-207.418
0
VERTEX
8
L1D0
10
-648.155
20
-210.278
0
VERTEX
8
L1D0
10
-647.242
20
-213.113
0
VERTEX
8
L1D0
10
-646.253
20
-215.923
0
VERTEX
8
L1D0
10
-645.187
20
-218.705
0
VERTEX
8
L1D0
10
-644.047
20
-221.457
0
VERTEX
8
L1D0
10
-642.833
20
-224.178
0
VERTEX
8
L1D0
10
-641.546
20
-226.864
0
VERTEX
8
L1D0
10
-640.186
20
-229.515
0
VERTEX
8
L1D0
10
-638.755
20
-232.128
0
SEQEND
0
POLYLINE
8
L1D0
70
1
40
0
41
0
66
1
0
VERTEX
8
L1D0
10
-612.374
20
-232.128
0
VERTEX
8
L1D0
10
-613.88
20
-230.144
0
VERTEX
8
L1D0
10
-615.423
20
-227.98
0
VERTEX
8
L1D0
10
-616.899
20
-225.77
0
VERTEX
8
L1D0
10
-618.309
20
-223.516
0
VERTEX
8
L1D0
10
-619.649
20
-221.22
0
VERTEX
8
L1D0
10
-620.92
20
-218.886
0
VERTEX
8
L1D0
10
-622.12
20
-216.514
0
VERTEX
8
L1D0
10
-623.247
20
-214.106
0
VERTEX
8
L1D0
10
-624.301
20
-211.666
0
VERTEX
8
L1D0
10
-625.281
20
-209.195
0
VERTEX
8
L1D0
10
-626.186
20
-206.696
0
VERTEX
8
L1D0
10
-627.015
20
-204.17
0
VERTEX
8
L1D0
10
-627.768
20
-201.621
0
VERTEX
8
L1D0
10
-456.232
20
-201.621
0
VERTEX
8
L1D0
10
-456.985
20
-204.17
0
VERTEX
8
L1D0
10
-457.814
20
-206.696
0
VERTEX
8
L1D0
10
-458.719
20
-209.195
0
VERTEX
8
L1D0
10
-459.699
20
-211.666
0
VERTEX
8
L1D0
10
-460.753
20
-214.106
0
VERTEX
8
L1D0
10
-461.88
20
-216.514
0
VERTEX
8
L1D0
10
-463.08
20
-218.886
0
VERTEX
8
L1D0
10
-464.351
20
-221.22
0
VERTEX
8
L1D0
10
-465.691
20
-223.516
0
VERTEX
8
L1D0
10
-467.101
20
-225.77
0
VERTEX
8
L1D0
10
-468.577
20
-227.98
0
VERTEX
8
L1D0
10
-470.12
20
-230.144
0
VERTEX
8
L1D0
10
-471.626
20
-232.128
0
SEQEND
0
POLYLINE
8
L1D0
70
1
40
0
41
0
66
1
0
VERTEX
8
L1D0
10
-445.245
20
-232.128
0
VERTEX
8
L1D0
10
-443.814
20
-229.515
0
VERTEX
8
L1D0
10
-442.454
20
-226.864
0
VERTEX
8
L1D0
10
-441.167
20
-224.178
0
VERTEX
8
L1D0
10
-439.953
20
-221.457
0
VERTEX
8
L1D0
10
-438.813
20
-218.705
0
VERTEX
8
L1D0
10
-437.747
20
-215.923
0
VERTEX
8
L1D0
10
-436.758
20
-213.113
0
VERTEX
8
L1D0
10
-435.845
20
-210.278
0
VERTEX
8
L1D0
10
-435.01
20
-207.418
0
VERTEX
8
L1D0
10
-434.251
20
-204.537
0
VERTEX
8
L1D0
10
-433.572
20
-201.637
0
VERTEX
8
L1D0
10
-433.568
20
-201.621
0
VERTEX
8
L1D0
10
-250.432
20
-201.621
0
VERTEX
8
L1D0
10
-250.428
20
-201.637
0
VERTEX
8
L1D0
10
-249.749
20
-204.537
0
VERTEX
8
L1D0
10
-248.99
20
-207.418
0
VERTEX
8
L1D0
10
-248.155
20
-210.278
0
VERTEX
8
L1D0
10
-247.242
20
-213.113
0
VERTEX
8
L1D0
10
-246.253
20
-215.923
0
VERTEX
8
L1D0
10
-245.187
20
-218.705
0
VERTEX
8
L1D0
10
-244.047
20
-221.457
0
VERTEX
8
L1D0
10
-242.833
20
-224.178
0
VERTEX
8
L1D0
10
-241.546
20
-226.864
0
VERTEX
8
L1D0
10
-240.186
20
-229.515
0
VERTEX
8
L1D0
10
-238.755
20
-232.128
0
SEQEND
0
POLYLINE
8
L1D0
70
1
40
0
41
0
66
1
0
VERTEX
8
L1D0
10
-212.374
20
-232.128
0
VERTEX
8
L1D0
10
-213.88
20
-230.144
0
VERTEX
8
L1D0
10
-215.423
20
-227.98
0
VERTEX
8
L1D0
10
-216.899
20
-225.77
0
VERTEX
8
L1D0
10
-218.309
20
-223.516
0
VERTEX
8
L1D0
10
-219.649
20
-221.22
0
VERTEX
8
L1D0
10
-220.92
20
-218.886
0
VERTEX
8
L1D0
10
-222.12
20
-216.514
0
VERTEX
8
L1D0
10
-223.247
20
-214.106
0
VERTEX
8
L1D0
10
-224.301
20
-211.666
0
VERTEX
8
L1D0
10
-225.281
20
-209.195
0
VERTEX
8
L1D0
10
-226.186
20
-206.696
0
VERTEX
8
L1D0
10
-227.015
20
-204.17
0
VERTEX
8
L1D0
10
-227.768
20
-201.621
0
VERTEX
8
L1D0
10
-56.232
20
-201.621
0
VERTEX
8
L1D0
10
-56.985
20
-204.17
0
VERTEX
8
L1D0
10
-57.814
20
-206.696
0
VERTEX
8
L1D0
10
-58.719
20
-209.195
0
VERTEX
8
L1D0
10
-59.699
20
-211.666
0
VERTEX
8
L1D0
10
-60.753
20
-214.106
0
VERTEX
8
L1D0
10
-61.88
20
-216.514
0
VERTEX
8
L1D0
10
-63.08
20
-218.886
0
VERTEX
8
L1D0
10
-64.351
20
-221.22
0
VERTEX
8
L1D0
10
-65.691
20
-223.516
0
VERTEX
8
L1D0
10
-67.101
20
-225.77
0
VERTEX
8
L1D0
10
-68.577
20
-227.98
0
VERTEX
8
L1D0
10
-70.12
20
-230.144
0
VERTEX
8
L1D0
10
-71.626
20
-232.128
0
SEQEND
0
POLYLINE
8
L1D0
70
1
40
0
41
0
66
1
0
VERTEX
8
L1D0
10
-45.245
20
-232.128
0
VERTEX
8
L1D0
10
-43.814
20
-229.515
0
VERTEX
8
L1D0
10
-42.454
20
-226.864
0
VERTEX
8
L1D0
10
-41.167
20
-224.178
0
VERTEX
8
L1D0
10
-39.953
20
-221.457
0
VERTEX
8
L1D0
10
-38.813
20
-218.705
0
VERTEX
8
L1D0
10
-37.747
20
-215.923
0
VERTEX
8
L1D0
10
-36.758
20
-213.113
0
VERTEX
8
L1D0
10
-35.845
20
-210.278
0
VERTEX
8
L1D0
10
-35.01
20
-207.418
0
VERTEX
8
L1D0
10
-34.251
20
-204.537
0
VERTEX
8
L1D0
10
-33.572
20
-201.637
0
VERTEX
8
L1D0
10
-33.568
20
-201.621
0
VERTEX
8
L1D0
10
149.568
20
-201.621
0
VERTEX
8
L1D0
10
149.572
20
-201.637
0
VERTEX
8
L1D0
10
150.251
20
-204.537
0
VERTEX
8
L1D0
10
151.01
20
-207.418
0
VERTEX
8
L1D0
10
151.845
20
-210.278
0
VERTEX
8
L1D0
10
152.758
20
-213.113
0
VERTEX
8
L1D0
10
153.747
20
-215.923
0
VERTEX
8
L1D0
10
154.813
20
-218.705
0
VERTEX
8
L1D0
10
155.953
20
-221.457
0
VERTEX
8
L1D0
10
157.167
20
-224.178
0
VERTEX
8
L1D0
10
158.454
20
-226.864
0
VERTEX
8
L1D0
10
159.814
20
-229.515
0
VERTEX
8
L1D0
10
161.245
20
-232.128
0
SEQEND
0
POLYLINE
8
L1D0
70
1
40
0
41
0
66
1
0
VERTEX
8
L1D0
10
187.626
20
-232.128
0
VERTEX
8
L1D0
10
186.12
20
-230.144
0
VERTEX
8
L1D0
10
184.577
20
-227.98
0
VERTEX
8
L1D0
10
183.543
20
-226.432
0
VERTEX
8
L1D0
10
183.101
20
-225.77
0
VERTEX
8
L1D0
10
181.691
20
-223.516
0
VERTEX
8
L1D0
10
180.351
20
-221.22
0
VERTEX
8
L1D0
10
179.08
20
-218.886
0
VERTEX
8
L1D0
10
177.88
20
-216.514
0
VERTEX
8
L1D0
10
176.753
20
-214.106
0
VERTEX
8
L1D0
10
175.699
20
-211.666
0
VERTEX
8
L1D0
10
174.719
20
-209.195
0
VERTEX
8
L1D0
10
173.814
20
-206.696
0
VERTEX
8
L1D0
10
172.985
20
-204.17
0
VERTEX
8
L1D0
10
172.232
20
-201.621
0
VERTEX
8
L1D0
10
343.768
20
-201.621
0
VERTEX
8
L1D0
10
343.015
20
-204.17
0
VERTEX
8
L1D0
10
342.186
20
-206.696
0
VERTEX
8
L1D0
10
341.281
20
-209.195
0
VERTEX
8
L1D0
10
340.301
20
-211.666
0
VERTEX
8
L1D0
10
339.247
20
-214.106
0
VERTEX
8
L1D0
10
338.12
20
-216.514
0
VERTEX
8
L1D0
10
336.92
20
-218.886
0
VERTEX
8
L1D0
10
335.649
20
-221.22
0
VERTEX
8
L1D0
10
334.309
20
-223.516
0
VERTEX
8
L1D0
10
332.899
20
-225.77
0
VERTEX
8
L1D0
10
331.423
20
-227.98
0
VERTEX
8
L1D0
10
329.88
20
-230.144
0
VERTEX
8
L1D0
10
328.374
20
-232.128
0
SEQEND
0
POLYLINE
8
L1D0
70
1
40
0
41
0
66
1
0
VERTEX
8
L1D0
10
354.755
20
-232.128
0
VERTEX
8
L1D0
10
356.186
20
-229.515
0
VERTEX
8
L1D0
10
357.546
20
-226.864
0
VERTEX
8
L1D0
10
358.833
20
-224.178
0
VERTEX
8
L1D0
10
360.047
20
-221.457
0
VERTEX
8
L1D0
10
361.187
20
-218.705
0
VERTEX
8
L1D0
10
362.253
20
-215.923
0
VERTEX
8
L1D0
10
363.242
20
-213.113
0
VERTEX
8
L1D0
10
364.155
20
-210.278
0
VERTEX
8
L1D0
10
364.99
20
-207.418
0
VERTEX
8
L1D0
10
365.749
20
-204.537
0
VERTEX
8
L1D0
10
366.428
20
-201.637
0
VERTEX
8
L1D0
10
366.432
20
-201.621
0
VERTEX
8
L1D0
10
549.568
20
-201.621
0
VERTEX
8
L1D0
10
549.572
20
-201.637
0
VERTEX
8
L1D0
10
550.251
20
-204.537
0
VERTEX
8
L1D0
10
551.01
20
-207.418
0
VERTEX
8
L1D0
10
551.845
20
-210.278
0
VERTEX
8
L1D0
10
552.758
20
-213.113
0
VERTEX
8
L1D0
10
553.747
20
-215.923
0
VERTEX
8
L1D0
10
554.813
20
-218.705
0
VERTEX
8
L1D0
10
555.953
20
-221.457
0
VERTEX
8
L1D0
10
557.167
20
-224.178
0
VERTEX
8
L1D0
10
558.454
20
-226.864
0
VERTEX
8
L1D0
10
559.814
20
-229.515
0
VERTEX
8
L1D0
10
561.245
20
-232.128
0
SEQEND
0
POLYLINE
8
L1D0
70
1
40
0
41
0
66
1
0
VERTEX
8
L1D0
10
587.626
20
-232.128
0
VERTEX
8
L1D0
10
586.12
20
-230.144
0
VERTEX
8
L1D0
10
584.577
20
-227.98
0
VERTEX
8
L1D0
10
583.101
20
-225.77
0
VERTEX
8
L1D0
10
581.691
20
-223.516
0
VERTEX
8
L1D0
10
580.351
20
-221.22
0
VERTEX
8
L1D0
10
579.08
20
-218.886
0
VERTEX
8
L1D0
10
577.88
20
-216.514
0
VERTEX
8
L1D0
10
576.753
20
-214.106
0
VERTEX
8
L1D0
10
575.699
20
-211.666
0
VERTEX
8
L1D0
10
574.719
20
-209.195
0
VERTEX
8
L1D0
10
573.814
20
-206.696
0
VERTEX
8
L1D0
10
572.985
20
-204.17
0
VERTEX
8
L1D0
10
572.232
20
-201.621
0
VERTEX
8
L1D0
10
743.768
20
-201.621
0
VERTEX
8
L1D0
10
743.015
20
-204.17
0
VERTEX
8
L1D0
10
742.186
20
-206.696
0
VERTEX
8
L1D0
10
741.281
20
-209.195
0
VERTEX
8
L1D0
10
740.301
20
-211.666
0
VERTEX
8
L1D0
10
739.247
20
-214.106
0
VERTEX
8
L1D0
10
738.12
20
-216.514
0
VERTEX
8
L1D0
10
736.92
20
-218.886
0
VERTEX
8
L1D0
10
735.649
20
-221.22
0
VERTEX
8
L1D0
10
734.309
20
-223.516
0
VERTEX
8
L1D0
10
732.899
20
-225.77
0
VERTEX
8
L1D0
10
731.423
20
-227.98
0
VERTEX
8
L1D0
10
729.88
20
-230.144
0
VERTEX
8
L1D0
10
728.374
20
-232.128
0
SEQEND
0
POLYLINE
8
L1D0
70
1
40
0
41
0
66
1
0
VERTEX
8
L1D0
10
754.755
20
-232.128
0
VERTEX
8
L1D0
10
756.186
20
-229.515
0
VERTEX
8
L1D0
10
757.546
20
-226.864
0
VERTEX
8
L1D0
10
758.833
20
-224.178
0
VERTEX
8
L1D0
10
760.047
20
-221.457
0
VERTEX
8
L1D0
10
761.187
20
-218.705
0
VERTEX
8
L1D0
10
762.253
20
-215.923
0
VERTEX
8
L1D0
10
763.242
20
-213.113
0
VERTEX
8
L1D0
10
764.155
20
-210.278
0
VERTEX
8
L1D0
10
764.99
20
-207.418
0
VERTEX
8
L1D0
10
765.749
20
-204.537
0
VERTEX
8
L1D0
10
766.428
20
-201.637
0
VERTEX
8
L1D0
10
766.432
20
-201.621
0
VERTEX
8
L1D0
10
2500
20
-201.621
0
VERTEX
8
L1D0
10
2500
20
-232.128
0
SEQEND
0
POLYLINE
8
L1D0
70
1
40
0
41
0
66
1
0
VERTEX
8
L1D0
10
-1489
20
-201.621
0
VERTEX
8
L1D0
10
-1489
20
-42.289
0
VERTEX
8
L1D0
10
-1486
20
-42.289
0
VERTEX
8
L1D0
10
-1486
20
-100
0
VERTEX
8
L1D0
10
-1464
20
-100
0
VERTEX
8
L1D0
10
-1464
20
-42.289
0
VERTEX
8
L1D0
10
-653
20
-42.289
0
VERTEX
8
L1D0
10
-653
20
-177.99
0
VERTEX
8
L1D0
10
-652.96
20
-180.969
0
VERTEX
8
L1D0
10
-652.839
20
-183.945
0
VERTEX
8
L1D0
10
-652.637
20
-186.918
0
VERTEX
8
L1D0
10
-652.355
20
-189.883
0
VERTEX
8
L1D0
10
-651.993
20
-192.84
0
VERTEX
8
L1D0
10
-651.551
20
-195.786
0
VERTEX
8
L1D0
10
-651.029
20
-198.719
0
VERTEX
8
L1D0
10
-650.432
20
-201.621
0
SEQEND
0
POLYLINE
8
L1D0
70
1
40
0
41
0
66
1
0
VERTEX
8
L1D0
10
-627.768
20
-201.621
0
VERTEX
8
L1D0
10
-628.443
20
-199.05
0
VERTEX
8
L1D0
10
-629.04
20
-196.46
0
VERTEX
8
L1D0
10
-629.559
20
-193.853
0
VERTEX
8
L1D0
10
-629.998
20
-191.231
0
VERTEX
8
L1D0
10
-630.358
20
-188.597
0
VERTEX
8
L1D0
10
-630.639
20
-185.954
0
VERTEX
8
L1D0
10
-630.839
20
-183.303
0
VERTEX
8
L1D0
10
-630.96
20
-180.648
0
VERTEX
8
L1D0
10
-631
20
-177.99
0
VERTEX
8
L1D0
10
-631
20
-42.289
0
VERTEX
8
L1D0
10
-453
20
-42.289
0
VERTEX
8
L1D0
10
-453
20
-177.99
0
VERTEX
8
L1D0
10
-453.04
20
-180.648
0
VERTEX
8
L1D0
10
-453.161
20
-183.303
0
VERTEX
8
L1D0
10
-453.361
20
-185.954
0
VERTEX
8
L1D0
10
-453.642
20
-188.597
0
VERTEX
8
L1D0
10
-454.002
20
-191.231
0
VERTEX
8
L1D0
10
-454.441
20
-193.853
0
VERTEX
8
L1D0
10
-454.96
20
-196.46
0
VERTEX
8
L1D0
10
-455.557
20
-199.05
0
VERTEX
8
L1D0
10
-456.232
20
-201.621
0
SEQEND
0
POLYLINE
8
L1D0
70
1
40
0
41
0
66
1
0
VERTEX
8
L1D0
10
-433.568
20
-201.621
0
VERTEX
8
L1D0
10
-432.971
20
-198.719
0
VERTEX
8
L1D0
10
-432.449
20
-195.786
0
VERTEX
8
L1D0
10
-432.007
20
-192.84
0
VERTEX
8
L1D0
10
-431.645
20
-189.883
0
VERTEX
8
L1D0
10
-431.363
20
-186.918
0
VERTEX
8
L1D0
10
-431.161
20
-183.945
0
VERTEX
8
L1D0
10
-431.04
20
-180.969
0
VERTEX
8
L1D0
10
-431
20
-177.99
0
VERTEX
8
L1D0
10
-431
20
-42.289
0
VERTEX
8
L1D0
10
-253
20
-42.289
0
VERTEX
8
L1D0
10
-253
20
-177.99
0
VERTEX
8
L1D0
10
-252.96
20
-180.969
0
VERTEX
8
L1D0
10
-252.839
20
-183.945
0
VERTEX
8
L1D0
10
-252.637
20
-186.918
0
VERTEX
8
L1D0
10
-252.355
20
-189.883
0
VERTEX
8
L1D0
10
-251.993
20
-192.84
0
VERTEX
8
L1D0
10
-251.551
20
-195.786
0
VERTEX
8
L1D0
10
-251.029
20
-198.719
0
VERTEX
8
L1D0
10
-250.432
20
-201.621
0
SEQEND
0
POLYLINE
8
L1D0
70
1
40
0
41
0
66
1
0
VERTEX
8
L1D0
10
-227.768
20
-201.621
0
VERTEX
8
L1D0
10
-228.443
20
-199.05
0
VERTEX
8
L1D0
10
-229.04
20
-196.46
0
VERTEX
8
L1D0
10
-229.559
20
-193.853
0
VERTEX
8
L1D0
10
-229.998
20
-191.231
0
VERTEX
8
L1D0
10
-230.358
20
-188.597
0
VERTEX
8
L1D0
10
-230.639
20
-185.954
0
VERTEX
8
L1D0
10
-230.839
20
-183.303
0
VERTEX
8
L1D0
10
-230.96
20
-180.648
0
VERTEX
8
L1D0
10
-231
20
-177.99
0
VERTEX
8
L1D0
10
-231
20
-42.289
0
VERTEX
8
L1D0
10
-53
20
-42.289
0
VERTEX
8
L1D0
10
-53
20
-177.99
0
VERTEX
8
L1D0
10
-53.04
20
-180.648
0
VERTEX
8
L1D0
10
-53.161
20
-183.303
0
VERTEX
8
L1D0
10
-53.361
20
-185.954
0
VERTEX
8
L1D0
10
-53.642
20
-188.597
0
VERTEX
8
L1D0
10
-54.002
20
-191.231
0
VERTEX
8
L1D0
10
-54.441
20
-193.853
0
VERTEX
8
L1D0
10
-54.96
20
-196.46
0
VERTEX
8
L1D0
10
-55.557
20
-199.05
0
VERTEX
8
L1D0
10
-56.232
20
-201.621
0
SEQEND
0
POLYLINE
8
L1D0
70
1
40
0
41
0
66
1
0
VERTEX
8
L1D0
10
-33.568
20
-201.621
0
VERTEX
8
L1D0
10
-32.971
20
-198.719
0
VERTEX
8
L1D0
10
-32.449
20
-195.786
0
VERTEX
8
L1D0
10
-32.007
20
-192.84
0
VERTEX
8
L1D0
10
-31.645
20
-189.883
0
VERTEX
8
L1D0
10
-31.363
20
-186.918
0
VERTEX
8
L1D0
10
-31.161
20
-183.945
0
VERTEX
8
L1D0
10
-31.04
20
-180.969
0
VERTEX
8
L1D0
10
-31
20
-177.99
0
VERTEX
8
L1D0
10
-31
20
-42.289
0
VERTEX
8
L1D0
10
147
20
-42.289
0
VERTEX
8
L1D0
10
147
20
-177.99
0
VERTEX
8
L1D0
10
147.04
20
-180.969
0
VERTEX
8
L1D0
10
147.161
20
-183.945
0
VERTEX
8
L1D0
10
147.363
20
-186.918
0
VERTEX
8
L1D0
10
147.645
20
-189.883
0
VERTEX
8
L1D0
10
148.007
20
-192.84
0
VERTEX
8
L1D0
10
148.449
20
-195.786
0
VERTEX
8
L1D0
10
148.971
20
-198.719
0
VERTEX
8
L1D0
10
149.568
20
-201.621
0
SEQEND
0
POLYLINE
8
L1D0
70
1
40
0
41
0
66
1
0
VERTEX
8
L1D0
10
172.232
20
-201.621
0
VERTEX
8
L1D0
10
171.557
20
-199.05
0
VERTEX
8
L1D0
10
170.96
20
-196.46
0
VERTEX
8
L1D0
10
170.441
20
-193.853
0
VERTEX
8
L1D0
10
170.002
20
-191.231
0
VERTEX
8
L1D0
10
169.642
20
-188.597
0
VERTEX
8
L1D0
10
169.361
20
-185.954
0
VERTEX
8
L1D0
10
169.161
20
-183.303
0
VERTEX
8
L1D0
10
169.04
20
-180.648
0
VERTEX
8
L1D0
10
169
20
-177.99
0
VERTEX
8
L1D0
10
169
20
-42.289
0
VERTEX
8
L1D0
10
347
20
-42.289
0
VERTEX
8
L1D0
10
347
20
-177.99
0
VERTEX
8
L1D0
10
346.96
20
-180.648
0
VERTEX
8
L1D0
10
346.839
20
-183.303
0
VERTEX
8
L1D0
10
346.639
20
-185.954
0
VERTEX
8
L1D0
10
346.358
20
-188.597
0
VERTEX
8
L1D0
10
345.998
20
-191.231
0
VERTEX
8
L1D0
10
345.559
20
-193.853
0
VERTEX
8
L1D0
10
345.04
20
-196.46
0
VERTEX
8
L1D0
10
344.443
20
-199.05
0
VERTEX
8
L1D0
10
343.768
20
-201.621
0
SEQEND
0
POLYLINE
8
L1D0
70
1
40
0
41
0
66
1
0
VERTEX
8
L1D0
10
366.432
20
-201.621
0
VERTEX
8
L1D0
10
367.029
20
-198.719
0
VERTEX
8
L1D0
10
367.551
20
-195.786
0
VERTEX
8
L1D0
10
367.993
20
-192.84
0
VERTEX
8
L1D0
10
368.355
20
-189.883
0
VERTEX
8
L1D0
10
368.637
20
-186.918
0
VERTEX
8
L1D0
10
368.839
20
-183.945
0
VERTEX
8
L1D0
10
368.96
20
-180.969
0
VERTEX
8
L1D0
10
369
20
-177.99
0
VERTEX
8
L1D0
10
369
20
-42.289
0
VERTEX
8
L1D0
10
547
20
-42.289
0
VERTEX
8
L1D0
10
547
20
-177.99
0
VERTEX
8
L1D0
10
547.04
20
-180.969
0
VERTEX
8
L1D0
10
547.161
20
-183.945
0
VERTEX
8
L1D0
10
547.363
20
-186.918
0
VERTEX
8
L1D0
10
547.645
20
-189.883
0
VERTEX
8
L1D0
10
548.007
20
-192.84
0
VERTEX
8
L1D0
10
548.449
20
-195.786
0
VERTEX
8
L1D0
10
548.971
20
-198.719
0
VERTEX
8
L1D0
10
549.568
20
-201.621
0
SEQEND
0
POLYLINE
8
L1D0
70
1
40
0
41
0
66
1
0
VERTEX
8
L1D0
10
572.232
20
-201.621
0
VERTEX
8
L1D0
10
571.557
20
-199.05
0
VERTEX
8
L1D0
10
570.96
20
-196.46
0
VERTEX
8
L1D0
10
570.441
20
-193.853
0
VERTEX
8
L1D0
10
570.002
20
-191.231
0
VERTEX
8
L1D0
10
569.642
20
-188.597
0
VERTEX
8
L1D0
10
569.361
20
-185.954
0
VERTEX
8
L1D0
10
569.161
20
-183.303
0
VERTEX
8
L1D0
10
569.04
20
-180.648
0
VERTEX
8
L1D0
10
569
20
-177.99
0
VERTEX
8
L1D0
10
569
20
-42.289
0
VERTEX
8
L1D0
10
762.746
20
-42.289
0
VERTEX
8
L1D0
10
761.245
20
-44.862
0
VERTEX
8
L1D0
10
759.814
20
-47.475
0
VERTEX
8
L1D0
10
758.454
20
-50.126
0
VERTEX
8
L1D0
10
757.167
20
-52.812
0
VERTEX
8
L1D0
10
755.953
20
-55.533
0
VERTEX
8
L1D0
10
754.813
20
-58.285
0
VERTEX
8
L1D0
10
753.747
20
-61.067
0
VERTEX
8
L1D0
10
752.758
20
-63.877
0
VERTEX
8
L1D0
10
751.845
20
-66.713
0
VERTEX
8
L1D0
10
751.01
20
-69.572
0
VERTEX
8
L1D0
10
750.251
20
-72.453
0
VERTEX
8
L1D0
10
749.572
20
-75.353
0
VERTEX
8
L1D0
10
748.971
20
-78.271
0
VERTEX
8
L1D0
10
748.449
20
-81.204
0
VERTEX
8
L1D0
10
748.007
20
-84.15
0
VERTEX
8
L1D0
10
747.645
20
-87.107
0
VERTEX
8
L1D0
10
747.363
20
-90.073
0
VERTEX
8
L1D0
10
747.161
20
-93.045
0
VERTEX
8
L1D0
10
747.04
20
-96.021
0
VERTEX
8
L1D0
10
747
20
-99
0
VERTEX
8
L1D0
10
747
20
-177.99
0
VERTEX
8
L1D0
10
746.96
20
-180.648
0
VERTEX
8
L1D0
10
746.839
20
-183.303
0
VERTEX
8
L1D0
10
746.639
20
-185.954
0
VERTEX
8
L1D0
10
746.358
20
-188.597
0
VERTEX
8
L1D0
10
745.998
20
-191.231
0
VERTEX
8
L1D0
10
745.559
20
-193.853
0
VERTEX
8
L1D0
10
745.04
20
-196.46
0
VERTEX
8
L1D0
10
744.443
20
-199.05
0
VERTEX
8
L1D0
10
743.768
20
-201.621
0
SEQEND
0
POLYLINE
8
L1D0
70
1
40
0
41
0
66
1
0
VERTEX
8
L1D0
10
766.432
20
-201.621
0
VERTEX
8
L1D0
10
767.029
20
-198.719
0
VERTEX
8
L1D0
10
767.551
20
-195.786
0
VERTEX
8
L1D0
10
767.993
20
-192.84
0
VERTEX
8
L1D0
10
768.355
20
-189.883
0
VERTEX
8
L1D0
10
768.637
20
-186.918
0
VERTEX
8
L1D0
10
768.839
20
-183.945
0
VERTEX
8
L1D0
10
768.96
20
-180.969
0
VERTEX
8
L1D0
10
769
20
-177.99
0
VERTEX
8
L1D0
10
769
20
-99
0
VERTEX
8
L1D0
10
769.04
20
-96.342
0
VERTEX
8
L1D0
10
769.161
20
-93.687
0
VERTEX
8
L1D0
10
769.361
20
-91.036
0
VERTEX
8
L1D0
10
769.642
20
-88.393
0
VERTEX
8
L1D0
10
770.002
20
-85.759
0
VERTEX
8
L1D0
10
770.441
20
-83.138
0
VERTEX
8
L1D0
10
770.96
20
-80.53
0
VERTEX
8
L1D0
10
771.557
20
-77.94
0
VERTEX
8
L1D0
10
772.232
20
-75.369
0
VERTEX
8
L1D0
10
772.985
20
-72.82
0
VERTEX
8
L1D0
10
773.814
20
-70.294
0
VERTEX
8
L1D0
10
774.719
20
-67.795
0
VERTEX
8
L1D0
10
775.699
20
-65.324
0
VERTEX
8
L1D0
10
776.753
20
-62.884
0
VERTEX
8
L1D0
10
777.88
20
-60.476
0
VERTEX
8
L1D0
10
779.08
20
-58.104
0
VERTEX
8
L1D0
10
780.351
20
-55.77
0
VERTEX
8
L1D0
10
781.691
20
-53.474
0
VERTEX
8
L1D0
10
783.101
20
-51.22
0
VERTEX
8
L1D0
10
784.577
20
-49.01
0
VERTEX
8
L1D0
10
786.12
20
-46.846
0
VERTEX
8
L1D0
10
787.728
20
-44.729
0
VERTEX
8
L1D0
10
789.399
20
-42.661
0
VERTEX
8
L1D0
10
789.718
20
-42.289
0
VERTEX
8
L1D0
10
2500
20
-42.289
0
VERTEX
8
L1D0
10
2500
20
-201.621
0
SEQEND
0
POLYLINE
8
L1D0
70
1
40
0
41
0
66
1
0
VERTEX
8
L1D0
10
-1489
20
-42.289
0
VERTEX
8
L1D0
10
-1489
20
36.775
0
VERTEX
8
L1D0
10
-878.775
20
36.775
0
VERTEX
8
L1D0
10
-880.682
20
34.924
0
VERTEX
8
L1D0
10
-882.645
20
33.131
0
VERTEX
8
L1D0
10
-884.661
20
31.399
0
VERTEX
8
L1D0
10
-886.729
20
29.728
0
VERTEX
8
L1D0
10
-888.846
20
28.12
0
VERTEX
8
L1D0
10
-891.01
20
26.577
0
VERTEX
8
L1D0
10
-893.22
20
25.101
0
VERTEX
8
L1D0
10
-895.474
20
23.691
0
VERTEX
8
L1D0
10
-897.77
20
22.351
0
VERTEX
8
L1D0
10
-900.104
20
21.08
0
VERTEX
8
L1D0
10
-902.476
20
19.88
0
VERTEX
8
L1D0
10
-904.884
20
18.753
0
VERTEX
8
L1D0
10
-907.324
20
17.699
0
VERTEX
8
L1D0
10
-909.795
20
16.719
0
VERTEX
8
L1D0
10
-912.294
20
15.814
0
VERTEX
8
L1D0
10
-914.82
20
14.985
0
VERTEX
8
L1D0
10
-917.369
20
14.232
0
VERTEX
8
L1D0
10
-919.94
20
13.557
0
VERTEX
8
L1D0
10
-922.53
20
12.96
0
VERTEX
8
L1D0
10
-925.138
20
12.441
0
VERTEX
8
L1D0
10
-927.759
20
12.002
0
VERTEX
8
L1D0
10
-930.393
20
11.642
0
VERTEX
8
L1D0
10
-933.036
20
11.361
0
VERTEX
8
L1D0
10
-935.687
20
11.161
0
VERTEX
8
L1D0
10
-938.342
20
11.04
0
VERTEX
8
L1D0
10
-941
20
11
0
VERTEX
8
L1D0
10
-1450
20
11
0
VERTEX
8
L1D0
10
-1451.713
20
10.959
0
VERTEX
8
L1D0
10
-1453.422
20
10.837
0
VERTEX
8
L1D0
10
-1455.123
20
10.634
0
VERTEX
8
L1D0
10
-1456.813
20
10.349
0
VERTEX
8
L1D0
10
-1458.487
20
9.985
0
VERTEX
8
L1D0
10
-1460.142
20
9.542
0
VERTEX
8
L1D0
10
-1461.774
20
9.02
0
VERTEX
8
L1D0
10
-1463.38
20
8.421
0
VERTEX
8
L1D0
10
-1464.955
20
7.747
0
VERTEX
8
L1D0
10
-1466.496
20
6.998
0
VERTEX
8
L1D0
10
-1468
20
6.177
0
VERTEX
8
L1D0
10
-1469.463
20
5.285
0
VERTEX
8
L1D0
10
-1470.882
20
4.325
0
VERTEX
8
L1D0
10
-1472.254
20
3.298
0
VERTEX
8
L1D0
10
-1473.575
20
2.207
0
VERTEX
8
L1D0
10
-1474.843
20
1.054
0
VERTEX
8
L1D0
10
-1476.054
20
-0.157
0
VERTEX
8
L1D0
10
-1477.207
20
-1.425
0
VERTEX
8
L1D0
10
-1478.298
20
-2.746
0
VERTEX
8
L1D0
10
-1479.325
20
-4.118
0
VERTEX
8
L1D0
10
-1480.285
20
-5.537
0
VERTEX
8
L1D0
10
-1481.177
20
-7
0
VERTEX
8
L1D0
10
-1481.998
20
-8.504
0
VERTEX
8
L1D0
10
-1482.747
20
-10.045
0
VERTEX
8
L1D0
10
-1483.421
20
-11.62
0
VERTEX
8
L1D0
10
-1484.02
20
-13.226
0
VERTEX
8
L1D0
10
-1484.542
20
-14.858
0
VERTEX
8
L1D0
10
-1484.985
20
-16.513
0
VERTEX
8
L1D0
10
-1485.349
20
-18.187
0
VERTEX
8
L1D0
10
-1485.634
20
-19.877
0
VERTEX
8
L1D0
10
-1485.837
20
-21.578
0
VERTEX
8
L1D0
10
-1485.959
20
-23.287
0
VERTEX
8
L1D0
10
-1486
20
-25
0
VERTEX
8
L1D0
10
-1486
20
-42.289
0
SEQEND
0
POLYLINE
8
L1D0
70
1
40
0
41
0
66
1
0
VERTEX
8
L1D0
10
-1464
20
-42.289
0
VERTEX
8
L1D0
10
-1464
20
-25
0
VERTEX
8
L1D0
10
-1463.961
20
-23.954
0
VERTEX
8
L1D0
10
-1463.844
20
-22.913
0
VERTEX
8
L1D0
10
-1463.649
20
-21.885
0
VERTEX
8
L1D0
10
-1463.378
20
-20.873
0
VERTEX
8
L1D0
10
-1463.032
20
-19.885
0
VERTEX
8
L1D0
10
-1462.614
20
-18.926
0
VERTEX
8
L1D0
10
-1462.124
20
-18
0
VERTEX
8
L1D0
10
-1461.567
20
-17.114
0
VERTEX
8
L1D0
10
-1460.946
20
-16.271
0
VERTEX
8
L1D0
10
-1460.263
20
-15.478
0
VERTEX
8
L1D0
10
-1459.522
20
-14.737
0
VERTEX
8
L1D0
10
-1458.729
20
-14.054
0
VERTEX
8
L1D0
10
-1457.886
20
-13.433
0
VERTEX
8
L1D0
10
-1457
20
-12.876
0
VERTEX
8
L1D0
10
-1456.074
20
-12.386
0
VERTEX
8
L1D0
10
-1455.115
20
-11.968
0
VERTEX
8
L1D0
10
-1454.127
20
-11.622
0
VERTEX
8
L1D0
10
-1453.115
20
-11.351
0
VERTEX
8
L1D0
10
-1452.087
20
-11.156
0
VERTEX
8
L1D0
10
-1451.046
20
-11.039
0
VERTEX
8
L1D0
10
-1450
20
-11
0
VERTEX
8
L1D0
10
-941
20
-11
0
VERTEX
8
L1D0
10
-938.021
20
-10.96
0
VERTEX
8
L1D0
10
-935.045
20
-10.839
0
VERTEX
8
L1D0
10
-932.073
20
-10.637
0
VERTEX
8
L1D0
10
-929.107
20
-10.355
0
VERTEX
8
L1D0
10
-926.15
20
-9.993
0
VERTEX
8
L1D0
10
-923.204
20
-9.551
0
VERTEX
8
L1D0
10
-920.271
20
-9.029
0
VERTEX
8
L1D0
10
-917.353
20
-8.428
0
VERTEX
8
L1D0
10
-914.453
20
-7.749
0
VERTEX
8
L1D0
10
-911.572
20
-6.99
0
VERTEX
8
L1D0
10
-908.713
20
-6.155
0
VERTEX
8
L1D0
10
-905.877
20
-5.242
0
VERTEX
8
L1D0
10
-903.067
20
-4.253
0
VERTEX
8
L1D0
10
-900.285
20
-3.187
0
VERTEX
8
L1D0
10
-897.533
20
-2.047
0
VERTEX
8
L1D0
10
-894.812
20
-0.833
0
VERTEX
8
L1D0
10
-892.126
20
0.454
0
VERTEX
8
L1D0
10
-889.475
20
1.814
0
VERTEX
8
L1D0
10
-886.862
20
3.245
0
VERTEX
8
L1D0
10
-884.289
20
4.746
0
VERTEX
8
L1D0
10
-881.758
20
6.316
0
VERTEX
8
L1D0
10
-879.269
20
7.954
0
VERTEX
8
L1D0
10
-876.827
20
9.659
0
VERTEX
8
L1D0
10
-874.431
20
11.43
0
VERTEX
8
L1D0
10
-872.084
20
13.265
0
VERTEX
8
L1D0
10
-869.788
20
15.162
0
VERTEX
8
L1D0
10
-867.543
20
17.121
0
VERTEX
8
L1D0
10
-865.353
20
19.14
0
VERTEX
8
L1D0
10
-863.218
20
21.218
0
VERTEX
8
L1D0
10
-861.14
20
23.353
0
VERTEX
8
L1D0
10
-859.121
20
25.543
0
VERTEX
8
L1D0
10
-857.162
20
27.788
0
VERTEX
8
L1D0
10
-855.265
20
30.084
0
VERTEX
8
L1D0
10
-853.43
20
32.431
0
VERTEX
8
L1D0
10
-851.659
20
34.827
0
VERTEX
8
L1D0
10
-850.3
20
36.775
0
VERTEX
8
L1D0
10
-653
20
36.775
0
VERTEX
8
L1D0
10
-653
20
-42.289
0
SEQEND
0
POLYLINE
8
L1D0
70
1
40
0
41
0
66
1
0
VERTEX
8
L1D0
10
569
20
-42.289
0
VERTEX
8
L1D0
10
569
20
36.775
0
VERTEX
8
L1D0
10
2500
20
36.775
0
VERTEX
8
L1D0
10
2500
20
-42.289
0
VERTEX
8
L1D0
10
789.718
20
-42.289
0
VERTEX
8
L1D0
10
791.131
20
-40.645
0
VERTEX
8
L1D0
10
792.924
20
-38.682
0
VERTEX
8
L1D0
10
794.775
20
-36.775
0
VERTEX
8
L1D0
10
796.682
20
-34.924
0
VERTEX
8
L1D0
10
798.645
20
-33.131
0
VERTEX
8
L1D0
10
800.661
20
-31.399
0
VERTEX
8
L1D0
10
802.729
20
-29.728
0
VERTEX
8
L1D0
10
804.846
20
-28.12
0
VERTEX
8
L1D0
10
807.01
20
-26.577
0
VERTEX
8
L1D0
10
809.22
20
-25.101
0
VERTEX
8
L1D0
10
811.474
20
-23.691
0
VERTEX
8
L1D0
10
813.77
20
-22.351
0
VERTEX
8
L1D0
10
816.104
20
-21.08
0
VERTEX
8
L1D0
10
818.476
20
-19.88
0
VERTEX
8
L1D0
10
820.884
20
-18.753
0
VERTEX
8
L1D0
10
823.324
20
-17.699
0
VERTEX
8
L1D0
10
825.795
20
-16.719
0
VERTEX
8
L1D0
10
828.294
20
-15.814
0
VERTEX
8
L1D0
10
830.82
20
-14.985
0
VERTEX
8
L1D0
10
833.369
20
-14.232
0
VERTEX
8
L1D0
10
835.94
20
-13.557
0
VERTEX
8
L1D0
10
838.53
20
-12.96
0
VERTEX
8
L1D0
10
841.138
20
-12.441
0
VERTEX
8
L1D0
10
843.759
20
-12.002
0
VERTEX
8
L1D0
10
846.393
20
-11.642
0
VERTEX
8
L1D0
10
849.036
20
-11.361
0
VERTEX
8
L1D0
10
851.687
20
-11.161
0
VERTEX
8
L1D0
10
854.342
20
-11.04
0
VERTEX
8
L1D0
10
857
20
-11
0
VERTEX
8
L1D0
10
1004
20
-11
0
VERTEX
8
L1D0
10
1004
20
-8.4
0
VERTEX
8
L1D0
10
1206
20
-8.4
0
VERTEX
8
L1D0
10
1206
20
8.4
0
VERTEX
8
L1D0
10
1004
20
8.4
0
VERTEX
8
L1D0
10
1004
20
11
0
VERTEX
8
L1D0
10
857
20
11
0
VERTEX
8
L1D0
10
854.021
20
10.96
0
VERTEX
8
L1D0
10
851.045
20
10.839
0
VERTEX
8
L1D0
10
848.073
20
10.637
0
VERTEX
8
L1D0
10
845.107
20
10.355
0
VERTEX
8
L1D0
10
842.15
20
9.993
0
VERTEX
8
L1D0
10
839.204
20
9.551
0
VERTEX
8
L1D0
10
836.271
20
9.029
0
VERTEX
8
L1D0
10
833.353
20
8.428
0
VERTEX
8
L1D0
10
830.453
20
7.749
0
VERTEX
8
L1D0
10
827.572
20
6.99
0
VERTEX
8
L1D0
10
824.713
20
6.155
0
VERTEX
8
L1D0
10
821.877
20
5.242
0
VERTEX
8
L1D0
10
819.067
20
4.253
0
VERTEX
8
L1D0
10
816.285
20
3.187
0
VERTEX
8
L1D0
10
813.533
20
2.047
0
VERTEX
8
L1D0
10
810.812
20
0.833
0
VERTEX
8
L1D0
10
808.126
20
-0.454
0
VERTEX
8
L1D0
10
805.475
20
-1.814
0
VERTEX
8
L1D0
10
802.862
20
-3.245
0
VERTEX
8
L1D0
10
800.289
20
-4.746
0
VERTEX
8
L1D0
10
797.758
20
-6.316
0
VERTEX
8
L1D0
10
795.269
20
-7.954
0
VERTEX
8
L1D0
10
792.827
20
-9.659
0
VERTEX
8
L1D0
10
790.431
20
-11.43
0
VERTEX
8
L1D0
10
788.084
20
-13.265
0
VERTEX
8
L1D0
10
785.788
20
-15.162
0
VERTEX
8
L1D0
10
783.543
20
-17.121
0
VERTEX
8
L1D0
10
781.353
20
-19.14
0
VERTEX
8
L1D0
10
779.218
20
-21.218
0
VERTEX
8
L1D0
10
777.14
20
-23.353
0
VERTEX
8
L1D0
10
775.121
20
-25.543
0
VERTEX
8
L1D0
10
773.162
20
-27.788
0
VERTEX
8
L1D0
10
771.265
20
-30.084
0
VERTEX
8
L1D0
10
769.43
20
-32.431
0
VERTEX
8
L1D0
10
767.659
20
-34.827
0
VERTEX
8
L1D0
10
765.954
20
-37.269
0
VERTEX
8
L1D0
10
764.316
20
-39.758
0
VERTEX
8
L1D0
10
762.746
20
-42.289
0
SEQEND
0
POLYLINE
8
L1D0
70
1
40
0
41
0
66
1
0
VERTEX
8
L1D0
10
-1489
20
36.775
0
VERTEX
8
L1D0
10
-1489
20
201.621
0
VERTEX
8
L1D0
10
-850.432
20
201.621
0
VERTEX
8
L1D0
10
-851.029
20
198.719
0
VERTEX
8
L1D0
10
-851.551
20
195.786
0
VERTEX
8
L1D0
10
-851.993
20
192.84
0
VERTEX
8
L1D0
10
-852.355
20
189.883
0
VERTEX
8
L1D0
10
-852.637
20
186.918
0
VERTEX
8
L1D0
10
-852.839
20
183.945
0
VERTEX
8
L1D0
10
-852.96
20
180.969
0
VERTEX
8
L1D0
10
-853
20
177.99
0
VERTEX
8
L1D0
10
-853
20
99
0
VERTEX
8
L1D0
10
-853.04
20
96.342
0
VERTEX
8
L1D0
10
-853.161
20
93.687
0
VERTEX
8
L1D0
10
-853.361
20
91.036
0
VERTEX
8
L1D0
10
-853.642
20
88.393
0
VERTEX
8
L1D0
10
-854.002
20
85.759
0
VERTEX
8
L1D0
10
-854.441
20
83.138
0
VERTEX
8
L1D0
10
-854.96
20
80.53
0
VERTEX
8
L1D0
10
-855.557
20
77.94
0
VERTEX
8
L1D0
10
-856.232
20
75.369
0
VERTEX
8
L1D0
10
-856.985
20
72.82
0
VERTEX
8
L1D0
10
-857.814
20
70.294
0
VERTEX
8
L1D0
10
-858.719
20
67.795
0
VERTEX
8
L1D0
10
-859.699
20
65.324
0
VERTEX
8
L1D0
10
-860.753
20
62.884
0
VERTEX
8
L1D0
10
-861.88
20
60.476
0
VERTEX
8
L1D0
10
-863.08
20
58.104
0
VERTEX
8
L1D0
10
-864.351
20
55.77
0
VERTEX
8
L1D0
10
-865.691
20
53.474
0
VERTEX
8
L1D0
10
-867.101
20
51.22
0
VERTEX
8
L1D0
10
-868.577
20
49.01
0
VERTEX
8
L1D0
10
-870.12
20
46.846
0
VERTEX
8
L1D0
10
-871.728
20
44.729
0
VERTEX
8
L1D0
10
-873.399
20
42.661
0
VERTEX
8
L1D0
10
-875.131
20
40.645
0
VERTEX
8
L1D0
10
-876.924
20
38.682
0
VERTEX
8
L1D0
10
-878.775
20
36.775
0
SEQEND
0
POLYLINE
8
L1D0
70
1
40
0
41
0
66
1
0
VERTEX
8
L1D0
10
-850.3
20
36.775
0
VERTEX
8
L1D0
10
-849.954
20
37.269
0
VERTEX
8
L1D0
10
-848.316
20
39.758
0
VERTEX
8
L1D0
10
-846.746
20
42.289
0
VERTEX
8
L1D0
10
-845.245
20
44.862
0
VERTEX
8
L1D0
10
-843.814
20
47.475
0
VERTEX
8
L1D0
10
-842.454
20
50.126
0
VERTEX
8
L1D0
10
-841.167
20
52.812
0
VERTEX
8
L1D0
10
-839.953
20
55.533
0
VERTEX
8
L1D0
10
-838.813
20
58.285
0
VERTEX
8
L1D0
10
-837.747
20
61.067
0
VERTEX
8
L1D0
10
-836.758
20
63.877
0
VERTEX
8
L1D0
10
-835.845
20
66.713
0
VERTEX
8
L1D0
10
-835.01
20
69.572
0
VERTEX
8
L1D0
10
-834.251
20
72.453
0
VERTEX
8
L1D0
10
-833.572
20
75.353
0
VERTEX
8
L1D0
10
-832.971
20
78.271
0
VERTEX
8
L1D0
10
-832.449
20
81.204
0
VERTEX
8
L1D0
10
-832.007
20
84.15
0
VERTEX
8
L1D0
10
-831.645
20
87.107
0
VERTEX
8
L1D0
10
-831.363
20
90.073
0
VERTEX
8
L1D0
10
-831.161
20
93.045
0
VERTEX
8
L1D0
10
-831.04
20
96.021
0
VERTEX
8
L1D0
10
-831
20
99
0
VERTEX
8
L1D0
10
-831
20
177.99
0
VERTEX
8
L1D0
10
-830.96
20
180.648
0
VERTEX
8
L1D0
10
-830.839
20
183.303
0
VERTEX
8
L1D0
10
-830.639
20
185.954
0
VERTEX
8
L1D0
10
-830.358
20
188.597
0
VERTEX
8
L1D0
10
-829.998
20
191.231
0
VERTEX
8
L1D0
10
-829.559
20
193.853
0
VERTEX
8
L1D0
10
-829.04
20
196.46
0
VERTEX
8
L1D0
10
-828.443
20
199.05
0
VERTEX
8
L1D0
10
-827.768
20
201.621
0
VERTEX
8
L1D0
10
-656.232
20
201.621
0
VERTEX
8
L1D0
10
-655.557
20
199.05
0
VERTEX
8
L1D0
10
-654.96
20
196.46
0
VERTEX
8
L1D0
10
-654.441
20
193.853
0
VERTEX
8
L1D0
10
-654.002
20
191.231
0
VERTEX
8
L1D0
10
-653.642
20
188.597
0
VERTEX
8
L1D0
10
-653.361
20
185.954
0
VERTEX
8
L1D0
10
-653.161
20
183.303
0
VERTEX
8
L1D0
10
-653.04
20
180.648
0
VERTEX
8
L1D0
10
-653
20
177.99
0
VERTEX
8
L1D0
10
-653
20
36.775
0
SEQEND
0
POLYLINE
8
L1D0
70
1
40
0
41
0
66
1
0
VERTEX
8
L1D0
10
-631
20
36.775
0
VERTEX
8
L1D0
10
-631
20
177.99
0
VERTEX
8
L1D0
10
-631.04
20
180.969
0
VERTEX
8
L1D0
10
-631.161
20
183.945
0
VERTEX
8
L1D0
10
-631.363
20
186.918
0
VERTEX
8
L1D0
10
-631.645
20
189.883
0
VERTEX
8
L1D0
10
-632.007
20
192.84
0
VERTEX
8
L1D0
10
-632.449
20
195.786
0
VERTEX
8
L1D0
10
-632.971
20
198.719
0
VERTEX
8
L1D0
10
-633.568
20
201.621
0
VERTEX
8
L1D0
10
-450.432
20
201.621
0
VERTEX
8
L1D0
10
-451.029
20
198.719
0
VERTEX
8
L1D0
10
-451.551
20
195.786
0
VERTEX
8
L1D0
10
-451.993
20
192.84
0
VERTEX
8
L1D0
10
-452.355
20
189.883
0
VERTEX
8
L1D0
10
-452.637
20
186.918
0
VERTEX
8
L1D0
10
-452.839
20
183.945
0
VERTEX
8
L1D0
10
-452.96
20
180.969
0
VERTEX
8
L1D0
10
-453
20
177.99
0
VERTEX
8
L1D0
10
-453
20
36.775
0
SEQEND
0
POLYLINE
8
L1D0
70
1
40
0
41
0
66
1
0
VERTEX
8
L1D0
10
-431
20
36.775
0
VERTEX
8
L1D0
10
-431
20
177.99
0
VERTEX
8
L1D0
10
-430.96
20
180.648
0
VERTEX
8
L1D0
10
-430.839
20
183.303
0
VERTEX
8
L1D0
10
-430.639
20
185.954
0
VERTEX
8
L1D0
10
-430.358
20
188.597
0
VERTEX
8
L1D0
10
-429.998
20
191.231
0
VERTEX
8
L1D0
10
-429.559
20
193.853
0
VERTEX
8
L1D0
10
-429.04
20
196.46
0
VERTEX
8
L1D0
10
-428.443
20
199.05
0
VERTEX
8
L1D0
10
-427.768
20
201.621
0
VERTEX
8
L1D0
10
-256.232
20
201.621
0
VERTEX
8
L1D0
10
-255.557
20
199.05
0
VERTEX
8
L1D0
10
-254.96
20
196.46
0
VERTEX
8
L1D0
10
-254.441
20
193.853
0
VERTEX
8
L1D0
10
-254.002
20
191.231
0
VERTEX
8
L1D0
10
-253.642
20
188.597
0
VERTEX
8
L1D0
10
-253.361
20
185.954
0
VERTEX
8
L1D0
10
-253.161
20
183.303
0
VERTEX
8
L1D0
10
-253.04
20
180.648
0
VERTEX
8
L1D0
10
-253
20
177.99
0
VERTEX
8
L1D0
10
-253
20
36.775
0
SEQEND
0
POLYLINE
8
L1D0
70
1
40
0
41
0
66
1
0
VERTEX
8
L1D0
10
-231
20
36.775
0
VERTEX
8
L1D0
10
-231
20
177.99
0
VERTEX
8
L1D0
10
-231.04
20
180.969
0
VERTEX
8
L1D0
10
-231.161
20
183.945
0
VERTEX
8
L1D0
10
-231.363
20
186.918
0
VERTEX
8
L1D0
10
-231.645
20
189.883
0
VERTEX
8
L1D0
10
-232.007
20
192.84
0
VERTEX
8
L1D0
10
-232.449
20
195.786
0
VERTEX
8
L1D0
10
-232.971
20
198.719
0
VERTEX
8
L1D0
10
-233.568
20
201.621
0
VERTEX
8
L1D0
10
-50.432
20
201.621
0
VERTEX
8
L1D0
10
-51.029
20
198.719
0
VERTEX
8
L1D0
10
-51.551
20
195.786
0
VERTEX
8
L1D0
10
-51.993
20
192.84
0
VERTEX
8
L1D0
10
-52.355
20
189.883
0
VERTEX
8
L1D0
10
-52.637
20
186.918
0
VERTEX
8
L1D0
10
-52.839
20
183.945
0
VERTEX
8
L1D0
10
-52.96
20
180.969
0
VERTEX
8
L1D0
10
-53
20
177.99
0
VERTEX
8
L1D0
10
-53
20
36.775
0
SEQEND
0
POLYLINE
8
L1D0
70
1
40
0
41
0
66
1
0
VERTEX
8
L1D0
10
-31
20
36.775
0
VERTEX
8
L1D0
10
-31
20
177.99
0
VERTEX
8
L1D0
10
-30.96
20
180.648
0
VERTEX
8
L1D0
10
-30.839
20
183.303
0
VERTEX
8
L1D0
10
-30.639
20
185.954
0
VERTEX
8
L1D0
10
-30.358
20
188.597
0
VERTEX
8
L1D0
10
-29.998
20
191.231
0
VERTEX
8
L1D0
10
-29.559
20
193.853
0
VERTEX
8
L1D0
10
-29.04
20
196.46
0
VERTEX
8
L1D0
10
-28.443
20
199.05
0
VERTEX
8
L1D0
10
-27.768
20
201.621
0
VERTEX
8
L1D0
10
143.768
20
201.621
0
VERTEX
8
L1D0
10
144.443
20
199.05
0
VERTEX
8
L1D0
10
145.04
20
196.46
0
VERTEX
8
L1D0
10
145.559
20
193.853
0
VERTEX
8
L1D0
10
145.998
20
191.231
0
VERTEX
8
L1D0
10
146.358
20
188.597
0
VERTEX
8
L1D0
10
146.639
20
185.954
0
VERTEX
8
L1D0
10
146.839
20
183.303
0
VERTEX
8
L1D0
10
146.96
20
180.648
0
VERTEX
8
L1D0
10
147
20
177.99
0
VERTEX
8
L1D0
10
147
20
36.775
0
SEQEND
0
POLYLINE
8
L1D0
70
1
40
0
41
0
66
1
0
VERTEX
8
L1D0
10
169
20
36.775
0
VERTEX
8
L1D0
10
169
20
177.99
0
VERTEX
8
L1D0
10
168.96
20
180.969
0
VERTEX
8
L1D0
10
168.839
20
183.945
0
VERTEX
8
L1D0
10
168.637
20
186.918
0
VERTEX
8
L1D0
10
168.355
20
189.883
0
VERTEX
8
L1D0
10
167.993
20
192.84
0
VERTEX
8
L1D0
10
167.551
20
195.786
0
VERTEX
8
L1D0
10
167.029
20
198.719
0
VERTEX
8
L1D0
10
166.432
20
201.621
0
VERTEX
8
L1D0
10
349.568
20
201.621
0
VERTEX
8
L1D0
10
348.971
20
198.719
0
VERTEX
8
L1D0
10
348.449
20
195.786
0
VERTEX
8
L1D0
10
348.007
20
192.84
0
VERTEX
8
L1D0
10
347.645
20
189.883
0
VERTEX
8
L1D0
10
347.363
20
186.918
0
VERTEX
8
L1D0
10
347.161
20
183.945
0
VERTEX
8
L1D0
10
347.04
20
180.969
0
VERTEX
8
L1D0
10
347
20
177.99
0
VERTEX
8
L1D0
10
347
20
36.775
0
SEQEND
0
POLYLINE
8
L1D0
70
1
40
0
41
0
66
1
0
VERTEX
8
L1D0
10
369
20
36.775
0
VERTEX
8
L1D0
10
369
20
177.99
0
VERTEX
8
L1D0
10
369.04
20
180.648
0
VERTEX
8
L1D0
10
369.161
20
183.303
0
VERTEX
8
L1D0
10
369.361
20
185.954
0
VERTEX
8
L1D0
10
369.642
20
188.597
0
VERTEX
8
L1D0
10
370.002
20
191.231
0
VERTEX
8
L1D0
10
370.441
20
193.853
0
VERTEX
8
L1D0
10
370.96
20
196.46
0
VERTEX
8
L1D0
10
371.557
20
199.05
0
VERTEX
8
L1D0
10
372.232
20
201.621
0
VERTEX
8
L1D0
10
543.768
20
201.621
0
VERTEX
8
L1D0
10
544.443
20
199.05
0
VERTEX
8
L1D0
10
545.04
20
196.46
0
VERTEX
8
L1D0
10
545.559
20
193.853
0
VERTEX
8
L1D0
10
545.998
20
191.231
0
VERTEX
8
L1D0
10
546.358
20
188.597
0
VERTEX
8
L1D0
10
546.57
20
186.601
0
VERTEX
8
L1D0
10
546.639
20
185.954
0
VERTEX
8
L1D0
10
546.839
20
183.303
0
VERTEX
8
L1D0
10
546.96
20
180.648
0
VERTEX
8
L1D0
10
547
20
177.99
0
VERTEX
8
L1D0
10
547
20
36.775
0
SEQEND
0
POLYLINE
8
L1D0
70
1
40
0
41
0
66
1
0
VERTEX
8
L1D0
10
569
20
36.775
0
VERTEX
8
L1D0
10
569
20
177.99
0
VERTEX
8
L1D0
10
568.96
20
180.969
0
VERTEX
8
L1D0
10
568.839
20
183.945
0
VERTEX
8
L1D0
10
568.637
20
186.918
0
VERTEX
8
L1D0
10
568.355
20
189.883
0
VERTEX
8
L1D0
10
567.993
20
192.84
0
VERTEX
8
L1D0
10
567.551
20
195.786
0
VERTEX
8
L1D0
10
567.029
20
198.719
0
VERTEX
8
L1D0
10
566.432
20
201.621
0
VERTEX
8
L1D0
10
2500
20
201.621
0
VERTEX
8
L1D0
10
2500
20
36.775
0
SEQEND
0
POLYLINE
8
L1D0
70
1
40
0
41
0
66
1
0
VERTEX
8
L1D0
10
-1489
20
201.621
0
VERTEX
8
L1D0
10
-1489
20
232.128
0
VERTEX
8
L1D0
10
-838.755
20
232.128
0
VERTEX
8
L1D0
10
-840.186
20
229.515
0
VERTEX
8
L1D0
10
-841.546
20
226.864
0
VERTEX
8
L1D0
10
-842.833
20
224.178
0
VERTEX
8
L1D0
10
-844.047
20
221.457
0
VERTEX
8
L1D0
10
-845.187
20
218.705
0
VERTEX
8
L1D0
10
-846.253
20
215.923
0
VERTEX
8
L1D0
10
-847.242
20
213.113
0
VERTEX
8
L1D0
10
-848.155
20
210.278
0
VERTEX
8
L1D0
10
-848.99
20
207.418
0
VERTEX
8
L1D0
10
-849.749
20
204.537
0
VERTEX
8
L1D0
10
-850.428
20
201.637
0
VERTEX
8
L1D0
10
-850.432
20
201.621
0
SEQEND
0
POLYLINE
8
L1D0
70
1
40
0
41
0
66
1
0
VERTEX
8
L1D0
10
-827.768
20
201.621
0
VERTEX
8
L1D0
10
-827.015
20
204.17
0
VERTEX
8
L1D0
10
-826.186
20
206.696
0
VERTEX
8
L1D0
10
-825.281
20
209.195
0
VERTEX
8
L1D0
10
-824.301
20
211.666
0
VERTEX
8
L1D0
10
-823.247
20
214.106
0
VERTEX
8
L1D0
10
-822.12
20
216.514
0
VERTEX
8
L1D0
10
-820.92
20
218.886
0
VERTEX
8
L1D0
10
-819.649
20
221.22
0
VERTEX
8
L1D0
10
-818.309
20
223.516
0
VERTEX
8
L1D0
10
-816.899
20
225.77
0
VERTEX
8
L1D0
10
-815.423
20
227.98
0
VERTEX
8
L1D0
10
-813.88
20
230.144
0
VERTEX
8
L1D0
10
-812.374
20
232.128
0
VERTEX
8
L1D0
10
-671.626
20
232.128
0
VERTEX
8
L1D0
10
-670.12
20
230.144
0
VERTEX
8
L1D0
10
-668.577
20
227.98
0
VERTEX
8
L1D0
10
-667.101
20
225.77
0
VERTEX
8
L1D0
10
-665.691
20
223.516
0
VERTEX
8
L1D0
10
-664.351
20
221.22
0
VERTEX
8
L1D0
10
-663.08
20
218.886
0
VERTEX
8
L1D0
10
-661.88
20
216.514
0
VERTEX
8
L1D0
10
-660.753
20
214.106
0
VERTEX
8
L1D0
10
-659.699
20
211.666
0
VERTEX
8
L1D0
10
-658.719
20
209.195
0
VERTEX
8
L1D0
10
-657.814
20
206.696
0
VERTEX
8
L1D0
10
-656.985
20
204.17
0
VERTEX
8
L1D0
10
-656.232
20
201.621
0
SEQEND
0
POLYLINE
8
L1D0
70
1
40
0
41
0
66
1
0
VERTEX
8
L1D0
10
-633.568
20
201.621
0
VERTEX
8
L1D0
10
-633.572
20
201.637
0
VERTEX
8
L1D0
10
-634.251
20
204.537
0
VERTEX
8
L1D0
10
-635.01
20
207.418
0
VERTEX
8
L1D0
10
-635.845
20
210.278
0
VERTEX
8
L1D0
10
-636.758
20
213.113
0
VERTEX
8
L1D0
10
-637.747
20
215.923
0
VERTEX
8
L1D0
10
-638.813
20
218.705
0
VERTEX
8
L1D0
10
-639.953
20
221.457
0
VERTEX
8
L1D0
10
-641.167
20
224.178
0
VERTEX
8
L1D0
10
-642.454
20
226.864
0
VERTEX
8
L1D0
10
-643.814
20
229.515
0
VERTEX
8
L1D0
10
-645.245
20
232.128
0
VERTEX
8
L1D0
10
-438.755
20
232.128
0
VERTEX
8
L1D0
10
-440.186
20
229.515
0
VERTEX
8
L1D0
10
-441.546
20
226.864
0
VERTEX
8
L1D0
10
-442.833
20
224.178
0
VERTEX
8
L1D0
10
-444.047
20
221.457
0
VERTEX
8
L1D0
10
-445.187
20
218.705
0
VERTEX
8
L1D0
10
-446.253
20
215.923
0
VERTEX
8
L1D0
10
-447.242
20
213.113
0
VERTEX
8
L1D0
10
-448.155
20
210.278
0
VERTEX
8
L1D0
10
-448.316
20
209.726
0
VERTEX
8
L1D0
10
-448.99
20
207.418
0
VERTEX
8
L1D0
10
-449.749
20
204.537
0
VERTEX
8
L1D0
10
-450.428
20
201.637
0
VERTEX
8
L1D0
10
-450.432
20
201.621
0
SEQEND
0
POLYLINE
8
L1D0
70
1
40
0
41
0
66
1
0
VERTEX
8
L1D0
10
-427.768
20
201.621
0
VERTEX
8
L1D0
10
-427.015
20
204.17
0
VERTEX
8
L1D0
10
-426.186
20
206.696
0
VERTEX
8
L1D0
10
-425.281
20
209.195
0
VERTEX
8
L1D0
10
-424.301
20
211.666
0
VERTEX
8
L1D0
10
-423.247
20
214.106
0
VERTEX
8
L1D0
10
-422.12
20
216.514
0
VERTEX
8
L1D0
10
-420.92
20
218.886
0
VERTEX
8
L1D0
10
-419.649
20
221.22
0
VERTEX
8
L1D0
10
-418.309
20
223.516
0
VERTEX
8
L1D0
10
-416.899
20
225.77
0
VERTEX
8
L1D0
10
-415.423
20
227.98
0
VERTEX
8
L1D0
10
-413.88
20
230.144
0
VERTEX
8
L1D0
10
-412.374
20
232.128
0
VERTEX
8
L1D0
10
-271.626
20
232.128
0
VERTEX
8
L1D0
10
-270.12
20
230.144
0
VERTEX
8
L1D0
10
-268.577
20
227.98
0
VERTEX
8
L1D0
10
-267.101
20
225.77
0
VERTEX
8
L1D0
10
-265.691
20
223.516
0
VERTEX
8
L1D0
10
-264.351
20
221.22
0
VERTEX
8
L1D0
10
-263.08
20
218.886
0
VERTEX
8
L1D0
10
-261.88
20
216.514
0
VERTEX
8
L1D0
10
-260.753
20
214.106
0
VERTEX
8
L1D0
10
-259.699
20
211.666
0
VERTEX
8
L1D0
10
-258.719
20
209.195
0
VERTEX
8
L1D0
10
-257.814
20
206.696
0
VERTEX
8
L1D0
10
-256.985
20
204.17
0
VERTEX
8
L1D0
10
-256.232
20
201.621
0
SEQEND
0
POLYLINE
8
L1D0
70
1
40
0
41
0
66
1
0
VERTEX
8
L1D0
10
-233.568
20
201.621
0
VERTEX
8
L1D0
10
-233.572
20
201.637
0
VERTEX
8
L1D0
10
-234.251
20
204.537
0
VERTEX
8
L1D0
10
-235.01
20
207.418
0
VERTEX
8
L1D0
10
-235.845
20
210.278
0
VERTEX
8
L1D0
10
-236.758
20
213.113
0
VERTEX
8
L1D0
10
-237.747
20
215.923
0
VERTEX
8
L1D0
10
-238.813
20
218.705
0
VERTEX
8
L1D0
10
-239.953
20
221.457
0
VERTEX
8
L1D0
10
-241.167
20
224.178
0
VERTEX
8
L1D0
10
-242.454
20
226.864
0
VERTEX
8
L1D0
10
-243.814
20
229.515
0
VERTEX
8
L1D0
10
-245.245
20
232.128
0
VERTEX
8
L1D0
10
-38.755
20
232.128
0
VERTEX
8
L1D0
10
-40.186
20
229.515
0
VERTEX
8
L1D0
10
-41.546
20
226.864
0
VERTEX
8
L1D0
10
-42.833
20
224.178
0
VERTEX
8
L1D0
10
-44.047
20
221.457
0
VERTEX
8
L1D0
10
-45.187
20
218.705
0
VERTEX
8
L1D0
10
-46.253
20
215.923
0
VERTEX
8
L1D0
10
-47.242
20
213.113
0
VERTEX
8
L1D0
10
-48.155
20
210.278
0
VERTEX
8
L1D0
10
-48.99
20
207.418
0
VERTEX
8
L1D0
10
-49.749
20
204.537
0
VERTEX
8
L1D0
10
-50.428
20
201.637
0
VERTEX
8
L1D0
10
-50.432
20
201.621
0
SEQEND
0
POLYLINE
8
L1D0
70
1
40
0
41
0
66
1
0
VERTEX
8
L1D0
10
-27.768
20
201.621
0
VERTEX
8
L1D0
10
-27.015
20
204.17
0
VERTEX
8
L1D0
10
-26.186
20
206.696
0
VERTEX
8
L1D0
10
-25.281
20
209.195
0
VERTEX
8
L1D0
10
-24.301
20
211.666
0
VERTEX
8
L1D0
10
-23.247
20
214.106
0
VERTEX
8
L1D0
10
-22.12
20
216.514
0
VERTEX
8
L1D0
10
-20.92
20
218.886
0
VERTEX
8
L1D0
10
-19.649
20
221.22
0
VERTEX
8
L1D0
10
-18.309
20
223.516
0
VERTEX
8
L1D0
10
-16.899
20
225.77
0
VERTEX
8
L1D0
10
-15.423
20
227.98
0
VERTEX
8
L1D0
10
-13.88
20
230.144
0
VERTEX
8
L1D0
10
-12.374
20
232.128
0
VERTEX
8
L1D0
10
128.374
20
232.128
0
VERTEX
8
L1D0
10
129.88
20
230.144
0
VERTEX
8
L1D0
10
131.423
20
227.98
0
VERTEX
8
L1D0
10
132.899
20
225.77
0
VERTEX
8
L1D0
10
134.309
20
223.516
0
VERTEX
8
L1D0
10
135.649
20
221.22
0
VERTEX
8
L1D0
10
136.92
20
218.886
0
VERTEX
8
L1D0
10
138.12
20
216.514
0
VERTEX
8
L1D0
10
139.247
20
214.106
0
VERTEX
8
L1D0
10
140.301
20
211.666
0
VERTEX
8
L1D0
10
141.281
20
209.195
0
VERTEX
8
L1D0
10
142.186
20
206.696
0
VERTEX
8
L1D0
10
143.015
20
204.17
0
VERTEX
8
L1D0
10
143.768
20
201.621
0
SEQEND
0
POLYLINE
8
L1D0
70
1
40
0
41
0
66
1
0
VERTEX
8
L1D0
10
166.432
20
201.621
0
VERTEX
8
L1D0
10
166.428
20
201.637
0
VERTEX
8
L1D0
10
165.749
20
204.537
0
VERTEX
8
L1D0
10
164.99
20
207.418
0
VERTEX
8
L1D0
10
164.155
20
210.278
0
VERTEX
8
L1D0
10
163.242
20
213.113
0
VERTEX
8
L1D0
10
162.253
20
215.923
0
VERTEX
8
L1D0
10
161.187
20
218.705
0
VERTEX
8
L1D0
10
160.047
20
221.457
0
VERTEX
8
L1D0
10
158.833
20
224.178
0
VERTEX
8
L1D0
10
157.546
20
226.864
0
VERTEX
8
L1D0
10
156.186
20
229.515
0
VERTEX
8
L1D0
10
154.755
20
232.128
0
VERTEX
8
L1D0
10
361.245
20
232.128
0
VERTEX
8
L1D0
10
359.814
20
229.515
0
VERTEX
8
L1D0
10
358.454
20
226.864
0
VERTEX
8
L1D0
10
357.167
20
224.178
0
VERTEX
8
L1D0
10
355.953
20
221.457
0
VERTEX
8
L1D0
10
354.813
20
218.705
0
VERTEX
8
L1D0
10
353.747
20
215.923
0
VERTEX
8
L1D0
10
352.758
20
213.113
0
VERTEX
8
L1D0
10
351.845
20
210.278
0
VERTEX
8
L1D0
10
351.01
20
207.418
0
VERTEX
8
L1D0
10
350.251
20
204.537
0
VERTEX
8
L1D0
10
349.572
20
201.637
0
VERTEX
8
L1D0
10
349.568
20
201.621
0
SEQEND
0
POLYLINE
8
L1D0
70
1
40
0
41
0
66
1
0
VERTEX
8
L1D0
10
372.232
20
201.621
0
VERTEX
8
L1D0
10
372.985
20
204.17
0
VERTEX
8
L1D0
10
373.814
20
206.696
0
VERTEX
8
L1D0
10
374.719
20
209.195
0
VERTEX
8
L1D0
10
375.699
20
211.666
0
VERTEX
8
L1D0
10
376.753
20
214.106
0
VERTEX
8
L1D0
10
377.88
20
216.514
0
VERTEX
8
L1D0
10
379.08
20
218.886
0
VERTEX
8
L1D0
10
380.351
20
221.22
0
VERTEX
8
L1D0
10
381.691
20
223.516
0
VERTEX
8
L1D0
10
383.101
20
225.77
0
VERTEX
8
L1D0
10
384.577
20
227.98
0
VERTEX
8
L1D0
10
386.12
20
230.144
0
VERTEX
8
L1D0
10
387.626
20
232.128
0
VERTEX
8
L1D0
10
528.374
20
232.128
0
VERTEX
8
L1D0
10
529.88
20
230.144
0
VERTEX
8
L1D0
10
531.423
20
227.98
0
VERTEX
8
L1D0
10
532.899
20
225.77
0
VERTEX
8
L1D0
10
534.309
20
223.516
0
VERTEX
8
L1D0
10
535.649
20
221.22
0
VERTEX
8
L1D0
10
536.92
20
218.886
0
VERTEX
8
L1D0
10
538.12
20
216.514
0
VERTEX
8
L1D0
10
539.247
20
214.106
0
VERTEX
8
L1D0
10
540.301
20
211.666
0
VERTEX
8
L1D0
10
541.281
20
209.195
0
VERTEX
8
L1D0
10
542.186
20
206.696
0
VERTEX
8
L1D0
10
543.015
20
204.17
0
VERTEX
8
L1D0
10
543.768
20
201.621
0
SEQEND
0
POLYLINE
8
L1D0
70
1
40
0
41
0
66
1
0
VERTEX
8
L1D0
10
566.432
20
201.621
0
VERTEX
8
L1D0
10
566.428
20
201.637
0
VERTEX
8
L1D0
10
565.749
20
204.537
0
VERTEX
8
L1D0
10
564.99
20
207.418
0
VERTEX
8
L1D0
10
564.155
20
210.278
0
VERTEX
8
L1D0
10
563.242
20
213.113
0
VERTEX
8
L1D0
10
562.253
20
215.923
0
VERTEX
8
L1D0
10
561.187
20
218.705
0
VERTEX
8
L1D0
10
560.047
20
221.457
0
VERTEX
8
L1D0
10
558.833
20
224.178
0
VERTEX
8
L1D0
10
557.546
20
226.864
0
VERTEX
8
L1D0
10
556.186
20
229.515
0
VERTEX
8
L1D0
10
554.755
20
232.128
0
VERTEX
8
L1D0
10
2500
20
232.128
0
VERTEX
8
L1D0
10
2500
20
201.621
0
SEQEND
0
POLYLINE
8
L1D0
70
1
40
0
41
0
66
1
0
VERTEX
8
L1D0
10
-1489
20
232.128
0
VERTEX
8
L1D0
10
-1489
20
255.772
0
VERTEX
8
L1D0
10
-820.782
20
255.772
0
VERTEX
8
L1D0
10
-822.86
20
253.637
0
VERTEX
8
L1D0
10
-824.879
20
251.447
0
VERTEX
8
L1D0
10
-826.838
20
249.203
0
VERTEX
8
L1D0
10
-828.735
20
246.906
0
VERTEX
8
L1D0
10
-830.57
20
244.559
0
VERTEX
8
L1D0
10
-832.341
20
242.163
0
VERTEX
8
L1D0
10
-834.046
20
239.721
0
VERTEX
8
L1D0
10
-835.684
20
237.233
0
VERTEX
8
L1D0
10
-837.254
20
234.701
0
VERTEX
8
L1D0
10
-838.755
20
232.128
0
SEQEND
0
POLYLINE
8
L1D0
70
1
40
0
41
0
66
1
0
VERTEX
8
L1D0
10
-812.374
20
232.128
0
VERTEX
8
L1D0
10
-812.272
20
232.261
0
VERTEX
8
L1D0
10
-810.601
20
234.329
0
VERTEX
8
L1D0
10
-808.869
20
236.345
0
VERTEX
8
L1D0
10
-807.076
20
238.308
0
VERTEX
8
L1D0
10
-805.225
20
240.215
0
VERTEX
8
L1D0
10
-803.318
20
242.066
0
VERTEX
8
L1D0
10
-801.355
20
243.859
0
VERTEX
8
L1D0
10
-799.339
20
245.591
0
VERTEX
8
L1D0
10
-797.271
20
247.262
0
VERTEX
8
L1D0
10
-797.138
20
247.364
0
VERTEX
8
L1D0
10
-795.154
20
248.87
0
VERTEX
8
L1D0
10
-792.99
20
250.413
0
VERTEX
8
L1D0
10
-790.78
20
251.889
0
VERTEX
8
L1D0
10
-788.526
20
253.299
0
VERTEX
8
L1D0
10
-786.23
20
254.639
0
VERTEX
8
L1D0
10
-784.15
20
255.772
0
VERTEX
8
L1D0
10
-699.85
20
255.772
0
VERTEX
8
L1D0
10
-697.77
20
254.639
0
VERTEX
8
L1D0
10
-695.474
20
253.299
0
VERTEX
8
L1D0
10
-693.22
20
251.889
0
VERTEX
8
L1D0
10
-691.01
20
250.413
0
VERTEX
8
L1D0
10
-688.846
20
248.87
0
VERTEX
8
L1D0
10
-686.729
20
247.262
0
VERTEX
8
L1D0
10
-684.661
20
245.591
0
VERTEX
8
L1D0
10
-682.645
20
243.859
0
VERTEX
8
L1D0
10
-680.682
20
242.066
0
VERTEX
8
L1D0
10
-678.775
20
240.215
0
VERTEX
8
L1D0
10
-676.924
20
238.308
0
VERTEX
8
L1D0
10
-675.131
20
236.345
0
VERTEX
8
L1D0
10
-673.399
20
234.329
0
VERTEX
8
L1D0
10
-671.728
20
232.261
0
VERTEX
8
L1D0
10
-671.626
20
232.128
0
SEQEND
0
POLYLINE
8
L1D0
70
1
40
0
41
0
66
1
0
VERTEX
8
L1D0
10
-645.245
20
232.128
0
VERTEX
8
L1D0
10
-646.746
20
234.701
0
VERTEX
8
L1D0
10
-648.316
20
237.233
0
VERTEX
8
L1D0
10
-649.954
20
239.721
0
VERTEX
8
L1D0
10
-651.659
20
242.163
0
VERTEX
8
L1D0
10
-653.43
20
244.559
0
VERTEX
8
L1D0
10
-655.265
20
246.906
0
VERTEX
8
L1D0
10
-657.162
20
249.203
0
VERTEX
8
L1D0
10
-659.121
20
251.447
0
VERTEX
8
L1D0
10
-661.14
20
253.637
0
VERTEX
8
L1D0
10
-663.218
20
255.772
0
VERTEX
8
L1D0
10
-420.782
20
255.772
0
VERTEX
8
L1D0
10
-422.86
20
253.637
0
VERTEX
8
L1D0
10
-424.879
20
251.447
0
VERTEX
8
L1D0
10
-426.838
20
249.203
0
VERTEX
8
L1D0
10
-428.735
20
246.906
0
VERTEX
8
L1D0
10
-430.57
20
244.559
0
VERTEX
8
L1D0
10
-432.341
20
242.163
0
VERTEX
8
L1D0
10
-434.046
20
239.721
0
VERTEX
8
L1D0
10
-435.684
20
237.233
0
VERTEX
8
L1D0
10
-437.254
20
234.701
0
VERTEX
8
L1D0
10
-438.755
20
232.128
0
SEQEND
0
POLYLINE
8
L1D0
70
1
40
0
41
0
66
1
0
VERTEX
8
L1D0
10
-412.374
20
232.128
0
VERTEX
8
L1D0
10
-412.272
20
232.261
0
VERTEX
8
L1D0
10
-410.601
20
234.329
0
VERTEX
8
L1D0
10
-408.869
20
236.345
0
VERTEX
8
L1D0
10
-407.076
20
238.308
0
VERTEX
8
L1D0
10
-405.225
20
240.215
0
VERTEX
8
L1D0
10
-403.318
20
242.066
0
VERTEX
8
L1D0
10
-401.355
20
243.859
0
VERTEX
8
L1D0
10
-399.339
20
245.591
0
VERTEX
8
L1D0
10
-397.271
20
247.262
0
VERTEX
8
L1D0
10
-395.154
20
248.87
0
VERTEX
8
L1D0
10
-392.99
20
250.413
0
VERTEX
8
L1D0
10
-390.78
20
251.889
0
VERTEX
8
L1D0
10
-388.526
20
253.299
0
VERTEX
8
L1D0
10
-386.23
20
254.639
0
VERTEX
8
L1D0
10
-384.15
20
255.772
0
VERTEX
8
L1D0
10
-299.85
20
255.772
0
VERTEX
8
L1D0
10
-297.77
20
254.639
0
VERTEX
8
L1D0
10
-295.474
20
253.299
0
VERTEX
8
L1D0
10
-293.22
20
251.889
0
VERTEX
8
L1D0
10
-291.01
20
250.413
0
VERTEX
8
L1D0
10
-288.846
20
248.87
0
VERTEX
8
L1D0
10
-286.729
20
247.262
0
VERTEX
8
L1D0
10
-284.661
20
245.591
0
VERTEX
8
L1D0
10
-282.645
20
243.859
0
VERTEX
8
L1D0
10
-280.682
20
242.066
0
VERTEX
8
L1D0
10
-278.775
20
240.215
0
VERTEX
8
L1D0
10
-276.924
20
238.308
0
VERTEX
8
L1D0
10
-275.131
20
236.345
0
VERTEX
8
L1D0
10
-273.399
20
234.329
0
VERTEX
8
L1D0
10
-271.728
20
232.261
0
VERTEX
8
L1D0
10
-271.626
20
232.128
0
SEQEND
0
POLYLINE
8
L1D0
70
1
40
0
41
0
66
1
0
VERTEX
8
L1D0
10
-245.245
20
232.128
0
VERTEX
8
L1D0
10
-246.746
20
234.701
0
VERTEX
8
L1D0
10
-248.316
20
237.233
0
VERTEX
8
L1D0
10
-249.954
20
239.721
0
VERTEX
8
L1D0
10
-251.659
20
242.163
0
VERTEX
8
L1D0
10
-253.43
20
244.559
0
VERTEX
8
L1D0
10
-255.265
20
246.906
0
VERTEX
8
L1D0
10
-257.162
20
249.203
0
VERTEX
8
L1D0
10
-259.121
20
251.447
0
VERTEX
8
L1D0
10
-261.14
20
253.637
0
VERTEX
8
L1D0
10
-263.218
20
255.772
0
VERTEX
8
L1D0
10
-20.782
20
255.772
0
VERTEX
8
L1D0
10
-22.86
20
253.637
0
VERTEX
8
L1D0
10
-24.879
20
251.447
0
VERTEX
8
L1D0
10
-26.838
20
249.203
0
VERTEX
8
L1D0
10
-28.735
20
246.906
0
VERTEX
8
L1D0
10
-30.57
20
244.559
0
VERTEX
8
L1D0
10
-32.341
20
242.163
0
VERTEX
8
L1D0
10
-34.046
20
239.721
0
VERTEX
8
L1D0
10
-35.684
20
237.233
0
VERTEX
8
L1D0
10
-37.254
20
234.701
0
VERTEX
8
L1D0
10
-38.755
20
232.128
0
SEQEND
0
POLYLINE
8
L1D0
70
1
40
0
41
0
66
1
0
VERTEX
8
L1D0
10
-12.374
20
232.128
0
VERTEX
8
L1D0
10
-12.272
20
232.261
0
VERTEX
8
L1D0
10
-10.601
20
234.329
0
VERTEX
8
L1D0
10
-8.869
20
236.345
0
VERTEX
8
L1D0
10
-7.076
20
238.308
0
VERTEX
8
L1D0
10
-5.225
20
240.215
0
VERTEX
8
L1D0
10
-3.318
20
242.066
0
VERTEX
8
L1D0
10
-1.355
20
243.859
0
VERTEX
8
L1D0
10
0.661
20
245.591
0
VERTEX
8
L1D0
10
2.729
20
247.262
0
VERTEX
8
L1D0
10
4.846
20
248.87
0
VERTEX
8
L1D0
10
7.01
20
250.413
0
VERTEX
8
L1D0
10
9.22
20
251.889
0
VERTEX
8
L1D0
10
11.474
20
253.299
0
VERTEX
8
L1D0
10
13.77
20
254.639
0
VERTEX
8
L1D0
10
15.85
20
255.772
0
VERTEX
8
L1D0
10
100.15
20
255.772
0
VERTEX
8
L1D0
10
102.23
20
254.639
0
VERTEX
8
L1D0
10
104.526
20
253.299
0
VERTEX
8
L1D0
10
106.78
20
251.889
0
VERTEX
8
L1D0
10
108.99
20
250.413
0
VERTEX
8
L1D0
10
111.154
20
248.87
0
VERTEX
8
L1D0
10
113.271
20
247.262
0
VERTEX
8
L1D0
10
115.339
20
245.591
0
VERTEX
8
L1D0
10
117.355
20
243.859
0
VERTEX
8
L1D0
10
119.318
20
242.066
0
VERTEX
8
L1D0
10
121.225
20
240.215
0
VERTEX
8
L1D0
10
123.076
20
238.308
0
VERTEX
8
L1D0
10
124.869
20
236.345
0
VERTEX
8
L1D0
10
126.601
20
234.329
0
VERTEX
8
L1D0
10
128.272
20
232.261
0
VERTEX
8
L1D0
10
128.374
20
232.128
0
SEQEND
0
POLYLINE
8
L1D0
70
1
40
0
41
0
66
1
0
VERTEX
8
L1D0
10
154.755
20
232.128
0
VERTEX
8
L1D0
10
153.254
20
234.701
0
VERTEX
8
L1D0
10
151.684
20
237.233
0
VERTEX
8
L1D0
10
150.046
20
239.721
0
VERTEX
8
L1D0
10
148.341
20
242.163
0
VERTEX
8
L1D0
10
146.57
20
244.559
0
VERTEX
8
L1D0
10
144.735
20
246.906
0
VERTEX
8
L1D0
10
142.838
20
249.203
0
VERTEX
8
L1D0
10
140.879
20
251.447
0
VERTEX
8
L1D0
10
138.86
20
253.637
0
VERTEX
8
L1D0
10
136.782
20
255.772
0
VERTEX
8
L1D0
10
379.218
20
255.772
0
VERTEX
8
L1D0
10
377.14
20
253.637
0
VERTEX
8
L1D0
10
375.121
20
251.447
0
VERTEX
8
L1D0
10
373.162
20
249.203
0
VERTEX
8
L1D0
10
371.265
20
246.906
0
VERTEX
8
L1D0
10
369.43
20
244.559
0
VERTEX
8
L1D0
10
367.659
20
242.163
0
VERTEX
8
L1D0
10
365.954
20
239.721
0
VERTEX
8
L1D0
10
364.99
20
238.257
0
VERTEX
8
L1D0
10
364.316
20
237.233
0
VERTEX
8
L1D0
10
362.746
20
234.701
0
VERTEX
8
L1D0
10
361.245
20
232.128
0
SEQEND
0
POLYLINE
8
L1D0
70
1
40
0
41
0
66
1
0
VERTEX
8
L1D0
10
387.626
20
232.128
0
VERTEX
8
L1D0
10
387.728
20
232.261
0
VERTEX
8
L1D0
10
389.399
20
234.329
0
VERTEX
8
L1D0
10
391.131
20
236.345
0
VERTEX
8
L1D0
10
392.924
20
238.308
0
VERTEX
8
L1D0
10
394.775
20
240.215
0
VERTEX
8
L1D0
10
396.682
20
242.066
0
VERTEX
8
L1D0
10
398.645
20
243.859
0
VERTEX
8
L1D0
10
400.661
20
245.591
0
VERTEX
8
L1D0
10
402.729
20
247.262
0
VERTEX
8
L1D0
10
404.846
20
248.87
0
VERTEX
8
L1D0
10
407.01
20
250.413
0
VERTEX
8
L1D0
10
409.22
20
251.889
0
VERTEX
8
L1D0
10
411.474
20
253.299
0
VERTEX
8
L1D0
10
413.77
20
254.639
0
VERTEX
8
L1D0
10
415.85
20
255.772
0
VERTEX
8
L1D0
10
500.15
20
255.772
0
VERTEX
8
L1D0
10
502.23
20
254.639
0
VERTEX
8
L1D0
10
504.526
20
253.299
0
VERTEX
8
L1D0
10
506.78
20
251.889
0
VERTEX
8
L1D0
10
508.99
20
250.413
0
VERTEX
8
L1D0
10
511.154
20
248.87
0
VERTEX
8
L1D0
10
513.271
20
247.262
0
VERTEX
8
L1D0
10
515.339
20
245.591
0
VERTEX
8
L1D0
10
517.355
20
243.859
0
VERTEX
8
L1D0
10
519.318
20
242.066
0
VERTEX
8
L1D0
10
521.225
20
240.215
0
VERTEX
8
L1D0
10
523.076
20
238.308
0
VERTEX
8
L1D0
10
524.869
20
236.345
0
VERTEX
8
L1D0
10
526.601
20
234.329
0
VERTEX
8
L1D0
10
528.272
20
232.261
0
VERTEX
8
L1D0
10
528.374
20
232.128
0
SEQEND
0
POLYLINE
8
L1D0
70
1
40
0
41
0
66
1
0
VERTEX
8
L1D0
10
554.755
20
232.128
0
VERTEX
8
L1D0
10
553.254
20
234.701
0
VERTEX
8
L1D0
10
551.684
20
237.233
0
VERTEX
8
L1D0
10
550.046
20
239.721
0
VERTEX
8
L1D0
10
548.341
20
242.163
0
VERTEX
8
L1D0
10
546.57
20
244.559
0
VERTEX
8
L1D0
10
544.735
20
246.906
0
VERTEX
8
L1D0
10
542.838
20
249.203
0
VERTEX
8
L1D0
10
540.879
20
251.447
0
VERTEX
8
L1D0
10
538.86
20
253.637
0
VERTEX
8
L1D0
10
536.782
20
255.772
0
VERTEX
8
L1D0
10
2500
20
255.772
0
VERTEX
8
L1D0
10
2500
20
232.128
0
SEQEND
0
POLYLINE
8
L1D0
70
1
40
0
41
0
66
1
0
VERTEX
8
L1D0
10
-1489
20
255.772
0
VERTEX
8
L1D0
10
-1489
20
269.036
0
VERTEX
8
L1D0
10
-804.731
20
269.036
0
VERTEX
8
L1D0
10
-807.173
20
267.331
0
VERTEX
8
L1D0
10
-809.569
20
265.56
0
VERTEX
8
L1D0
10
-811.916
20
263.726
0
VERTEX
8
L1D0
10
-814.212
20
261.828
0
VERTEX
8
L1D0
10
-816.457
20
259.869
0
VERTEX
8
L1D0
10
-818.647
20
257.85
0
VERTEX
8
L1D0
10
-820.782
20
255.772
0
SEQEND
0
POLYLINE
8
L1D0
70
1
40
0
41
0
66
1
0
VERTEX
8
L1D0
10
-663.218
20
255.772
0
VERTEX
8
L1D0
10
-665.353
20
257.85
0
VERTEX
8
L1D0
10
-667.543
20
259.869
0
VERTEX
8
L1D0
10
-669.788
20
261.828
0
VERTEX
8
L1D0
10
-672.084
20
263.726
0
VERTEX
8
L1D0
10
-674.431
20
265.56
0
VERTEX
8
L1D0
10
-676.827
20
267.331
0
VERTEX
8
L1D0
10
-679.269
20
269.036
0
VERTEX
8
L1D0
10
-404.731
20
269.036
0
VERTEX
8
L1D0
10
-407.173
20
267.331
0
VERTEX
8
L1D0
10
-409.569
20
265.56
0
VERTEX
8
L1D0
10
-411.916
20
263.726
0
VERTEX
8
L1D0
10
-414.212
20
261.828
0
VERTEX
8
L1D0
10
-416.457
20
259.869
0
VERTEX
8
L1D0
10
-418.647
20
257.85
0
VERTEX
8
L1D0
10
-420.782
20
255.772
0
SEQEND
0
POLYLINE
8
L1D0
70
1
40
0
41
0
66
1
0
VERTEX
8
L1D0
10
-263.218
20
255.772
0
VERTEX
8
L1D0
10
-265.353
20
257.85
0
VERTEX
8
L1D0
10
-267.101
20
259.461
0
VERTEX
8
L1D0
10
-267.543
20
259.869
0
VERTEX
8
L1D0
10
-269.788
20
261.828
0
VERTEX
8
L1D0
10
-272.084
20
263.726
0
VERTEX
8
L1D0
10
-274.431
20
265.56
0
VERTEX
8
L1D0
10
-276.827
20
267.331
0
VERTEX
8
L1D0
10
-279.269
20
269.036
0
VERTEX
8
L1D0
10
-4.731
20
269.036
0
VERTEX
8
L1D0
10
-7.173
20
267.331
0
VERTEX
8
L1D0
10
-9.569
20
265.56
0
VERTEX
8
L1D0
10
-11.916
20
263.726
0
VERTEX
8
L1D0
10
-14.212
20
261.828
0
VERTEX
8
L1D0
10
-16.457
20
259.869
0
VERTEX
8
L1D0
10
-18.647
20
257.85
0
VERTEX
8
L1D0
10
-20.782
20
255.772
0
SEQEND
0
POLYLINE
8
L1D0
70
1
40
0
41
0
66
1
0
VERTEX
8
L1D0
10
136.782
20
255.772
0
VERTEX
8
L1D0
10
134.647
20
257.85
0
VERTEX
8
L1D0
10
132.457
20
259.869
0
VERTEX
8
L1D0
10
130.212
20
261.828
0
VERTEX
8
L1D0
10
127.916
20
263.726
0
VERTEX
8
L1D0
10
125.569
20
265.56
0
VERTEX
8
L1D0
10
123.173
20
267.331
0
VERTEX
8
L1D0
10
120.731
20
269.036
0
VERTEX
8
L1D0
10
395.269
20
269.036
0
VERTEX
8
L1D0
10
392.827
20
267.331
0
VERTEX
8
L1D0
10
390.431
20
265.56
0
VERTEX
8
L1D0
10
388.084
20
263.726
0
VERTEX
8
L1D0
10
385.788
20
261.828
0
VERTEX
8
L1D0
10
383.543
20
259.869
0
VERTEX
8
L1D0
10
381.353
20
257.85
0
VERTEX
8
L1D0
10
379.218
20
255.772
0
SEQEND
0
POLYLINE
8
L1D0
70
1
40
0
41
0
66
1
0
VERTEX
8
L1D0
10
536.782
20
255.772
0
VERTEX
8
L1D0
10
534.647
20
257.85
0
VERTEX
8
L1D0
10
532.457
20
259.869
0
VERTEX
8
L1D0
10
530.212
20
261.828
0
VERTEX
8
L1D0
10
527.916
20
263.726
0
VERTEX
8
L1D0
10
525.569
20
265.56
0
VERTEX
8
L1D0
10
523.173
20
267.331
0
VERTEX
8
L1D0
10
520.731
20
269.036
0
VERTEX
8
L1D0
10
2500
20
269.036
0
VERTEX
8
L1D0
10
2500
20
255.772
0
SEQEND
0
POLYLINE
8
L1D0
70
1
40
0
41
0
66
1
0
VERTEX
8
L1D0
10
-784.15
20
255.772
0
VERTEX
8
L1D0
10
-783.896
20
255.91
0
VERTEX
8
L1D0
10
-781.524
20
257.11
0
VERTEX
8
L1D0
10
-779.116
20
258.237
0
VERTEX
8
L1D0
10
-776.676
20
259.291
0
VERTEX
8
L1D0
10
-774.205
20
260.271
0
VERTEX
8
L1D0
10
-771.706
20
261.176
0
VERTEX
8
L1D0
10
-769.18
20
262.005
0
VERTEX
8
L1D0
10
-766.631
20
262.758
0
VERTEX
8
L1D0
10
-764.06
20
263.433
0
VERTEX
8
L1D0
10
-761.47
20
264.03
0
VERTEX
8
L1D0
10
-758.862
20
264.549
0
VERTEX
8
L1D0
10
-756.241
20
264.988
0
VERTEX
8
L1D0
10
-753.607
20
265.348
0
VERTEX
8
L1D0
10
-750.964
20
265.629
0
VERTEX
8
L1D0
10
-748.313
20
265.83
0
VERTEX
8
L1D0
10
-745.658
20
265.95
0
VERTEX
8
L1D0
10
-743
20
265.99
0
VERTEX
8
L1D0
10
-741
20
265.99
0
VERTEX
8
L1D0
10
-738.342
20
265.95
0
VERTEX
8
L1D0
10
-735.687
20
265.83
0
VERTEX
8
L1D0
10
-733.036
20
265.629
0
VERTEX
8
L1D0
10
-730.393
20
265.348
0
VERTEX
8
L1D0
10
-727.759
20
264.988
0
VERTEX
8
L1D0
10
-725.138
20
264.549
0
VERTEX
8
L1D0
10
-722.53
20
264.03
0
VERTEX
8
L1D0
10
-719.94
20
263.433
0
VERTEX
8
L1D0
10
-717.369
20
262.758
0
VERTEX
8
L1D0
10
-714.82
20
262.005
0
VERTEX
8
L1D0
10
-712.294
20
261.176
0
VERTEX
8
L1D0
10
-709.795
20
260.271
0
VERTEX
8
L1D0
10
-707.324
20
259.291
0
VERTEX
8
L1D0
10
-704.884
20
258.237
0
VERTEX
8
L1D0
10
-702.476
20
257.11
0
VERTEX
8
L1D0
10
-700.104
20
255.91
0
VERTEX
8
L1D0
10
-699.85
20
255.772
0
SEQEND
0
POLYLINE
8
L1D0
70
1
40
0
41
0
66
1
0
VERTEX
8
L1D0
10
-384.15
20
255.772
0
VERTEX
8
L1D0
10
-383.896
20
255.91
0
VERTEX
8
L1D0
10
-381.524
20
257.11
0
VERTEX
8
L1D0
10
-379.116
20
258.237
0
VERTEX
8
L1D0
10
-376.676
20
259.291
0
VERTEX
8
L1D0
10
-374.205
20
260.271
0
VERTEX
8
L1D0
10
-371.706
20
261.176
0
VERTEX
8
L1D0
10
-369.18
20
262.005
0
VERTEX
8
L1D0
10
-366.631
20
262.758
0
VERTEX
8
L1D0
10
-364.06
20
263.433
0
VERTEX
8
L1D0
10
-361.47
20
264.03
0
VERTEX
8
L1D0
10
-358.862
20
264.549
0
VERTEX
8
L1D0
10
-356.241
20
264.988
0
VERTEX
8
L1D0
10
-353.607
20
265.348
0
VERTEX
8
L1D0
10
-350.964
20
265.629
0
VERTEX
8
L1D0
10
-348.313
20
265.83
0
VERTEX
8
L1D0
10
-345.658
20
265.95
0
VERTEX
8
L1D0
10
-343
20
265.99
0
VERTEX
8
L1D0
10
-341
20
265.99
0
VERTEX
8
L1D0
10
-338.342
20
265.95
0
VERTEX
8
L1D0
10
-335.687
20
265.83
0
VERTEX
8
L1D0
10
-333.036
20
265.629
0
VERTEX
8
L1D0
10
-330.393
20
265.348
0
VERTEX
8
L1D0
10
-327.759
20
264.988
0
VERTEX
8
L1D0
10
-325.138
20
264.549
0
VERTEX
8
L1D0
10
-322.53
20
264.03
0
VERTEX
8
L1D0
10
-319.94
20
263.433
0
VERTEX
8
L1D0
10
-317.369
20
262.758
0
VERTEX
8
L1D0
10
-314.82
20
262.005
0
VERTEX
8
L1D0
10
-312.294
20
261.176
0
VERTEX
8
L1D0
10
-309.795
20
260.271
0
VERTEX
8
L1D0
10
-307.324
20
259.291
0
VERTEX
8
L1D0
10
-304.884
20
258.237
0
VERTEX
8
L1D0
10
-302.476
20
257.11
0
VERTEX
8
L1D0
10
-300.104
20
255.91
0
VERTEX
8
L1D0
10
-299.85
20
255.772
0
SEQEND
0
POLYLINE
8
L1D0
70
1
40
0
41
0
66
1
0
VERTEX
8
L1D0
10
15.85
20
255.772
0
VERTEX
8
L1D0
10
16.104
20
255.91
0
VERTEX
8
L1D0
10
18.476
20
257.11
0
VERTEX
8
L1D0
10
20.884
20
258.237
0
VERTEX
8
L1D0
10
23.324
20
259.291
0
VERTEX
8
L1D0
10
25.795
20
260.271
0
VERTEX
8
L1D0
10
28.294
20
261.176
0
VERTEX
8
L1D0
10
30.82
20
262.005
0
VERTEX
8
L1D0
10
33.369
20
262.758
0
VERTEX
8
L1D0
10
35.94
20
263.433
0
VERTEX
8
L1D0
10
38.53
20
264.03
0
VERTEX
8
L1D0
10
41.138
20
264.549
0
VERTEX
8
L1D0
10
43.759
20
264.988
0
VERTEX
8
L1D0
10
46.393
20
265.348
0
VERTEX
8
L1D0
10
49.036
20
265.629
0
VERTEX
8
L1D0
10
51.687
20
265.83
0
VERTEX
8
L1D0
10
54.342
20
265.95
0
VERTEX
8
L1D0
10
57
20
265.99
0
VERTEX
8
L1D0
10
59
20
265.99
0
VERTEX
8
L1D0
10
61.658
20
265.95
0
VERTEX
8
L1D0
10
64.313
20
265.83
0
VERTEX
8
L1D0
10
66.964
20
265.629
0
VERTEX
8
L1D0
10
69.607
20
265.348
0
VERTEX
8
L1D0
10
72.241
20
264.988
0
VERTEX
8
L1D0
10
74.862
20
264.549
0
VERTEX
8
L1D0
10
77.47
20
264.03
0
VERTEX
8
L1D0
10
80.06
20
263.433
0
VERTEX
8
L1D0
10
82.631
20
262.758
0
VERTEX
8
L1D0
10
85.18
20
262.005
0
VERTEX
8
L1D0
10
87.706
20
261.176
0
VERTEX
8
L1D0
10
90.205
20
260.271
0
VERTEX
8
L1D0
10
92.676
20
259.291
0
VERTEX
8
L1D0
10
95.116
20
258.237
0
VERTEX
8
L1D0
10
97.524
20
257.11
0
VERTEX
8
L1D0
10
99.896
20
255.91
0
VERTEX
8
L1D0
10
100.15
20
255.772
0
SEQEND
0
POLYLINE
8
L1D0
70
1
40
0
41
0
66
1
0
VERTEX
8
L1D0
10
415.85
20
255.772
0
VERTEX
8
L1D0
10
416.104
20
255.91
0
VERTEX
8
L1D0
10
418.476
20
257.11
0
VERTEX
8
L1D0
10
420.884
20
258.237
0
VERTEX
8
L1D0
10
423.324
20
259.291
0
VERTEX
8
L1D0
10
425.795
20
260.271
0
VERTEX
8
L1D0
10
428.294
20
261.176
0
VERTEX
8
L1D0
10
430.82
20
262.005
0
VERTEX
8
L1D0
10
433.369
20
262.758
0
VERTEX
8
L1D0
10
435.94
20
263.433
0
VERTEX
8
L1D0
10
438.53
20
264.03
0
VERTEX
8
L1D0
10
441.138
20
264.549
0
VERTEX
8
L1D0
10
443.759
20
264.988
0
VERTEX
8
L1D0
10
446.393
20
265.348
0
VERTEX
8
L1D0
10
449.036
20
265.629
0
VERTEX
8
L1D0
10
451.687
20
265.83
0
VERTEX
8
L1D0
10
454.342
20
265.95
0
VERTEX
8
L1D0
10
457
20
265.99
0
VERTEX
8
L1D0
10
459
20
265.99
0
VERTEX
8
L1D0
10
461.658
20
265.95
0
VERTEX
8
L1D0
10
464.313
20
265.83
0
VERTEX
8
L1D0
10
466.964
20
265.629
0
VERTEX
8
L1D0
10
469.607
20
265.348
0
VERTEX
8
L1D0
10
472.241
20
264.988
0
VERTEX
8
L1D0
10
474.862
20
264.549
0
VERTEX
8
L1D0
10
477.47
20
264.03
0
VERTEX
8
L1D0
10
480.06
20
263.433
0
VERTEX
8
L1D0
10
482.631
20
262.758
0
VERTEX
8
L1D0
10
485.18
20
262.005
0
VERTEX
8
L1D0
10
487.706
20
261.176
0
VERTEX
8
L1D0
10
490.205
20
260.271
0
VERTEX
8
L1D0
10
492.676
20
259.291
0
VERTEX
8
L1D0
10
495.116
20
258.237
0
VERTEX
8
L1D0
10
497.524
20
257.11
0
VERTEX
8
L1D0
10
499.896
20
255.91
0
VERTEX
8
L1D0
10
500.15
20
255.772
0
SEQEND
0
POLYLINE
8
L1D0
70
1
40
0
41
0
66
1
0
VERTEX
8
L1D0
10
-2500
20
269.036
0
VERTEX
8
L1D0
10
-2500
20
2500
0
VERTEX
8
L1D0
10
2500
20
2500
0
VERTEX
8
L1D0
10
2500
20
269.036
0
VERTEX
8
L1D0
10
520.731
20
269.036
0
VERTEX
8
L1D0
10
518.242
20
270.674
0
VERTEX
8
L1D0
10
515.711
20
272.244
0
VERTEX
8
L1D0
10
513.138
20
273.745
0
VERTEX
8
L1D0
10
510.525
20
275.176
0
VERTEX
8
L1D0
10
507.874
20
276.536
0
VERTEX
8
L1D0
10
505.188
20
277.823
0
VERTEX
8
L1D0
10
502.467
20
279.037
0
VERTEX
8
L1D0
10
499.715
20
280.177
0
VERTEX
8
L1D0
10
496.933
20
281.243
0
VERTEX
8
L1D0
10
494.123
20
282.232
0
VERTEX
8
L1D0
10
491.287
20
283.145
0
VERTEX
8
L1D0
10
488.428
20
283.981
0
VERTEX
8
L1D0
10
485.547
20
284.739
0
VERTEX
8
L1D0
10
482.647
20
285.418
0
VERTEX
8
L1D0
10
479.729
20
286.019
0
VERTEX
8
L1D0
10
476.796
20
286.541
0
VERTEX
8
L1D0
10
473.85
20
286.983
0
VERTEX
8
L1D0
10
470.893
20
287.345
0
VERTEX
8
L1D0
10
467.927
20
287.627
0
VERTEX
8
L1D0
10
464.955
20
287.829
0
VERTEX
8
L1D0
10
461.979
20
287.95
0
VERTEX
8
L1D0
10
459
20
287.99
0
VERTEX
8
L1D0
10
457
20
287.99
0
VERTEX
8
L1D0
10
454.021
20
287.95
0
VERTEX
8
L1D0
10
451.045
20
287.829
0
VERTEX
8
L1D0
10
448.073
20
287.627
0
VERTEX
8
L1D0
10
445.107
20
287.345
0
VERTEX
8
L1D0
10
442.15
20
286.983
0
VERTEX
8
L1D0
10
439.204
20
286.541
0
VERTEX
8
L1D0
10
436.271
20
286.019
0
VERTEX
8
L1D0
10
433.353
20
285.418
0
VERTEX
8
L1D0
10
430.453
20
284.739
0
VERTEX
8
L1D0
10
427.572
20
283.981
0
VERTEX
8
L1D0
10
424.713
20
283.145
0
VERTEX
8
L1D0
10
421.877
20
282.232
0
VERTEX
8
L1D0
10
419.067
20
281.243
0
VERTEX
8
L1D0
10
416.285
20
280.177
0
VERTEX
8
L1D0
10
413.533
20
279.037
0
VERTEX
8
L1D0
10
410.812
20
277.823
0
VERTEX
8
L1D0
10
408.126
20
276.536
0
VERTEX
8
L1D0
10
405.475
20
275.176
0
VERTEX
8
L1D0
10
402.862
20
273.745
0
VERTEX
8
L1D0
10
400.289
20
272.244
0
VERTEX
8
L1D0
10
397.758
20
270.674
0
VERTEX
8
L1D0
10
395.269
20
269.036
0
VERTEX
8
L1D0
10
120.731
20
269.036
0
VERTEX
8
L1D0
10
118.242
20
270.674
0
VERTEX
8
L1D0
10
115.711
20
272.244
0
VERTEX
8
L1D0
10
113.138
20
273.745
0
VERTEX
8
L1D0
10
110.525
20
275.176
0
VERTEX
8
L1D0
10
107.874
20
276.536
0
VERTEX
8
L1D0
10
105.188
20
277.823
0
VERTEX
8
L1D0
10
102.467
20
279.037
0
VERTEX
8
L1D0
10
99.715
20
280.177
0
VERTEX
8
L1D0
10
96.933
20
281.243
0
VERTEX
8
L1D0
10
94.123
20
282.232
0
VERTEX
8
L1D0
10
91.287
20
283.145
0
VERTEX
8
L1D0
10
88.428
20
283.981
0
VERTEX
8
L1D0
10
85.547
20
284.739
0
VERTEX
8
L1D0
10
82.647
20
285.418
0
VERTEX
8
L1D0
10
79.729
20
286.019
0
VERTEX
8
L1D0
10
76.796
20
286.541
0
VERTEX
8
L1D0
10
73.85
20
286.983
0
VERTEX
8
L1D0
10
70.893
20
287.345
0
VERTEX
8
L1D0
10
67.927
20
287.627
0
VERTEX
8
L1D0
10
64.955
20
287.829
0
VERTEX
8
L1D0
10
61.979
20
287.95
0
VERTEX
8
L1D0
10
59
20
287.99
0
VERTEX
8
L1D0
10
57
20
287.99
0
VERTEX
8
L1D0
10
54.021
20
287.95
0
VERTEX
8
L1D0
10
51.045
20
287.829
0
VERTEX
8
L1D0
10
48.073
20
287.627
0
VERTEX
8
L1D0
10
45.107
20
287.345
0
VERTEX
8
L1D0
10
42.15
20
286.983
0
VERTEX
8
L1D0
10
39.204
20
286.541
0
VERTEX
8
L1D0
10
36.271
20
286.019
0
VERTEX
8
L1D0
10
33.353
20
285.418
0
VERTEX
8
L1D0
10
30.82
20
284.825
0
VERTEX
8
L1D0
10
30.453
20
284.739
0
VERTEX
8
L1D0
10
27.572
20
283.981
0
VERTEX
8
L1D0
10
24.713
20
283.145
0
VERTEX
8
L1D0
10
21.877
20
282.232
0
VERTEX
8
L1D0
10
19.067
20
281.243
0
VERTEX
8
L1D0
10
16.285
20
280.177
0
VERTEX
8
L1D0
10
13.533
20
279.037
0
VERTEX
8
L1D0
10
10.812
20
277.823
0
VERTEX
8
L1D0
10
8.126
20
276.536
0
VERTEX
8
L1D0
10
5.475
20
275.176
0
VERTEX
8
L1D0
10
2.862
20
273.745
0
VERTEX
8
L1D0
10
0.289
20
272.244
0
VERTEX
8
L1D0
10
-2.242
20
270.674
0
VERTEX
8
L1D0
10
-4.731
20
269.036
0
VERTEX
8
L1D0
10
-279.269
20
269.036
0
VERTEX
8
L1D0
10
-281.758
20
270.674
0
VERTEX
8
L1D0
10
-284.289
20
272.244
0
VERTEX
8
L1D0
10
-286.862
20
273.745
0
VERTEX
8
L1D0
10
-289.475
20
275.176
0
VERTEX
8
L1D0
10
-292.126
20
276.536
0
VERTEX
8
L1D0
10
-294.812
20
277.823
0
VERTEX
8
L1D0
10
-297.533
20
279.037
0
VERTEX
8
L1D0
10
-300.285
20
280.177
0
VERTEX
8
L1D0
10
-303.067
20
281.243
0
VERTEX
8
L1D0
10
-305.877
20
282.232
0
VERTEX
8
L1D0
10
-308.713
20
283.145
0
VERTEX
8
L1D0
10
-311.572
20
283.981
0
VERTEX
8
L1D0
10
-314.453
20
284.739
0
VERTEX
8
L1D0
10
-317.353
20
285.418
0
VERTEX
8
L1D0
10
-320.271
20
286.019
0
VERTEX
8
L1D0
10
-323.204
20
286.541
0
VERTEX
8
L1D0
10
-326.15
20
286.983
0
VERTEX
8
L1D0
10
-329.107
20
287.345
0
VERTEX
8
L1D0
10
-332.073
20
287.627
0
VERTEX
8
L1D0
10
-335.045
20
287.829
0
VERTEX
8
L1D0
10
-338.021
20
287.95
0
VERTEX
8
L1D0
10
-341
20
287.99
0
VERTEX
8
L1D0
10
-343
20
287.99
0
VERTEX
8
L1D0
10
-345.979
20
287.95
0
VERTEX
8
L1D0
10
-348.955
20
287.829
0
VERTEX
8
L1D0
10
-351.927
20
287.627
0
VERTEX
8
L1D0
10
-354.893
20
287.345
0
VERTEX
8
L1D0
10
-357.85
20
286.983
0
VERTEX
8
L1D0
10
-360.796
20
286.541
0
VERTEX
8
L1D0
10
-363.729
20
286.019
0
VERTEX
8
L1D0
10
-366.647
20
285.418
0
VERTEX
8
L1D0
10
-369.547
20
284.739
0
VERTEX
8
L1D0
10
-372.428
20
283.981
0
VERTEX
8
L1D0
10
-375.287
20
283.145
0
VERTEX
8
L1D0
10
-378.123
20
282.232
0
VERTEX
8
L1D0
10
-380.933
20
281.243
0
VERTEX
8
L1D0
10
-383.715
20
280.177
0
VERTEX
8
L1D0
10
-386.467
20
279.037
0
VERTEX
8
L1D0
10
-389.188
20
277.823
0
VERTEX
8
L1D0
10
-391.874
20
276.536
0
VERTEX
8
L1D0
10
-394.525
20
275.176
0
VERTEX
8
L1D0
10
-397.138
20
273.745
0
VERTEX
8
L1D0
10
-399.711
20
272.244
0
VERTEX
8
L1D0
10
-402.242
20
270.674
0
VERTEX
8
L1D0
10
-404.731
20
269.036
0
VERTEX
8
L1D0
10
-679.269
20
269.036
0
VERTEX
8
L1D0
10
-681.758
20
270.674
0
VERTEX
8
L1D0
10
-684.289
20
272.244
0
VERTEX
8
L1D0
10
-686.862
20
273.745
0
VERTEX
8
L1D0
10
-689.475
20
275.176
0
VERTEX
8
L1D0
10
-692.126
20
276.536
0
VERTEX
8
L1D0
10
-694.812
20
277.823
0
VERTEX
8
L1D0
10
-697.533
20
279.037
0
VERTEX
8
L1D0
10
-700.285
20
280.177
0
VERTEX
8
L1D0
10
-703.067
20
281.243
0
VERTEX
8
L1D0
10
-705.877
20
282.232
0
VERTEX
8
L1D0
10
-708.713
20
283.145
0
VERTEX
8
L1D0
10
-711.572
20
283.981
0
VERTEX
8
L1D0
10
-714.453
20
284.739
0
VERTEX
8
L1D0
10
-717.353
20
285.418
0
VERTEX
8
L1D0
10
-720.271
20
286.019
0
VERTEX
8
L1D0
10
-723.204
20
286.541
0
VERTEX
8
L1D0
10
-726.15
20
286.983
0
VERTEX
8
L1D0
10
-729.107
20
287.345
0
VERTEX
8
L1D0
10
-732.073
20
287.627
0
VERTEX
8
L1D0
10
-735.045
20
287.829
0
VERTEX
8
L1D0
10
-738.021
20
287.95
0
VERTEX
8
L1D0
10
-741
20
287.99
0
VERTEX
8
L1D0
10
-743
20
287.99
0
VERTEX
8
L1D0
10
-745.979
20
287.95
0
VERTEX
8
L1D0
10
-748.955
20
287.829
0
VERTEX
8
L1D0
10
-751.927
20
287.627
0
VERTEX
8
L1D0
10
-754.893
20
287.345
0
VERTEX
8
L1D0
10
-757.85
20
286.983
0
VERTEX
8
L1D0
10
-760.796
20
286.541
0
VERTEX
8
L1D0
10
-763.729
20
286.019
0
VERTEX
8
L1D0
10
-766.647
20
285.418
0
VERTEX
8
L1D0
10
-769.547
20
284.739
0
VERTEX
8
L1D0
10
-772.428
20
283.981
0
VERTEX
8
L1D0
10
-775.287
20
283.145
0
VERTEX
8
L1D0
10
-778.123
20
282.232
0
VERTEX
8
L1D0
10
-780.933
20
281.243
0
VERTEX
8
L1D0
10
-783.715
20
280.177
0
VERTEX
8
L1D0
10
-786.467
20
279.037
0
VERTEX
8
L1D0
10
-789.188
20
277.823
0
VERTEX
8
L1D0
10
-791.874
20
276.536
0
VERTEX
8
L1D0
10
-794.525
20
275.176
0
VERTEX
8
L1D0
10
-797.138
20
273.745
0
VERTEX
8
L1D0
10
-799.711
20
272.244
0
VERTEX
8
L1D0
10
-802.242
20
270.674
0
VERTEX
8
L1D0
10
-804.731
20
269.036
0
VERTEX
8
L1D0
10
-1489
20
269.036
0
VERTEX
8
L1D0
10
-1489
20
1000
0
VERTEX
8
L1D0
10
-1206
20
1122
0
VERTEX
8
L1D0
10
-1206
20
1456
0
VERTEX
8
L1D0
10
-1794
20
1456
0
VERTEX
8
L1D0
10
-1794
20
1122
0
VERTEX
8
L1D0
10
-1511
20
1000
0
VERTEX
8
L1D0
10
-1511
20
269.036
0
SEQEND
0
POLYLINE
8
L1D0
70
1
40
0
41
0
66
1
0
VERTEX
8
L1D0
10
-2500
20
-269.036
0
VERTEX
8
L1D0
10
-2500
20
-255.772
0
VERTEX
8
L1D0
10
-1511
20
-255.772
0
VERTEX
8
L1D0
10
-1511
20
-269.036
0
SEQEND
0
POLYLINE
8
L1D0
70
1
40
0
41
0
66
1
0
VERTEX
8
L1D0
10
-2500
20
-255.772
0
VERTEX
8
L1D0
10
-2500
20
-232.128
0
VERTEX
8
L1D0
10
-1511
20
-232.128
0
VERTEX
8
L1D0
10
-1511
20
-255.772
0
SEQEND
0
POLYLINE
8
L1D0
70
1
40
0
41
0
66
1
0
VERTEX
8
L1D0
10
-2500
20
-232.128
0
VERTEX
8
L1D0
10
-2500
20
-201.621
0
VERTEX
8
L1D0
10
-1511
20
-201.621
0
VERTEX
8
L1D0
10
-1511
20
-232.128
0
SEQEND
0
POLYLINE
8
L1D0
70
1
40
0
41
0
66
1
0
VERTEX
8
L1D0
10
-2500
20
-201.621
0
VERTEX
8
L1D0
10
-2500
20
-42.289
0
VERTEX
8
L1D0
10
-1511
20
-42.289
0
VERTEX
8
L1D0
10
-1511
20
-201.621
0
SEQEND
0
POLYLINE
8
L1D0
70
1
40
0
41
0
66
1
0
VERTEX
8
L1D0
10
-2500
20
-42.289
0
VERTEX
8
L1D0
10
-2500
20
36.775
0
VERTEX
8
L1D0
10
-1511
20
36.775
0
VERTEX
8
L1D0
10
-1511
20
-42.289
0
SEQEND
0
POLYLINE
8
L1D0
70
1
40
0
41
0
66
1
0
VERTEX
8
L1D0
10
-631
20
-42.289
0
VERTEX
8
L1D0
10
-631
20
36.775
0
VERTEX
8
L1D0
10
-453
20
36.775
0
VERTEX
8
L1D0
10
-453
20
-42.289
0
SEQEND
0
POLYLINE
8
L1D0
70
1
40
0
41
0
66
1
0
VERTEX
8
L1D0
10
-431
20
-42.289
0
VERTEX
8
L1D0
10
-431
20
36.775
0
VERTEX
8
L1D0
10
-253
20
36.775
0
VERTEX
8
L1D0
10
-253
20
-42.289
0
SEQEND
0
POLYLINE
8
L1D0
70
1
40
0
41
0
66
1
0
VERTEX
8
L1D0
10
-231
20
-42.289
0
VERTEX
8
L1D0
10
-231
20
36.775
0
VERTEX
8
L1D0
10
-53
20
36.775
0
VERTEX
8
L1D0
10
-53
20
-42.289
0
SEQEND
0
POLYLINE
8
L1D0
70
1
40
0
41
0
66
1
0
VERTEX
8
L1D0
10
-31
20
-42.289
0
VERTEX
8
L1D0
10
-31
20
36.775
0
VERTEX
8
L1D0
10
147
20
36.775
0
VERTEX
8
L1D0
10
147
20
-42.289
0
SEQEND
0
POLYLINE
8
L1D0
70
1
40
0
41
0
66
1
0
VERTEX
8
L1D0
10
169
20
-42.289
0
VERTEX
8
L1D0
10
169
20
36.775
0
VERTEX
8
L1D0
10
347
20
36.775
0
VERTEX
8
L1D0
10
347
20
-42.289
0
SEQEND
0
POLYLINE
8
L1D0
70
1
40
0
41
0
66
1
0
VERTEX
8
L1D0
10
369
20
-42.289
0
VERTEX
8
L1D0
10
369
20
36.775
0
VERTEX
8
L1D0
10
547
20
36.775
0
VERTEX
8
L1D0
10
547
20
-42.289
0
SEQEND
0
POLYLINE
8
L1D0
70
1
40
0
41
0
66
1
0
VERTEX
8
L1D0
10
-2500
20
36.775
0
VERTEX
8
L1D0
10
-2500
20
201.621
0
VERTEX
8
L1D0
10
-1511
20
201.621
0
VERTEX
8
L1D0
10
-1511
20
36.775
0
SEQEND
0
POLYLINE
8
L1D0
70
1
40
0
41
0
66
1
0
VERTEX
8
L1D0
10
-2500
20
201.621
0
VERTEX
8
L1D0
10
-2500
20
232.128
0
VERTEX
8
L1D0
10
-1511
20
232.128
0
VERTEX
8
L1D0
10
-1511
20
201.621
0
SEQEND
0
POLYLINE
8
L1D0
70
1
40
0
41
0
66
1
0
VERTEX
8
L1D0
10
-2500
20
232.128
0
VERTEX
8
L1D0
10
-2500
20
255.772
0
VERTEX
8
L1D0
10
-1511
20
255.772
0
VERTEX
8
L1D0
10
-1511
20
232.128
0
SEQEND
0
POLYLINE
8
L1D0
70
1
40
0
41
0
66
1
0
VERTEX
8
L1D0
10
-2500
20
255.772
0
VERTEX
8
L1D0
10
-2500
20
269.036
0
VERTEX
8
L1D0
10
-1511
20
269.036
0
VERTEX
8
L1D0
10
-1511
20
255.772
0
SEQEND
0
ENDBLK
0
BLOCK
2
TOP_main_1_NoCheese_99
70
0
10
0
20
0
0
POLYLINE
8
L1D99
70
1
40
0
41
0
66
1
0
VERTEX
8
L1D99
10
-1844
20
-1506
0
VERTEX
8
L1D99
10
-1844
20
-1089.107
0
VERTEX
8
L1D99
10
-1561
20
-967.107
0
VERTEX
8
L1D99
10
-1561
20
-967.107
0
VERTEX
8
L1D99
10
-1561
20
967.107
0
VERTEX
8
L1D99
10
-1844
20
1089.107
0
VERTEX
8
L1D99
10
-1844
20
1506
0
VERTEX
8
L1D99
10
-1156
20
1506
0
VERTEX
8
L1D99
10
-1156
20
1089.107
0
VERTEX
8
L1D99
10
-1439
20
967.107
0
VERTEX
8
L1D99
10
-1439
20
61
0
VERTEX
8
L1D99
10
-903
20
61
0
VERTEX
8
L1D99
10
-903
20
337.99
0
VERTEX
8
L1D99
10
-581
20
337.99
0
VERTEX
8
L1D99
10
-581
20
-215.99
0
VERTEX
8
L1D99
10
-503
20
-215.99
0
VERTEX
8
L1D99
10
-503
20
337.99
0
VERTEX
8
L1D99
10
-181
20
337.99
0
VERTEX
8
L1D99
10
-181
20
-215.99
0
VERTEX
8
L1D99
10
-103
20
-215.99
0
VERTEX
8
L1D99
10
-103
20
337.99
0
VERTEX
8
L1D99
10
219
20
337.99
0
VERTEX
8
L1D99
10
219
20
-215.99
0
VERTEX
8
L1D99
10
297
20
-215.99
0
VERTEX
8
L1D99
10
297
20
337.99
0
VERTEX
8
L1D99
10
619
20
337.99
0
VERTEX
8
L1D99
10
619
20
-215.99
0
VERTEX
8
L1D99
10
697
20
-215.99
0
VERTEX
8
L1D99
10
697
20
61
0
VERTEX
8
L1D99
10
1054
20
61
0
VERTEX
8
L1D99
10
1054
20
58.4
0
VERTEX
8
L1D99
10
1256
20
58.4
0
VERTEX
8
L1D99
10
1256
20
-58.4
0
VERTEX
8
L1D99
10
1054
20
-58.4
0
VERTEX
8
L1D99
10
1054
20
-61
0
VERTEX
8
L1D99
10
819
20
-61
0
VERTEX
8
L1D99
10
819
20
-337.99
0
VERTEX
8
L1D99
10
497
20
-337.99
0
VERTEX
8
L1D99
10
497
20
215.99
0
VERTEX
8
L1D99
10
419
20
215.99
0
VERTEX
8
L1D99
10
419
20
-337.99
0
VERTEX
8
L1D99
10
97
20
-337.99
0
VERTEX
8
L1D99
10
97
20
215.99
0
VERTEX
8
L1D99
10
19
20
215.99
0
VERTEX
8
L1D99
10
19
20
-337.99
0
VERTEX
8
L1D99
10
-303
20
-337.99
0
VERTEX
8
L1D99
10
-303
20
215.99
0
VERTEX
8
L1D99
10
-381
20
215.99
0
VERTEX
8
L1D99
10
-381
20
-337.99
0
VERTEX
8
L1D99
10
-703
20
-337.99
0
VERTEX
8
L1D99
10
-703
20
215.99
0
VERTEX
8
L1D99
10
-781
20
215.99
0
VERTEX
8
L1D99
10
-781
20
-61
0
VERTEX
8
L1D99
10
-1414
20
-61
0
VERTEX
8
L1D99
10
-1414
20
-150
0
VERTEX
8
L1D99
10
-1439
20
-150
0
VERTEX
8
L1D99
10
-1439
20
-967.107
0
VERTEX
8
L1D99
10
-1156
20
-1089.107
0
VERTEX
8
L1D99
10
-1156
20
-1506
0
SEQEND
0
ENDBLK
0
BLOCK
2
TOP_main_1
70
0
10
0
20
0
0
INSERT
8
0
2
ground_main_1
10
0
20
0
41
1
42
1
50
0
0
INSERT
8
0
2
TOP_main_1_one_hole
10
0
20
0
41
1
42
1
50
0
0
INSERT
8
0
2
TOP_main_1_Cheese_diff
10
0
20
0
41
1
42
1
50
0
0
INSERT
8
0
2
TOP_main_1_Cheese_100
10
0
20
0
41
1
42
1
50
0
0
POLYLINE
8
L1D10
70
1
40
0
41
0
66
1
0
VERTEX
8
L1D10
10
-1505
20
975
0
VERTEX
8
L1D10
10
-1505
20
1000
0
VERTEX
8
L1D10
10
-1620
20
1122
0
VERTEX
8
L1D10
10
-1620
20
1282
0
VERTEX
8
L1D10
10
-1380
20
1282
0
VERTEX
8
L1D10
10
-1380
20
1122
0
VERTEX
8
L1D10
10
-1495
20
1000
0
VERTEX
8
L1D10
10
-1495
20
1000
0
VERTEX
8
L1D10
10
-1495
20
975
0
SEQEND
0
POLYLINE
8
L1D10
70
1
40
0
41
0
66
1
0
VERTEX
8
L1D10
10
-1620
20
-1282
0
VERTEX
8
L1D10
10
-1620
20
-1122
0
VERTEX
8
L1D10
10
-1505
20
-1000
0
VERTEX
8
L1D10
10
-1505
20
-1000
0
VERTEX
8
L1D10
10
-1505
20
-975
0
VERTEX
8
L1D10
10
-1495
20
-975
0
VERTEX
8
L1D10
10
-1495
20
-1000
0
VERTEX
8
L1D10
10
-1380
20
-1122
0
VERTEX
8
L1D10
10
-1380
20
-1282
0
SEQEND
0
POLYLINE
8
L1D10
70
1
40
0
41
0
66
1
0
VERTEX
8
L1D10
10
958
20
-5
0
VERTEX
8
L1D10
10
958
20
5
0
VERTEX
8
L1D10
10
958
20
5
0
VERTEX
8
L1D10
10
998
20
5
0
VERTEX
8
L1D10
10
998
20
2.4
0
VERTEX
8
L1D10
10
1200
20
2.4
0
VERTEX
8
L1D10
10
1200
20
2
0
VERTEX
8
L1D10
10
1200
20
0.4
0
VERTEX
8
L1D10
10
1000
20
0.4
0
VERTEX
8
L1D10
10
1000
20
-0.4
0
VERTEX
8
L1D10
10
1200
20
-0.4
0
VERTEX
8
L1D10
10
1200
20
-2
0
VERTEX
8
L1D10
10
1200
20
-2.4
0
VERTEX
8
L1D10
10
998
20
-2.4
0
VERTEX
8
L1D10
10
998
20
-5
0
SEQEND
0
POLYLINE
8
L1D11
70
1
40
0
41
0
66
1
0
VERTEX
8
L1D11
10
-1480
20
-100
0
VERTEX
8
L1D11
10
-1480
20
-25
0
VERTEX
8
L1D11
10
-1479.959
20
-23.43
0
VERTEX
8
L1D11
10
-1479.836
20
-21.864
0
VERTEX
8
L1D11
10
-1479.631
20
-20.307
0
VERTEX
8
L1D11
10
-1479.344
20
-18.763
0
VERTEX
8
L1D11
10
-1478.978
20
-17.235
0
VERTEX
8
L1D11
10
-1478.532
20
-15.729
0
VERTEX
8
L1D11
10
-1478.007
20
-14.249
0
VERTEX
8
L1D11
10
-1477.406
20
-12.798
0
VERTEX
8
L1D11
10
-1476.73
20
-11.38
0
VERTEX
8
L1D11
10
-1475.981
20
-10
0
VERTEX
8
L1D11
10
-1475.16
20
-8.661
0
VERTEX
8
L1D11
10
-1474.271
20
-7.366
0
VERTEX
8
L1D11
10
-1473.314
20
-6.12
0
VERTEX
8
L1D11
10
-1472.294
20
-4.926
0
VERTEX
8
L1D11
10
-1471.213
20
-3.787
0
VERTEX
8
L1D11
10
-1470.074
20
-2.706
0
VERTEX
8
L1D11
10
-1468.88
20
-1.686
0
VERTEX
8
L1D11
10
-1467.634
20
-0.729
0
VERTEX
8
L1D11
10
-1466.339
20
0.16
0
VERTEX
8
L1D11
10
-1465
20
0.981
0
VERTEX
8
L1D11
10
-1463.62
20
1.73
0
VERTEX
8
L1D11
10
-1462.202
20
2.406
0
VERTEX
8
L1D11
10
-1460.751
20
3.007
0
VERTEX
8
L1D11
10
-1459.271
20
3.532
0
VERTEX
8
L1D11
10
-1457.765
20
3.978
0
VERTEX
8
L1D11
10
-1456.237
20
4.344
0
VERTEX
8
L1D11
10
-1454.693
20
4.631
0
VERTEX
8
L1D11
10
-1453.136
20
4.836
0
VERTEX
8
L1D11
10
-1451.57
20
4.959
0
VERTEX
8
L1D11
10
-1450
20
5
0
VERTEX
8
L1D11
10
-1375
20
5
0
VERTEX
8
L1D11
10
-1375
20
-5
0
VERTEX
8
L1D11
10
-1450
20
-5
0
VERTEX
8
L1D11
10
-1451.256
20
-5.039
0
VERTEX
8
L1D11
10
-1452.507
20
-5.158
0
VERTEX
8
L1D11
10
-1453.748
20
-5.354
0
VERTEX
8
L1D11
10
-1454.974
20
-5.628
0
VERTEX
8
L1D11
10
-1456.18
20
-5.979
0
VERTEX
8
L1D11
10
-1457.362
20
-6.404
0
VERTEX
8
L1D11
10
-1458.516
20
-6.903
0
VERTEX
8
L1D11
10
-1459.635
20
-7.474
0
VERTEX
8
L1D11
10
-1460.717
20
-8.113
0
VERTEX
8
L1D11
10
-1461.756
20
-8.82
0
VERTEX
8
L1D11
10
-1462.748
20
-9.59
0
VERTEX
8
L1D11
10
-1463.691
20
-10.421
0
VERTEX
8
L1D11
10
-1464.579
20
-11.309
0
VERTEX
8
L1D11
10
-1465.41
20
-12.252
0
VERTEX
8
L1D11
10
-1466.18
20
-13.244
0
VERTEX
8
L1D11
10
-1466.887
20
-14.283
0
VERTEX
8
L1D11
10
-1467.526
20
-15.365
0
VERTEX
8
L1D11
10
-1468.097
20
-16.484
0
VERTEX
8
L1D11
10
-1468.596
20
-17.638
0
VERTEX
8
L1D11
10
-1469.021
20
-18.82
0
VERTEX
8
L1D11
10
-1469.372
20
-20.026
0
VERTEX
8
L1D11
10
-1469.646
20
-21.252
0
VERTEX
8
L1D11
10
-1469.842
20
-22.493
0
VERTEX
8
L1D11
10
-1469.961
20
-23.744
0
VERTEX
8
L1D11
10
-1470
20
-25
0
VERTEX
8
L1D11
10
-1470
20
-100
0
SEQEND
0
POLYLINE
8
L1D11
70
1
40
0
41
0
66
1
0
VERTEX
8
L1D11
10
-1375
20
-5
0
VERTEX
8
L1D11
10
-1375
20
5
0
VERTEX
8
L1D11
10
-941
20
5
0
VERTEX
8
L1D11
10
-938.266
20
5.04
0
VERTEX
8
L1D11
10
-935.534
20
5.159
0
VERTEX
8
L1D11
10
-932.807
20
5.358
0
VERTEX
8
L1D11
10
-930.087
20
5.636
0
VERTEX
8
L1D11
10
-927.376
20
5.992
0
VERTEX
8
L1D11
10
-924.677
20
6.428
0
VERTEX
8
L1D11
10
-921.992
20
6.942
0
VERTEX
8
L1D11
10
-919.322
20
7.534
0
VERTEX
8
L1D11
10
-916.671
20
8.203
0
VERTEX
8
L1D11
10
-914.04
20
8.949
0
VERTEX
8
L1D11
10
-911.433
20
9.771
0
VERTEX
8
L1D11
10
-908.85
20
10.669
0
VERTEX
8
L1D11
10
-906.295
20
11.641
0
VERTEX
8
L1D11
10
-903.769
20
12.688
0
VERTEX
8
L1D11
10
-901.274
20
13.807
0
VERTEX
8
L1D11
10
-898.813
20
14.999
0
VERTEX
8
L1D11
10
-896.388
20
16.261
0
VERTEX
8
L1D11
10
-894
20
17.594
0
VERTEX
8
L1D11
10
-891.652
20
18.995
0
VERTEX
8
L1D11
10
-889.346
20
20.464
0
VERTEX
8
L1D11
10
-887.084
20
22
0
VERTEX
8
L1D11
10
-884.867
20
23.6
0
VERTEX
8
L1D11
10
-882.698
20
25.265
0
VERTEX
8
L1D11
10
-880.578
20
26.992
0
VERTEX
8
L1D11
10
-878.509
20
28.78
0
VERTEX
8
L1D11
10
-876.493
20
30.627
0
VERTEX
8
L1D11
10
-874.532
20
32.532
0
VERTEX
8
L1D11
10
-872.627
20
34.493
0
VERTEX
8
L1D11
10
-870.78
20
36.509
0
VERTEX
8
L1D11
10
-868.992
20
38.578
0
VERTEX
8
L1D11
10
-867.265
20
40.698
0
VERTEX
8
L1D11
10
-865.6
20
42.867
0
VERTEX
8
L1D11
10
-864
20
45.084
0
VERTEX
8
L1D11
10
-862.464
20
47.346
0
VERTEX
8
L1D11
10
-860.995
20
49.652
0
VERTEX
8
L1D11
10
-859.594
20
52
0
VERTEX
8
L1D11
10
-858.261
20
54.388
0
VERTEX
8
L1D11
10
-856.999
20
56.813
0
VERTEX
8
L1D11
10
-855.807
20
59.274
0
VERTEX
8
L1D11
10
-854.688
20
61.769
0
VERTEX
8
L1D11
10
-853.641
20
64.295
0
VERTEX
8
L1D11
10
-852.669
20
66.85
0
VERTEX
8
L1D11
10
-851.771
20
69.433
0
VERTEX
8
L1D11
10
-850.949
20
72.04
0
VERTEX
8
L1D11
10
-850.203
20
74.671
0
VERTEX
8
L1D11
10
-849.534
20
77.322
0
VERTEX
8
L1D11
10
-848.942
20
79.992
0
VERTEX
8
L1D11
10
-848.428
20
82.677
0
VERTEX
8
L1D11
10
-847.992
20
85.376
0
VERTEX
8
L1D11
10
-847.636
20
88.087
0
VERTEX
8
L1D11
10
-847.358
20
90.807
0
VERTEX
8
L1D11
10
-847.159
20
93.534
0
VERTEX
8
L1D11
10
-847.04
20
96.266
0
VERTEX
8
L1D11
10
-847
20
99
0
VERTEX
8
L1D11
10
-847
20
177.99
0
VERTEX
8
L1D11
10
-846.961
20
180.856
0
VERTEX
8
L1D11
10
-846.842
20
183.719
0
VERTEX
8
L1D11
10
-846.645
20
186.578
0
VERTEX
8
L1D11
10
-846.369
20
189.431
0
VERTEX
8
L1D11
10
-846.014
20
192.275
0
VERTEX
8
L1D11
10
-845.582
20
195.108
0
VERTEX
8
L1D11
10
-845.071
20
197.928
0
VERTEX
8
L1D11
10
-844.483
20
200.733
0
VERTEX
8
L1D11
10
-843.818
20
203.521
0
VERTEX
8
L1D11
10
-843.076
20
206.289
0
VERTEX
8
L1D11
10
-842.258
20
209.036
0
VERTEX
8
L1D11
10
-841.365
20
211.759
0
VERTEX
8
L1D11
10
-840.397
20
214.456
0
VERTEX
8
L1D11
10
-839.355
20
217.126
0
VERTEX
8
L1D11
10
-838.24
20
219.766
0
VERTEX
8
L1D11
10
-837.053
20
222.375
0
VERTEX
8
L1D11
10
-835.794
20
224.95
0
VERTEX
8
L1D11
10
-834.465
20
227.489
0
VERTEX
8
L1D11
10
-833.067
20
229.99
0
VERTEX
8
L1D11
10
-831.6
20
232.452
0
VERTEX
8
L1D11
10
-830.065
20
234.873
0
VERTEX
8
L1D11
10
-828.465
20
237.25
0
VERTEX
8
L1D11
10
-826.8
20
239.583
0
VERTEX
8
L1D11
10
-825.071
20
241.868
0
VERTEX
8
L1D11
10
-823.279
20
244.105
0
VERTEX
8
L1D11
10
-821.427
20
246.292
0
VERTEX
8
L1D11
10
-819.515
20
248.427
0
VERTEX
8
L1D11
10
-817.545
20
250.509
0
VERTEX
8
L1D11
10
-815.519
20
252.535
0
VERTEX
8
L1D11
10
-813.437
20
254.505
0
VERTEX
8
L1D11
10
-811.302
20
256.417
0
VERTEX
8
L1D11
10
-809.115
20
258.269
0
VERTEX
8
L1D11
10
-806.878
20
260.061
0
VERTEX
8
L1D11
10
-804.592
20
261.79
0
VERTEX
8
L1D11
10
-802.26
20
263.455
0
VERTEX
8
L1D11
10
-799.883
20
265.055
0
VERTEX
8
L1D11
10
-797.462
20
266.59
0
VERTEX
8
L1D11
10
-797.462
20
254.596
0
VERTEX
8
L1D11
10
-799.133
20
253.39
0
VERTEX
8
L1D11
10
-801.302
20
251.725
0
VERTEX
8
L1D11
10
-803.422
20
249.998
0
VERTEX
8
L1D11
10
-805.491
20
248.21
0
VERTEX
8
L1D11
10
-807.507
20
246.363
0
VERTEX
8
L1D11
10
-809.468
20
244.458
0
VERTEX
8
L1D11
10
-811.373
20
242.497
0
VERTEX
8
L1D11
10
-813.22
20
240.481
0
VERTEX
8
L1D11
10
-815.008
20
238.412
0
VERTEX
8
L1D11
10
-816.735
20
236.292
0
VERTEX
8
L1D11
10
-818.4
20
234.123
0
VERTEX
8
L1D11
10
-820
20
231.906
0
VERTEX
8
L1D11
10
-821.536
20
229.644
0
VERTEX
8
L1D11
10
-823.005
20
227.338
0
VERTEX
8
L1D11
10
-824.406
20
224.99
0
VERTEX
8
L1D11
10
-825.739
20
222.602
0
VERTEX
8
L1D11
10
-827.001
20
220.177
0
VERTEX
8
L1D11
10
-828.193
20
217.716
0
VERTEX
8
L1D11
10
-829.312
20
215.222
0
VERTEX
8
L1D11
10
-830.359
20
212.695
0
VERTEX
8
L1D11
10
-831.331
20
210.14
0
VERTEX
8
L1D11
10
-832.229
20
207.557
0
VERTEX
8
L1D11
10
-833.051
20
204.95
0
VERTEX
8
L1D11
10
-833.797
20
202.319
0
VERTEX
8
L1D11
10
-834.466
20
199.668
0
VERTEX
8
L1D11
10
-835.058
20
196.999
0
VERTEX
8
L1D11
10
-835.572
20
194.313
0
VERTEX
8
L1D11
10
-836.008
20
191.614
0
VERTEX
8
L1D11
10
-836.364
20
188.903
0
VERTEX
8
L1D11
10
-836.642
20
186.183
0
VERTEX
8
L1D11
10
-836.841
20
183.456
0
VERTEX
8
L1D11
10
-836.96
20
180.724
0
VERTEX
8
L1D11
10
-837
20
177.99
0
VERTEX
8
L1D11
10
-837
20
99
0
VERTEX
8
L1D11
10
-837.039
20
96.134
0
VERTEX
8
L1D11
10
-837.158
20
93.271
0
VERTEX
8
L1D11
10
-837.355
20
90.412
0
VERTEX
8
L1D11
10
-837.631
20
87.559
0
VERTEX
8
L1D11
10
-837.986
20
84.715
0
VERTEX
8
L1D11
10
-838.418
20
81.882
0
VERTEX
8
L1D11
10
-838.929
20
79.062
0
VERTEX
8
L1D11
10
-839.517
20
76.257
0
VERTEX
8
L1D11
10
-840.182
20
73.47
0
VERTEX
8
L1D11
10
-840.924
20
70.701
0
VERTEX
8
L1D11
10
-841.742
20
67.954
0
VERTEX
8
L1D11
10
-842.635
20
65.231
0
VERTEX
8
L1D11
10
-843.603
20
62.534
0
VERTEX
8
L1D11
10
-844.645
20
59.864
0
VERTEX
8
L1D11
10
-845.76
20
57.224
0
VERTEX
8
L1D11
10
-846.947
20
54.615
0
VERTEX
8
L1D11
10
-848.206
20
52.041
0
VERTEX
8
L1D11
10
-849.535
20
49.501
0
VERTEX
8
L1D11
10
-850.933
20
47
0
VERTEX
8
L1D11
10
-852.4
20
44.538
0
VERTEX
8
L1D11
10
-853.935
20
42.117
0
VERTEX
8
L1D11
10
-855.535
20
39.74
0
VERTEX
8
L1D11
10
-857.2
20
37.408
0
VERTEX
8
L1D11
10
-858.929
20
35.122
0
VERTEX
8
L1D11
10
-860.721
20
32.885
0
VERTEX
8
L1D11
10
-862.573
20
30.698
0
VERTEX
8
L1D11
10
-864.485
20
28.563
0
VERTEX
8
L1D11
10
-866.455
20
26.481
0
VERTEX
8
L1D11
10
-868.481
20
24.455
0
VERTEX
8
L1D11
10
-870.563
20
22.485
0
VERTEX
8
L1D11
10
-872.698
20
20.573
0
VERTEX
8
L1D11
10
-874.885
20
18.721
0
VERTEX
8
L1D11
10
-877.122
20
16.929
0
VERTEX
8
L1D11
10
-879.408
20
15.2
0
VERTEX
8
L1D11
10
-881.74
20
13.535
0
VERTEX
8
L1D11
10
-884.117
20
11.935
0
VERTEX
8
L1D11
10
-886.538
20
10.4
0
VERTEX
8
L1D11
10
-889
20
8.933
0
VERTEX
8
L1D11
10
-891.501
20
7.535
0
VERTEX
8
L1D11
10
-894.041
20
6.206
0
VERTEX
8
L1D11
10
-896.615
20
4.947
0
VERTEX
8
L1D11
10
-899.224
20
3.76
0
VERTEX
8
L1D11
10
-901.864
20
2.645
0
VERTEX
8
L1D11
10
-904.534
20
1.603
0
VERTEX
8
L1D11
10
-907.231
20
0.635
0
VERTEX
8
L1D11
10
-909.954
20
-0.258
0
VERTEX
8
L1D11
10
-912.701
20
-1.076
0
VERTEX
8
L1D11
10
-915.47
20
-1.818
0
VERTEX
8
L1D11
10
-918.257
20
-2.483
0
VERTEX
8
L1D11
10
-921.062
20
-3.071
0
VERTEX
8
L1D11
10
-923.882
20
-3.582
0
VERTEX
8
L1D11
10
-926.715
20
-4.014
0
VERTEX
8
L1D11
10
-929.559
20
-4.369
0
VERTEX
8
L1D11
10
-932.412
20
-4.645
0
VERTEX
8
L1D11
10
-935.271
20
-4.842
0
VERTEX
8
L1D11
10
-938.134
20
-4.961
0
VERTEX
8
L1D11
10
-941
20
-5
0
SEQEND
0
POLYLINE
8
L1D11
70
1
40
0
41
0
66
1
0
VERTEX
8
L1D11
10
-633.051
20
-230.016
0
VERTEX
8
L1D11
10
-633.067
20
-229.99
0
VERTEX
8
L1D11
10
-634.465
20
-227.489
0
VERTEX
8
L1D11
10
-635.794
20
-224.95
0
VERTEX
8
L1D11
10
-637.053
20
-222.375
0
VERTEX
8
L1D11
10
-638.24
20
-219.766
0
VERTEX
8
L1D11
10
-639.355
20
-217.126
0
VERTEX
8
L1D11
10
-640.397
20
-214.456
0
VERTEX
8
L1D11
10
-641.365
20
-211.759
0
VERTEX
8
L1D11
10
-642.258
20
-209.036
0
VERTEX
8
L1D11
10
-643.076
20
-206.289
0
VERTEX
8
L1D11
10
-643.818
20
-203.521
0
VERTEX
8
L1D11
10
-644.483
20
-200.733
0
VERTEX
8
L1D11
10
-645.071
20
-197.928
0
VERTEX
8
L1D11
10
-645.582
20
-195.108
0
VERTEX
8
L1D11
10
-646.014
20
-192.275
0
VERTEX
8
L1D11
10
-646.369
20
-189.431
0
VERTEX
8
L1D11
10
-646.645
20
-186.578
0
VERTEX
8
L1D11
10
-646.842
20
-183.719
0
VERTEX
8
L1D11
10
-646.961
20
-180.856
0
VERTEX
8
L1D11
10
-647
20
-177.99
0
VERTEX
8
L1D11
10
-647
20
177.99
0
VERTEX
8
L1D11
10
-647.04
20
180.724
0
VERTEX
8
L1D11
10
-647.159
20
183.456
0
VERTEX
8
L1D11
10
-647.358
20
186.183
0
VERTEX
8
L1D11
10
-647.636
20
188.903
0
VERTEX
8
L1D11
10
-647.992
20
191.614
0
VERTEX
8
L1D11
10
-648.428
20
194.313
0
VERTEX
8
L1D11
10
-648.942
20
196.999
0
VERTEX
8
L1D11
10
-649.534
20
199.668
0
VERTEX
8
L1D11
10
-650.203
20
202.319
0
VERTEX
8
L1D11
10
-650.949
20
204.95
0
VERTEX
8
L1D11
10
-651.771
20
207.557
0
VERTEX
8
L1D11
10
-652.669
20
210.14
0
VERTEX
8
L1D11
10
-653.641
20
212.695
0
VERTEX
8
L1D11
10
-654.688
20
215.222
0
VERTEX
8
L1D11
10
-655.807
20
217.716
0
VERTEX
8
L1D11
10
-656.999
20
220.177
0
VERTEX
8
L1D11
10
-658.261
20
222.602
0
VERTEX
8
L1D11
10
-659.594
20
224.99
0
VERTEX
8
L1D11
10
-660.995
20
227.338
0
VERTEX
8
L1D11
10
-662.464
20
229.644
0
VERTEX
8
L1D11
10
-664
20
231.906
0
VERTEX
8
L1D11
10
-665.6
20
234.123
0
VERTEX
8
L1D11
10
-667.265
20
236.292
0
VERTEX
8
L1D11
10
-668.992
20
238.412
0
VERTEX
8
L1D11
10
-670.78
20
240.481
0
VERTEX
8
L1D11
10
-672.627
20
242.497
0
VERTEX
8
L1D11
10
-674.532
20
244.458
0
VERTEX
8
L1D11
10
-676.493
20
246.363
0
VERTEX
8
L1D11
10
-678.509
20
248.21
0
VERTEX
8
L1D11
10
-680.578
20
249.998
0
VERTEX
8
L1D11
10
-682.698
20
251.725
0
VERTEX
8
L1D11
10
-684.867
20
253.39
0
VERTEX
8
L1D11
10
-687.084
20
254.99
0
VERTEX
8
L1D11
10
-689.346
20
256.526
0
VERTEX
8
L1D11
10
-691.652
20
257.995
0
VERTEX
8
L1D11
10
-694
20
259.396
0
VERTEX
8
L1D11
10
-696.388
20
260.729
0
VERTEX
8
L1D11
10
-698.813
20
261.992
0
VERTEX
8
L1D11
10
-701.274
20
263.183
0
VERTEX
8
L1D11
10
-703.769
20
264.302
0
VERTEX
8
L1D11
10
-706.295
20
265.349
0
VERTEX
8
L1D11
10
-708.85
20
266.321
0
VERTEX
8
L1D11
10
-711.433
20
267.219
0
VERTEX
8
L1D11
10
-714.04
20
268.041
0
VERTEX
8
L1D11
10
-716.671
20
268.787
0
VERTEX
8
L1D11
10
-719.322
20
269.456
0
VERTEX
8
L1D11
10
-721.992
20
270.048
0
VERTEX
8
L1D11
10
-724.677
20
270.562
0
VERTEX
8
L1D11
10
-727.376
20
270.998
0
VERTEX
8
L1D11
10
-730.087
20
271.354
0
VERTEX
8
L1D11
10
-732.807
20
271.632
0
VERTEX
8
L1D11
10
-735.534
20
271.831
0
VERTEX
8
L1D11
10
-738.266
20
271.95
0
VERTEX
8
L1D11
10
-741
20
271.99
0
VERTEX
8
L1D11
10
-743
20
271.99
0
VERTEX
8
L1D11
10
-745.734
20
271.95
0
VERTEX
8
L1D11
10
-748.466
20
271.831
0
VERTEX
8
L1D11
10
-751.193
20
271.632
0
VERTEX
8
L1D11
10
-753.913
20
271.354
0
VERTEX
8
L1D11
10
-756.624
20
270.998
0
VERTEX
8
L1D11
10
-759.323
20
270.562
0
VERTEX
8
L1D11
10
-762.008
20
270.048
0
VERTEX
8
L1D11
10
-764.678
20
269.456
0
VERTEX
8
L1D11
10
-767.329
20
268.787
0
VERTEX
8
L1D11
10
-769.96
20
268.041
0
VERTEX
8
L1D11
10
-772.567
20
267.219
0
VERTEX
8
L1D11
10
-775.15
20
266.321
0
VERTEX
8
L1D11
10
-777.705
20
265.349
0
VERTEX
8
L1D11
10
-780.231
20
264.302
0
VERTEX
8
L1D11
10
-782.726
20
263.183
0
VERTEX
8
L1D11
10
-785.187
20
261.992
0
VERTEX
8
L1D11
10
-787.612
20
260.729
0
VERTEX
8
L1D11
10
-790
20
259.396
0
VERTEX
8
L1D11
10
-792.348
20
257.995
0
VERTEX
8
L1D11
10
-794.654
20
256.526
0
VERTEX
8
L1D11
10
-796.916
20
254.99
0
VERTEX
8
L1D11
10
-797.462
20
254.596
0
VERTEX
8
L1D11
10
-797.462
20
266.59
0
VERTEX
8
L1D11
10
-795
20
268.057
0
VERTEX
8
L1D11
10
-792.499
20
269.455
0
VERTEX
8
L1D11
10
-789.959
20
270.785
0
VERTEX
8
L1D11
10
-787.385
20
272.043
0
VERTEX
8
L1D11
10
-784.776
20
273.23
0
VERTEX
8
L1D11
10
-782.136
20
274.345
0
VERTEX
8
L1D11
10
-779.466
20
275.387
0
VERTEX
8
L1D11
10
-776.769
20
276.355
0
VERTEX
8
L1D11
10
-774.046
20
277.248
0
VERTEX
8
L1D11
10
-771.299
20
278.066
0
VERTEX
8
L1D11
10
-768.53
20
278.808
0
VERTEX
8
L1D11
10
-765.743
20
279.473
0
VERTEX
8
L1D11
10
-762.938
20
280.061
0
VERTEX
8
L1D11
10
-760.118
20
280.572
0
VERTEX
8
L1D11
10
-757.285
20
281.004
0
VERTEX
8
L1D11
10
-754.441
20
281.359
0
VERTEX
8
L1D11
10
-751.588
20
281.635
0
VERTEX
8
L1D11
10
-748.729
20
281.832
0
VERTEX
8
L1D11
10
-745.866
20
281.951
0
VERTEX
8
L1D11
10
-743
20
281.99
0
VERTEX
8
L1D11
10
-741
20
281.99
0
VERTEX
8
L1D11
10
-738.134
20
281.951
0
VERTEX
8
L1D11
10
-735.271
20
281.832
0
VERTEX
8
L1D11
10
-732.412
20
281.635
0
VERTEX
8
L1D11
10
-729.559
20
281.359
0
VERTEX
8
L1D11
10
-726.715
20
281.004
0
VERTEX
8
L1D11
10
-723.882
20
280.572
0
VERTEX
8
L1D11
10
-721.062
20
280.061
0
VERTEX
8
L1D11
10
-718.257
20
279.473
0
VERTEX
8
L1D11
10
-715.47
20
278.808
0
VERTEX
8
L1D11
10
-712.701
20
278.066
0
VERTEX
8
L1D11
10
-709.954
20
277.248
0
VERTEX
8
L1D11
10
-707.231
20
276.355
0
VERTEX
8
L1D11
10
-704.534
20
275.387
0
VERTEX
8
L1D11
10
-701.864
20
274.345
0
VERTEX
8
L1D11
10
-699.224
20
273.23
0
VERTEX
8
L1D11
10
-696.615
20
272.043
0
VERTEX
8
L1D11
10
-694.041
20
270.785
0
VERTEX
8
L1D11
10
-691.501
20
269.455
0
VERTEX
8
L1D11
10
-689
20
268.057
0
VERTEX
8
L1D11
10
-686.538
20
266.59
0
VERTEX
8
L1D11
10
-684.117
20
265.055
0
VERTEX
8
L1D11
10
-681.74
20
263.455
0
VERTEX
8
L1D11
10
-679.408
20
261.79
0
VERTEX
8
L1D11
10
-677.122
20
260.061
0
VERTEX
8
L1D11
10
-674.885
20
258.269
0
VERTEX
8
L1D11
10
-672.698
20
256.417
0
VERTEX
8
L1D11
10
-670.563
20
254.505
0
VERTEX
8
L1D11
10
-668.481
20
252.535
0
VERTEX
8
L1D11
10
-666.455
20
250.509
0
VERTEX
8
L1D11
10
-664.485
20
248.427
0
VERTEX
8
L1D11
10
-662.573
20
246.292
0
VERTEX
8
L1D11
10
-660.721
20
244.105
0
VERTEX
8
L1D11
10
-658.929
20
241.868
0
VERTEX
8
L1D11
10
-657.2
20
239.583
0
VERTEX
8
L1D11
10
-655.535
20
237.25
0
VERTEX
8
L1D11
10
-653.935
20
234.873
0
VERTEX
8
L1D11
10
-652.4
20
232.452
0
VERTEX
8
L1D11
10
-650.933
20
229.99
0
VERTEX
8
L1D11
10
-649.535
20
227.489
0
VERTEX
8
L1D11
10
-648.206
20
224.95
0
VERTEX
8
L1D11
10
-646.947
20
222.375
0
VERTEX
8
L1D11
10
-645.76
20
219.766
0
VERTEX
8
L1D11
10
-644.645
20
217.126
0
VERTEX
8
L1D11
10
-643.603
20
214.456
0
VERTEX
8
L1D11
10
-642.635
20
211.759
0
VERTEX
8
L1D11
10
-641.742
20
209.036
0
VERTEX
8
L1D11
10
-640.924
20
206.289
0
VERTEX
8
L1D11
10
-640.182
20
203.521
0
VERTEX
8
L1D11
10
-639.517
20
200.733
0
VERTEX
8
L1D11
10
-638.929
20
197.928
0
VERTEX
8
L1D11
10
-638.418
20
195.108
0
VERTEX
8
L1D11
10
-637.986
20
192.275
0
VERTEX
8
L1D11
10
-637.631
20
189.431
0
VERTEX
8
L1D11
10
-637.355
20
186.578
0
VERTEX
8
L1D11
10
-637.158
20
183.719
0
VERTEX
8
L1D11
10
-637.039
20
180.856
0
VERTEX
8
L1D11
10
-637
20
177.99
0
VERTEX
8
L1D11
10
-637
20
-177.99
0
VERTEX
8
L1D11
10
-636.96
20
-180.724
0
VERTEX
8
L1D11
10
-636.841
20
-183.456
0
VERTEX
8
L1D11
10
-636.642
20
-186.183
0
VERTEX
8
L1D11
10
-636.364
20
-188.903
0
VERTEX
8
L1D11
10
-636.008
20
-191.614
0
VERTEX
8
L1D11
10
-635.572
20
-194.313
0
VERTEX
8
L1D11
10
-635.058
20
-196.999
0
VERTEX
8
L1D11
10
-634.466
20
-199.668
0
VERTEX
8
L1D11
10
-633.797
20
-202.319
0
VERTEX
8
L1D11
10
-633.051
20
-204.95
0
SEQEND
0
POLYLINE
8
L1D11
70
1
40
0
41
0
66
1
0
VERTEX
8
L1D11
10
-543
20
-281.99
0
VERTEX
8
L1D11
10
-545.866
20
-281.951
0
VERTEX
8
L1D11
10
-548.729
20
-281.832
0
VERTEX
8
L1D11
10
-551.588
20
-281.635
0
VERTEX
8
L1D11
10
-554.441
20
-281.359
0
VERTEX
8
L1D11
10
-557.285
20
-281.004
0
VERTEX
8
L1D11
10
-560.118
20
-280.572
0
VERTEX
8
L1D11
10
-562.938
20
-280.061
0
VERTEX
8
L1D11
10
-565.743
20
-279.473
0
VERTEX
8
L1D11
10
-568.53
20
-278.808
0
VERTEX
8
L1D11
10
-571.299
20
-278.066
0
VERTEX
8
L1D11
10
-574.046
20
-277.248
0
VERTEX
8
L1D11
10
-576.769
20
-276.355
0
VERTEX
8
L1D11
10
-579.466
20
-275.387
0
VERTEX
8
L1D11
10
-582.136
20
-274.345
0
VERTEX
8
L1D11
10
-584.776
20
-273.23
0
VERTEX
8
L1D11
10
-587.385
20
-272.043
0
VERTEX
8
L1D11
10
-589.959
20
-270.785
0
VERTEX
8
L1D11
10
-592.499
20
-269.455
0
VERTEX
8
L1D11
10
-595
20
-268.057
0
VERTEX
8
L1D11
10
-597.462
20
-266.59
0
VERTEX
8
L1D11
10
-599.883
20
-265.055
0
VERTEX
8
L1D11
10
-602.26
20
-263.455
0
VERTEX
8
L1D11
10
-604.592
20
-261.79
0
VERTEX
8
L1D11
10
-606.878
20
-260.061
0
VERTEX
8
L1D11
10
-609.115
20
-258.269
0
VERTEX
8
L1D11
10
-611.302
20
-256.417
0
VERTEX
8
L1D11
10
-613.437
20
-254.505
0
VERTEX
8
L1D11
10
-615.519
20
-252.535
0
VERTEX
8
L1D11
10
-617.545
20
-250.509
0
VERTEX
8
L1D11
10
-619.515
20
-248.427
0
VERTEX
8
L1D11
10
-621.427
20
-246.292
0
VERTEX
8
L1D11
10
-623.279
20
-244.105
0
VERTEX
8
L1D11
10
-625.071
20
-241.868
0
VERTEX
8
L1D11
10
-626.8
20
-239.583
0
VERTEX
8
L1D11
10
-628.465
20
-237.25
0
VERTEX
8
L1D11
10
-630.065
20
-234.873
0
VERTEX
8
L1D11
10
-631.6
20
-232.452
0
VERTEX
8
L1D11
10
-633.051
20
-230.016
0
VERTEX
8
L1D11
10
-633.051
20
-204.95
0
VERTEX
8
L1D11
10
-632.229
20
-207.557
0
VERTEX
8
L1D11
10
-631.331
20
-210.14
0
VERTEX
8
L1D11
10
-630.359
20
-212.695
0
VERTEX
8
L1D11
10
-629.312
20
-215.222
0
VERTEX
8
L1D11
10
-628.193
20
-217.716
0
VERTEX
8
L1D11
10
-627.001
20
-220.177
0
VERTEX
8
L1D11
10
-625.739
20
-222.602
0
VERTEX
8
L1D11
10
-624.406
20
-224.99
0
VERTEX
8
L1D11
10
-623.005
20
-227.338
0
VERTEX
8
L1D11
10
-621.536
20
-229.644
0
VERTEX
8
L1D11
10
-620
20
-231.906
0
VERTEX
8
L1D11
10
-618.4
20
-234.123
0
VERTEX
8
L1D11
10
-616.735
20
-236.292
0
VERTEX
8
L1D11
10
-615.008
20
-238.412
0
VERTEX
8
L1D11
10
-613.22
20
-240.481
0
VERTEX
8
L1D11
10
-611.373
20
-242.497
0
VERTEX
8
L1D11
10
-609.468
20
-244.458
0
VERTEX
8
L1D11
10
-607.507
20
-246.363
0
VERTEX
8
L1D11
10
-605.491
20
-248.21
0
VERTEX
8
L1D11
10
-603.422
20
-249.998
0
VERTEX
8
L1D11
10
-601.302
20
-251.725
0
VERTEX
8
L1D11
10
-599.133
20
-253.39
0
VERTEX
8
L1D11
10
-596.916
20
-254.99
0
VERTEX
8
L1D11
10
-594.654
20
-256.526
0
VERTEX
8
L1D11
10
-592.348
20
-257.995
0
VERTEX
8
L1D11
10
-590
20
-259.396
0
VERTEX
8
L1D11
10
-587.612
20
-260.729
0
VERTEX
8
L1D11
10
-585.187
20
-261.992
0
VERTEX
8
L1D11
10
-582.726
20
-263.183
0
VERTEX
8
L1D11
10
-580.231
20
-264.302
0
VERTEX
8
L1D11
10
-577.705
20
-265.349
0
VERTEX
8
L1D11
10
-575.15
20
-266.321
0
VERTEX
8
L1D11
10
-572.567
20
-267.219
0
VERTEX
8
L1D11
10
-569.96
20
-268.041
0
VERTEX
8
L1D11
10
-567.329
20
-268.787
0
VERTEX
8
L1D11
10
-564.678
20
-269.456
0
VERTEX
8
L1D11
10
-562.008
20
-270.048
0
VERTEX
8
L1D11
10
-559.323
20
-270.562
0
VERTEX
8
L1D11
10
-556.624
20
-270.998
0
VERTEX
8
L1D11
10
-553.913
20
-271.354
0
VERTEX
8
L1D11
10
-551.193
20
-271.632
0
VERTEX
8
L1D11
10
-548.466
20
-271.831
0
VERTEX
8
L1D11
10
-545.734
20
-271.95
0
VERTEX
8
L1D11
10
-543
20
-271.99
0
VERTEX
8
L1D11
10
-541
20
-271.99
0
VERTEX
8
L1D11
10
-538.266
20
-271.95
0
VERTEX
8
L1D11
10
-535.534
20
-271.831
0
VERTEX
8
L1D11
10
-532.807
20
-271.632
0
VERTEX
8
L1D11
10
-530.087
20
-271.354
0
VERTEX
8
L1D11
10
-527.376
20
-270.998
0
VERTEX
8
L1D11
10
-524.677
20
-270.562
0
VERTEX
8
L1D11
10
-521.992
20
-270.048
0
VERTEX
8
L1D11
10
-519.322
20
-269.456
0
VERTEX
8
L1D11
10
-516.671
20
-268.787
0
VERTEX
8
L1D11
10
-514.04
20
-268.041
0
VERTEX
8
L1D11
10
-511.433
20
-267.219
0
VERTEX
8
L1D11
10
-508.85
20
-266.321
0
VERTEX
8
L1D11
10
-506.295
20
-265.349
0
VERTEX
8
L1D11
10
-503.769
20
-264.302
0
VERTEX
8
L1D11
10
-501.274
20
-263.183
0
VERTEX
8
L1D11
10
-498.813
20
-261.992
0
VERTEX
8
L1D11
10
-496.388
20
-260.729
0
VERTEX
8
L1D11
10
-494
20
-259.396
0
VERTEX
8
L1D11
10
-491.652
20
-257.995
0
VERTEX
8
L1D11
10
-489.346
20
-256.526
0
VERTEX
8
L1D11
10
-487.084
20
-254.99
0
VERTEX
8
L1D11
10
-484.867
20
-253.39
0
VERTEX
8
L1D11
10
-482.698
20
-251.725
0
VERTEX
8
L1D11
10
-480.578
20
-249.998
0
VERTEX
8
L1D11
10
-478.509
20
-248.21
0
VERTEX
8
L1D11
10
-476.493
20
-246.363
0
VERTEX
8
L1D11
10
-474.532
20
-244.458
0
VERTEX
8
L1D11
10
-472.627
20
-242.497
0
VERTEX
8
L1D11
10
-470.78
20
-240.481
0
VERTEX
8
L1D11
10
-468.992
20
-238.412
0
VERTEX
8
L1D11
10
-467.265
20
-236.292
0
VERTEX
8
L1D11
10
-465.6
20
-234.123
0
VERTEX
8
L1D11
10
-464
20
-231.906
0
VERTEX
8
L1D11
10
-462.464
20
-229.644
0
VERTEX
8
L1D11
10
-460.995
20
-227.338
0
VERTEX
8
L1D11
10
-459.594
20
-224.99
0
VERTEX
8
L1D11
10
-458.261
20
-222.602
0
VERTEX
8
L1D11
10
-456.999
20
-220.177
0
VERTEX
8
L1D11
10
-455.807
20
-217.716
0
VERTEX
8
L1D11
10
-454.688
20
-215.222
0
VERTEX
8
L1D11
10
-453.641
20
-212.695
0
VERTEX
8
L1D11
10
-452.669
20
-210.14
0
VERTEX
8
L1D11
10
-451.771
20
-207.557
0
VERTEX
8
L1D11
10
-450.949
20
-204.95
0
VERTEX
8
L1D11
10
-450.203
20
-202.319
0
VERTEX
8
L1D11
10
-449.534
20
-199.668
0
VERTEX
8
L1D11
10
-448.942
20
-196.999
0
VERTEX
8
L1D11
10
-448.428
20
-194.313
0
VERTEX
8
L1D11
10
-447.992
20
-191.614
0
VERTEX
8
L1D11
10
-447.636
20
-188.903
0
VERTEX
8
L1D11
10
-447.358
20
-186.183
0
VERTEX
8
L1D11
10
-447.159
20
-183.456
0
VERTEX
8
L1D11
10
-447.04
20
-180.724
0
VERTEX
8
L1D11
10
-447
20
-177.99
0
VERTEX
8
L1D11
10
-447
20
177.99
0
VERTEX
8
L1D11
10
-446.961
20
180.856
0
VERTEX
8
L1D11
10
-446.842
20
183.719
0
VERTEX
8
L1D11
10
-446.645
20
186.578
0
VERTEX
8
L1D11
10
-446.369
20
189.431
0
VERTEX
8
L1D11
10
-446.014
20
192.275
0
VERTEX
8
L1D11
10
-446.014
20
-220.326
0
VERTEX
8
L1D11
10
-446.947
20
-222.375
0
VERTEX
8
L1D11
10
-448.206
20
-224.95
0
VERTEX
8
L1D11
10
-449.535
20
-227.489
0
VERTEX
8
L1D11
10
-450.933
20
-229.99
0
VERTEX
8
L1D11
10
-452.4
20
-232.452
0
VERTEX
8
L1D11
10
-453.935
20
-234.873
0
VERTEX
8
L1D11
10
-455.535
20
-237.25
0
VERTEX
8
L1D11
10
-457.2
20
-239.583
0
VERTEX
8
L1D11
10
-458.929
20
-241.868
0
VERTEX
8
L1D11
10
-460.721
20
-244.105
0
VERTEX
8
L1D11
10
-462.573
20
-246.292
0
VERTEX
8
L1D11
10
-464.485
20
-248.427
0
VERTEX
8
L1D11
10
-466.455
20
-250.509
0
VERTEX
8
L1D11
10
-468.481
20
-252.535
0
VERTEX
8
L1D11
10
-470.563
20
-254.505
0
VERTEX
8
L1D11
10
-472.698
20
-256.417
0
VERTEX
8
L1D11
10
-474.885
20
-258.269
0
VERTEX
8
L1D11
10
-477.122
20
-260.061
0
VERTEX
8
L1D11
10
-479.408
20
-261.79
0
VERTEX
8
L1D11
10
-481.74
20
-263.455
0
VERTEX
8
L1D11
10
-484.117
20
-265.055
0
VERTEX
8
L1D11
10
-486.538
20
-266.59
0
VERTEX
8
L1D11
10
-489
20
-268.057
0
VERTEX
8
L1D11
10
-491.501
20
-269.455
0
VERTEX
8
L1D11
10
-494.041
20
-270.785
0
VERTEX
8
L1D11
10
-496.615
20
-272.043
0
VERTEX
8
L1D11
10
-499.224
20
-273.23
0
VERTEX
8
L1D11
10
-501.864
20
-274.345
0
VERTEX
8
L1D11
10
-504.534
20
-275.387
0
VERTEX
8
L1D11
10
-507.231
20
-276.355
0
VERTEX
8
L1D11
10
-509.954
20
-277.248
0
VERTEX
8
L1D11
10
-512.701
20
-278.066
0
VERTEX
8
L1D11
10
-515.47
20
-278.808
0
VERTEX
8
L1D11
10
-518.257
20
-279.473
0
VERTEX
8
L1D11
10
-521.062
20
-280.061
0
VERTEX
8
L1D11
10
-523.882
20
-280.572
0
VERTEX
8
L1D11
10
-526.715
20
-281.004
0
VERTEX
8
L1D11
10
-529.559
20
-281.359
0
VERTEX
8
L1D11
10
-532.412
20
-281.635
0
VERTEX
8
L1D11
10
-535.271
20
-281.832
0
VERTEX
8
L1D11
10
-538.134
20
-281.951
0
VERTEX
8
L1D11
10
-541
20
-281.99
0
SEQEND
0
POLYLINE
8
L1D11
70
1
40
0
41
0
66
1
0
VERTEX
8
L1D11
10
-446.014
20
-220.326
0
VERTEX
8
L1D11
10
-446.014
20
192.275
0
VERTEX
8
L1D11
10
-445.582
20
195.108
0
VERTEX
8
L1D11
10
-445.071
20
197.928
0
VERTEX
8
L1D11
10
-444.483
20
200.733
0
VERTEX
8
L1D11
10
-443.818
20
203.521
0
VERTEX
8
L1D11
10
-443.076
20
206.289
0
VERTEX
8
L1D11
10
-442.258
20
209.036
0
VERTEX
8
L1D11
10
-441.365
20
211.759
0
VERTEX
8
L1D11
10
-440.397
20
214.456
0
VERTEX
8
L1D11
10
-439.355
20
217.126
0
VERTEX
8
L1D11
10
-438.24
20
219.766
0
VERTEX
8
L1D11
10
-437.053
20
222.375
0
VERTEX
8
L1D11
10
-435.794
20
224.95
0
VERTEX
8
L1D11
10
-434.465
20
227.489
0
VERTEX
8
L1D11
10
-433.067
20
229.99
0
VERTEX
8
L1D11
10
-431.6
20
232.452
0
VERTEX
8
L1D11
10
-430.065
20
234.873
0
VERTEX
8
L1D11
10
-428.465
20
237.25
0
VERTEX
8
L1D11
10
-426.8
20
239.583
0
VERTEX
8
L1D11
10
-425.071
20
241.868
0
VERTEX
8
L1D11
10
-423.279
20
244.105
0
VERTEX
8
L1D11
10
-421.427
20
246.292
0
VERTEX
8
L1D11
10
-419.515
20
248.427
0
VERTEX
8
L1D11
10
-417.545
20
250.509
0
VERTEX
8
L1D11
10
-415.519
20
252.535
0
VERTEX
8
L1D11
10
-413.437
20
254.505
0
VERTEX
8
L1D11
10
-411.302
20
256.417
0
VERTEX
8
L1D11
10
-409.115
20
258.269
0
VERTEX
8
L1D11
10
-406.878
20
260.061
0
VERTEX
8
L1D11
10
-404.592
20
261.79
0
VERTEX
8
L1D11
10
-402.26
20
263.455
0
VERTEX
8
L1D11
10
-399.883
20
265.055
0
VERTEX
8
L1D11
10
-397.462
20
266.59
0
VERTEX
8
L1D11
10
-395
20
268.057
0
VERTEX
8
L1D11
10
-392.499
20
269.455
0
VERTEX
8
L1D11
10
-389.959
20
270.785
0
VERTEX
8
L1D11
10
-387.385
20
272.043
0
VERTEX
8
L1D11
10
-384.776
20
273.23
0
VERTEX
8
L1D11
10
-382.136
20
274.345
0
VERTEX
8
L1D11
10
-379.466
20
275.387
0
VERTEX
8
L1D11
10
-376.769
20
276.355
0
VERTEX
8
L1D11
10
-374.046
20
277.248
0
VERTEX
8
L1D11
10
-371.299
20
278.066
0
VERTEX
8
L1D11
10
-368.53
20
278.808
0
VERTEX
8
L1D11
10
-365.743
20
279.473
0
VERTEX
8
L1D11
10
-362.938
20
280.061
0
VERTEX
8
L1D11
10
-360.118
20
280.572
0
VERTEX
8
L1D11
10
-357.285
20
281.004
0
VERTEX
8
L1D11
10
-354.441
20
281.359
0
VERTEX
8
L1D11
10
-351.588
20
281.635
0
VERTEX
8
L1D11
10
-348.729
20
281.832
0
VERTEX
8
L1D11
10
-345.866
20
281.951
0
VERTEX
8
L1D11
10
-343
20
281.99
0
VERTEX
8
L1D11
10
-341
20
281.99
0
VERTEX
8
L1D11
10
-338.134
20
281.951
0
VERTEX
8
L1D11
10
-335.271
20
281.832
0
VERTEX
8
L1D11
10
-332.412
20
281.635
0
VERTEX
8
L1D11
10
-329.559
20
281.359
0
VERTEX
8
L1D11
10
-326.715
20
281.004
0
VERTEX
8
L1D11
10
-323.882
20
280.572
0
VERTEX
8
L1D11
10
-321.062
20
280.061
0
VERTEX
8
L1D11
10
-318.257
20
279.473
0
VERTEX
8
L1D11
10
-315.47
20
278.808
0
VERTEX
8
L1D11
10
-312.701
20
278.066
0
VERTEX
8
L1D11
10
-309.954
20
277.248
0
VERTEX
8
L1D11
10
-307.231
20
276.355
0
VERTEX
8
L1D11
10
-304.534
20
275.387
0
VERTEX
8
L1D11
10
-301.864
20
274.345
0
VERTEX
8
L1D11
10
-299.224
20
273.23
0
VERTEX
8
L1D11
10
-296.615
20
272.043
0
VERTEX
8
L1D11
10
-294.041
20
270.785
0
VERTEX
8
L1D11
10
-291.501
20
269.455
0
VERTEX
8
L1D11
10
-289
20
268.057
0
VERTEX
8
L1D11
10
-286.538
20
266.59
0
VERTEX
8
L1D11
10
-284.117
20
265.055
0
VERTEX
8
L1D11
10
-281.74
20
263.455
0
VERTEX
8
L1D11
10
-279.408
20
261.79
0
VERTEX
8
L1D11
10
-277.122
20
260.061
0
VERTEX
8
L1D11
10
-274.885
20
258.269
0
VERTEX
8
L1D11
10
-272.698
20
256.417
0
VERTEX
8
L1D11
10
-270.563
20
254.505
0
VERTEX
8
L1D11
10
-268.481
20
252.535
0
VERTEX
8
L1D11
10
-266.455
20
250.509
0
VERTEX
8
L1D11
10
-266.455
20
235.236
0
VERTEX
8
L1D11
10
-267.265
20
236.292
0
VERTEX
8
L1D11
10
-268.992
20
238.412
0
VERTEX
8
L1D11
10
-270.78
20
240.481
0
VERTEX
8
L1D11
10
-272.627
20
242.497
0
VERTEX
8
L1D11
10
-274.532
20
244.458
0
VERTEX
8
L1D11
10
-276.493
20
246.363
0
VERTEX
8
L1D11
10
-278.509
20
248.21
0
VERTEX
8
L1D11
10
-280.578
20
249.998
0
VERTEX
8
L1D11
10
-282.698
20
251.725
0
VERTEX
8
L1D11
10
-284.867
20
253.39
0
VERTEX
8
L1D11
10
-287.084
20
254.99
0
VERTEX
8
L1D11
10
-289.346
20
256.526
0
VERTEX
8
L1D11
10
-291.652
20
257.995
0
VERTEX
8
L1D11
10
-294
20
259.396
0
VERTEX
8
L1D11
10
-296.388
20
260.729
0
VERTEX
8
L1D11
10
-298.813
20
261.992
0
VERTEX
8
L1D11
10
-301.274
20
263.183
0
VERTEX
8
L1D11
10
-303.769
20
264.302
0
VERTEX
8
L1D11
10
-306.295
20
265.349
0
VERTEX
8
L1D11
10
-308.85
20
266.321
0
VERTEX
8
L1D11
10
-311.433
20
267.219
0
VERTEX
8
L1D11
10
-314.04
20
268.041
0
VERTEX
8
L1D11
10
-316.671
20
268.787
0
VERTEX
8
L1D11
10
-319.322
20
269.456
0
VERTEX
8
L1D11
10
-321.992
20
270.048
0
VERTEX
8
L1D11
10
-324.677
20
270.562
0
VERTEX
8
L1D11
10
-327.376
20
270.998
0
VERTEX
8
L1D11
10
-330.087
20
271.354
0
VERTEX
8
L1D11
10
-332.807
20
271.632
0
VERTEX
8
L1D11
10
-335.534
20
271.831
0
VERTEX
8
L1D11
10
-338.266
20
271.95
0
VERTEX
8
L1D11
10
-341
20
271.99
0
VERTEX
8
L1D11
10
-343
20
271.99
0
VERTEX
8
L1D11
10
-345.734
20
271.95
0
VERTEX
8
L1D11
10
-348.466
20
271.831
0
VERTEX
8
L1D11
10
-351.193
20
271.632
0
VERTEX
8
L1D11
10
-353.913
20
271.354
0
VERTEX
8
L1D11
10
-356.624
20
270.998
0
VERTEX
8
L1D11
10
-359.323
20
270.562
0
VERTEX
8
L1D11
10
-362.008
20
270.048
0
VERTEX
8
L1D11
10
-364.678
20
269.456
0
VERTEX
8
L1D11
10
-367.329
20
268.787
0
VERTEX
8
L1D11
10
-369.96
20
268.041
0
VERTEX
8
L1D11
10
-372.567
20
267.219
0
VERTEX
8
L1D11
10
-375.15
20
266.321
0
VERTEX
8
L1D11
10
-377.705
20
265.349
0
VERTEX
8
L1D11
10
-380.231
20
264.302
0
VERTEX
8
L1D11
10
-382.726
20
263.183
0
VERTEX
8
L1D11
10
-385.187
20
261.992
0
VERTEX
8
L1D11
10
-387.612
20
260.729
0
VERTEX
8
L1D11
10
-390
20
259.396
0
VERTEX
8
L1D11
10
-392.348
20
257.995
0
VERTEX
8
L1D11
10
-394.654
20
256.526
0
VERTEX
8
L1D11
10
-396.916
20
254.99
0
VERTEX
8
L1D11
10
-399.133
20
253.39
0
VERTEX
8
L1D11
10
-401.302
20
251.725
0
VERTEX
8
L1D11
10
-403.422
20
249.998
0
VERTEX
8
L1D11
10
-405.491
20
248.21
0
VERTEX
8
L1D11
10
-407.507
20
246.363
0
VERTEX
8
L1D11
10
-409.468
20
244.458
0
VERTEX
8
L1D11
10
-411.373
20
242.497
0
VERTEX
8
L1D11
10
-413.22
20
240.481
0
VERTEX
8
L1D11
10
-415.008
20
238.412
0
VERTEX
8
L1D11
10
-416.735
20
236.292
0
VERTEX
8
L1D11
10
-418.4
20
234.123
0
VERTEX
8
L1D11
10
-420
20
231.906
0
VERTEX
8
L1D11
10
-421.536
20
229.644
0
VERTEX
8
L1D11
10
-423.005
20
227.338
0
VERTEX
8
L1D11
10
-424.406
20
224.99
0
VERTEX
8
L1D11
10
-425.739
20
222.602
0
VERTEX
8
L1D11
10
-427.001
20
220.177
0
VERTEX
8
L1D11
10
-428.193
20
217.716
0
VERTEX
8
L1D11
10
-429.312
20
215.222
0
VERTEX
8
L1D11
10
-430.359
20
212.695
0
VERTEX
8
L1D11
10
-431.331
20
210.14
0
VERTEX
8
L1D11
10
-432.229
20
207.557
0
VERTEX
8
L1D11
10
-433.051
20
204.95
0
VERTEX
8
L1D11
10
-433.797
20
202.319
0
VERTEX
8
L1D11
10
-434.466
20
199.668
0
VERTEX
8
L1D11
10
-435.058
20
196.999
0
VERTEX
8
L1D11
10
-435.572
20
194.313
0
VERTEX
8
L1D11
10
-436.008
20
191.614
0
VERTEX
8
L1D11
10
-436.364
20
188.903
0
VERTEX
8
L1D11
10
-436.642
20
186.183
0
VERTEX
8
L1D11
10
-436.841
20
183.456
0
VERTEX
8
L1D11
10
-436.96
20
180.724
0
VERTEX
8
L1D11
10
-437
20
177.99
0
VERTEX
8
L1D11
10
-437
20
-177.99
0
VERTEX
8
L1D11
10
-437.039
20
-180.856
0
VERTEX
8
L1D11
10
-437.158
20
-183.719
0
VERTEX
8
L1D11
10
-437.355
20
-186.578
0
VERTEX
8
L1D11
10
-437.631
20
-189.431
0
VERTEX
8
L1D11
10
-437.986
20
-192.275
0
VERTEX
8
L1D11
10
-438.418
20
-195.108
0
VERTEX
8
L1D11
10
-438.929
20
-197.928
0
VERTEX
8
L1D11
10
-439.517
20
-200.733
0
VERTEX
8
L1D11
10
-440.182
20
-203.521
0
VERTEX
8
L1D11
10
-440.924
20
-206.289
0
VERTEX
8
L1D11
10
-441.742
20
-209.036
0
VERTEX
8
L1D11
10
-442.635
20
-211.759
0
VERTEX
8
L1D11
10
-443.603
20
-214.456
0
VERTEX
8
L1D11
10
-444.645
20
-217.126
0
VERTEX
8
L1D11
10
-445.76
20
-219.766
0
SEQEND
0
POLYLINE
8
L1D11
70
1
40
0
41
0
66
1
0
VERTEX
8
L1D11
10
-143
20
-281.99
0
VERTEX
8
L1D11
10
-145.866
20
-281.951
0
VERTEX
8
L1D11
10
-148.729
20
-281.832
0
VERTEX
8
L1D11
10
-151.588
20
-281.635
0
VERTEX
8
L1D11
10
-154.441
20
-281.359
0
VERTEX
8
L1D11
10
-157.285
20
-281.004
0
VERTEX
8
L1D11
10
-160.118
20
-280.572
0
VERTEX
8
L1D11
10
-162.938
20
-280.061
0
VERTEX
8
L1D11
10
-165.743
20
-279.473
0
VERTEX
8
L1D11
10
-168.53
20
-278.808
0
VERTEX
8
L1D11
10
-171.299
20
-278.066
0
VERTEX
8
L1D11
10
-174.046
20
-277.248
0
VERTEX
8
L1D11
10
-176.769
20
-276.355
0
VERTEX
8
L1D11
10
-179.466
20
-275.387
0
VERTEX
8
L1D11
10
-182.136
20
-274.345
0
VERTEX
8
L1D11
10
-184.776
20
-273.23
0
VERTEX
8
L1D11
10
-187.385
20
-272.043
0
VERTEX
8
L1D11
10
-189.959
20
-270.785
0
VERTEX
8
L1D11
10
-192.499
20
-269.455
0
VERTEX
8
L1D11
10
-195
20
-268.057
0
VERTEX
8
L1D11
10
-197.462
20
-266.59
0
VERTEX
8
L1D11
10
-199.883
20
-265.055
0
VERTEX
8
L1D11
10
-202.26
20
-263.455
0
VERTEX
8
L1D11
10
-204.592
20
-261.79
0
VERTEX
8
L1D11
10
-206.878
20
-260.061
0
VERTEX
8
L1D11
10
-209.115
20
-258.269
0
VERTEX
8
L1D11
10
-211.302
20
-256.417
0
VERTEX
8
L1D11
10
-213.437
20
-254.505
0
VERTEX
8
L1D11
10
-215.519
20
-252.535
0
VERTEX
8
L1D11
10
-217.545
20
-250.509
0
VERTEX
8
L1D11
10
-219.515
20
-248.427
0
VERTEX
8
L1D11
10
-221.427
20
-246.292
0
VERTEX
8
L1D11
10
-223.279
20
-244.105
0
VERTEX
8
L1D11
10
-225.071
20
-241.868
0
VERTEX
8
L1D11
10
-226.8
20
-239.583
0
VERTEX
8
L1D11
10
-228.465
20
-237.25
0
VERTEX
8
L1D11
10
-230.065
20
-234.873
0
VERTEX
8
L1D11
10
-231.6
20
-232.452
0
VERTEX
8
L1D11
10
-233.067
20
-229.99
0
VERTEX
8
L1D11
10
-234.465
20
-227.489
0
VERTEX
8
L1D11
10
-235.794
20
-224.95
0
VERTEX
8
L1D11
10
-237.053
20
-222.375
0
VERTEX
8
L1D11
10
-238.24
20
-219.766
0
VERTEX
8
L1D11
10
-239.355
20
-217.126
0
VERTEX
8
L1D11
10
-240.397
20
-214.456
0
VERTEX
8
L1D11
10
-241.365
20
-211.759
0
VERTEX
8
L1D11
10
-242.258
20
-209.036
0
VERTEX
8
L1D11
10
-243.076
20
-206.289
0
VERTEX
8
L1D11
10
-243.818
20
-203.521
0
VERTEX
8
L1D11
10
-244.483
20
-200.733
0
VERTEX
8
L1D11
10
-245.071
20
-197.928
0
VERTEX
8
L1D11
10
-245.582
20
-195.108
0
VERTEX
8
L1D11
10
-246.014
20
-192.275
0
VERTEX
8
L1D11
10
-246.369
20
-189.431
0
VERTEX
8
L1D11
10
-246.645
20
-186.578
0
VERTEX
8
L1D11
10
-246.842
20
-183.719
0
VERTEX
8
L1D11
10
-246.961
20
-180.856
0
VERTEX
8
L1D11
10
-247
20
-177.99
0
VERTEX
8
L1D11
10
-247
20
177.99
0
VERTEX
8
L1D11
10
-247.04
20
180.724
0
VERTEX
8
L1D11
10
-247.159
20
183.456
0
VERTEX
8
L1D11
10
-247.358
20
186.183
0
VERTEX
8
L1D11
10
-247.636
20
188.903
0
VERTEX
8
L1D11
10
-247.992
20
191.614
0
VERTEX
8
L1D11
10
-248.428
20
194.313
0
VERTEX
8
L1D11
10
-248.942
20
196.999
0
VERTEX
8
L1D11
10
-249.534
20
199.668
0
VERTEX
8
L1D11
10
-250.203
20
202.319
0
VERTEX
8
L1D11
10
-250.949
20
204.95
0
VERTEX
8
L1D11
10
-251.771
20
207.557
0
VERTEX
8
L1D11
10
-252.669
20
210.14
0
VERTEX
8
L1D11
10
-253.641
20
212.695
0
VERTEX
8
L1D11
10
-254.688
20
215.222
0
VERTEX
8
L1D11
10
-255.807
20
217.716
0
VERTEX
8
L1D11
10
-256.999
20
220.177
0
VERTEX
8
L1D11
10
-258.261
20
222.602
0
VERTEX
8
L1D11
10
-259.594
20
224.99
0
VERTEX
8
L1D11
10
-260.995
20
227.338
0
VERTEX
8
L1D11
10
-262.464
20
229.644
0
VERTEX
8
L1D11
10
-264
20
231.906
0
VERTEX
8
L1D11
10
-265.6
20
234.123
0
VERTEX
8
L1D11
10
-266.455
20
235.236
0
VERTEX
8
L1D11
10
-266.455
20
250.509
0
VERTEX
8
L1D11
10
-264.485
20
248.427
0
VERTEX
8
L1D11
10
-262.573
20
246.292
0
VERTEX
8
L1D11
10
-260.721
20
244.105
0
VERTEX
8
L1D11
10
-258.929
20
241.868
0
VERTEX
8
L1D11
10
-257.2
20
239.583
0
VERTEX
8
L1D11
10
-255.535
20
237.25
0
VERTEX
8
L1D11
10
-253.935
20
234.873
0
VERTEX
8
L1D11
10
-252.4
20
232.452
0
VERTEX
8
L1D11
10
-250.933
20
229.99
0
VERTEX
8
L1D11
10
-249.535
20
227.489
0
VERTEX
8
L1D11
10
-248.206
20
224.95
0
VERTEX
8
L1D11
10
-246.947
20
222.375
0
VERTEX
8
L1D11
10
-245.76
20
219.766
0
VERTEX
8
L1D11
10
-244.645
20
217.126
0
VERTEX
8
L1D11
10
-243.603
20
214.456
0
VERTEX
8
L1D11
10
-242.635
20
211.759
0
VERTEX
8
L1D11
10
-241.742
20
209.036
0
VERTEX
8
L1D11
10
-240.924
20
206.289
0
VERTEX
8
L1D11
10
-240.182
20
203.521
0
VERTEX
8
L1D11
10
-239.517
20
200.733
0
VERTEX
8
L1D11
10
-238.929
20
197.928
0
VERTEX
8
L1D11
10
-238.418
20
195.108
0
VERTEX
8
L1D11
10
-237.986
20
192.275
0
VERTEX
8
L1D11
10
-237.631
20
189.431
0
VERTEX
8
L1D11
10
-237.355
20
186.578
0
VERTEX
8
L1D11
10
-237.158
20
183.719
0
VERTEX
8
L1D11
10
-237.039
20
180.856
0
VERTEX
8
L1D11
10
-237
20
177.99
0
VERTEX
8
L1D11
10
-237
20
-177.99
0
VERTEX
8
L1D11
10
-236.96
20
-180.724
0
VERTEX
8
L1D11
10
-236.841
20
-183.456
0
VERTEX
8
L1D11
10
-236.642
20
-186.183
0
VERTEX
8
L1D11
10
-236.364
20
-188.903
0
VERTEX
8
L1D11
10
-236.008
20
-191.614
0
VERTEX
8
L1D11
10
-235.572
20
-194.313
0
VERTEX
8
L1D11
10
-235.058
20
-196.999
0
VERTEX
8
L1D11
10
-234.466
20
-199.668
0
VERTEX
8
L1D11
10
-233.797
20
-202.319
0
VERTEX
8
L1D11
10
-233.051
20
-204.95
0
VERTEX
8
L1D11
10
-232.229
20
-207.557
0
VERTEX
8
L1D11
10
-231.331
20
-210.14
0
VERTEX
8
L1D11
10
-230.359
20
-212.695
0
VERTEX
8
L1D11
10
-229.312
20
-215.222
0
VERTEX
8
L1D11
10
-228.193
20
-217.716
0
VERTEX
8
L1D11
10
-227.001
20
-220.177
0
VERTEX
8
L1D11
10
-225.739
20
-222.602
0
VERTEX
8
L1D11
10
-224.406
20
-224.99
0
VERTEX
8
L1D11
10
-223.005
20
-227.338
0
VERTEX
8
L1D11
10
-221.536
20
-229.644
0
VERTEX
8
L1D11
10
-220
20
-231.906
0
VERTEX
8
L1D11
10
-218.4
20
-234.123
0
VERTEX
8
L1D11
10
-216.735
20
-236.292
0
VERTEX
8
L1D11
10
-215.008
20
-238.412
0
VERTEX
8
L1D11
10
-213.22
20
-240.481
0
VERTEX
8
L1D11
10
-211.373
20
-242.497
0
VERTEX
8
L1D11
10
-209.468
20
-244.458
0
VERTEX
8
L1D11
10
-207.507
20
-246.363
0
VERTEX
8
L1D11
10
-205.491
20
-248.21
0
VERTEX
8
L1D11
10
-203.422
20
-249.998
0
VERTEX
8
L1D11
10
-201.302
20
-251.725
0
VERTEX
8
L1D11
10
-199.133
20
-253.39
0
VERTEX
8
L1D11
10
-196.916
20
-254.99
0
VERTEX
8
L1D11
10
-194.654
20
-256.526
0
VERTEX
8
L1D11
10
-192.348
20
-257.995
0
VERTEX
8
L1D11
10
-190
20
-259.396
0
VERTEX
8
L1D11
10
-187.612
20
-260.729
0
VERTEX
8
L1D11
10
-185.187
20
-261.992
0
VERTEX
8
L1D11
10
-182.726
20
-263.183
0
VERTEX
8
L1D11
10
-180.231
20
-264.302
0
VERTEX
8
L1D11
10
-177.705
20
-265.349
0
VERTEX
8
L1D11
10
-175.15
20
-266.321
0
VERTEX
8
L1D11
10
-172.567
20
-267.219
0
VERTEX
8
L1D11
10
-169.96
20
-268.041
0
VERTEX
8
L1D11
10
-167.329
20
-268.787
0
VERTEX
8
L1D11
10
-164.678
20
-269.456
0
VERTEX
8
L1D11
10
-162.008
20
-270.048
0
VERTEX
8
L1D11
10
-159.323
20
-270.562
0
VERTEX
8
L1D11
10
-156.624
20
-270.998
0
VERTEX
8
L1D11
10
-153.913
20
-271.354
0
VERTEX
8
L1D11
10
-151.193
20
-271.632
0
VERTEX
8
L1D11
10
-148.466
20
-271.831
0
VERTEX
8
L1D11
10
-145.734
20
-271.95
0
VERTEX
8
L1D11
10
-143
20
-271.99
0
VERTEX
8
L1D11
10
-141
20
-271.99
0
VERTEX
8
L1D11
10
-138.266
20
-271.95
0
VERTEX
8
L1D11
10
-135.534
20
-271.831
0
VERTEX
8
L1D11
10
-132.807
20
-271.632
0
VERTEX
8
L1D11
10
-130.087
20
-271.354
0
VERTEX
8
L1D11
10
-127.376
20
-270.998
0
VERTEX
8
L1D11
10
-124.677
20
-270.562
0
VERTEX
8
L1D11
10
-121.992
20
-270.048
0
VERTEX
8
L1D11
10
-119.322
20
-269.456
0
VERTEX
8
L1D11
10
-116.671
20
-268.787
0
VERTEX
8
L1D11
10
-114.04
20
-268.041
0
VERTEX
8
L1D11
10
-114.04
20
-278.425
0
VERTEX
8
L1D11
10
-115.47
20
-278.808
0
VERTEX
8
L1D11
10
-118.257
20
-279.473
0
VERTEX
8
L1D11
10
-121.062
20
-280.061
0
VERTEX
8
L1D11
10
-123.882
20
-280.572
0
VERTEX
8
L1D11
10
-126.715
20
-281.004
0
VERTEX
8
L1D11
10
-129.559
20
-281.359
0
VERTEX
8
L1D11
10
-132.412
20
-281.635
0
VERTEX
8
L1D11
10
-135.271
20
-281.832
0
VERTEX
8
L1D11
10
-138.134
20
-281.951
0
VERTEX
8
L1D11
10
-141
20
-281.99
0
SEQEND
0
POLYLINE
8
L1D11
70
1
40
0
41
0
66
1
0
VERTEX
8
L1D11
10
-114.04
20
-278.425
0
VERTEX
8
L1D11
10
-114.04
20
-268.041
0
VERTEX
8
L1D11
10
-111.433
20
-267.219
0
VERTEX
8
L1D11
10
-108.85
20
-266.321
0
VERTEX
8
L1D11
10
-106.295
20
-265.349
0
VERTEX
8
L1D11
10
-103.769
20
-264.302
0
VERTEX
8
L1D11
10
-101.274
20
-263.183
0
VERTEX
8
L1D11
10
-98.813
20
-261.992
0
VERTEX
8
L1D11
10
-96.388
20
-260.729
0
VERTEX
8
L1D11
10
-94
20
-259.396
0
VERTEX
8
L1D11
10
-91.652
20
-257.995
0
VERTEX
8
L1D11
10
-89.346
20
-256.526
0
VERTEX
8
L1D11
10
-87.084
20
-254.99
0
VERTEX
8
L1D11
10
-84.867
20
-253.39
0
VERTEX
8
L1D11
10
-82.698
20
-251.725
0
VERTEX
8
L1D11
10
-80.578
20
-249.998
0
VERTEX
8
L1D11
10
-78.509
20
-248.21
0
VERTEX
8
L1D11
10
-76.493
20
-246.363
0
VERTEX
8
L1D11
10
-74.532
20
-244.458
0
VERTEX
8
L1D11
10
-72.627
20
-242.497
0
VERTEX
8
L1D11
10
-70.78
20
-240.481
0
VERTEX
8
L1D11
10
-68.992
20
-238.412
0
VERTEX
8
L1D11
10
-67.265
20
-236.292
0
VERTEX
8
L1D11
10
-65.6
20
-234.123
0
VERTEX
8
L1D11
10
-64
20
-231.906
0
VERTEX
8
L1D11
10
-62.464
20
-229.644
0
VERTEX
8
L1D11
10
-60.995
20
-227.338
0
VERTEX
8
L1D11
10
-59.594
20
-224.99
0
VERTEX
8
L1D11
10
-58.261
20
-222.602
0
VERTEX
8
L1D11
10
-56.999
20
-220.177
0
VERTEX
8
L1D11
10
-55.807
20
-217.716
0
VERTEX
8
L1D11
10
-54.688
20
-215.222
0
VERTEX
8
L1D11
10
-53.641
20
-212.695
0
VERTEX
8
L1D11
10
-52.669
20
-210.14
0
VERTEX
8
L1D11
10
-51.771
20
-207.557
0
VERTEX
8
L1D11
10
-50.949
20
-204.95
0
VERTEX
8
L1D11
10
-50.203
20
-202.319
0
VERTEX
8
L1D11
10
-49.534
20
-199.668
0
VERTEX
8
L1D11
10
-48.942
20
-196.999
0
VERTEX
8
L1D11
10
-48.428
20
-194.313
0
VERTEX
8
L1D11
10
-47.992
20
-191.614
0
VERTEX
8
L1D11
10
-47.636
20
-188.903
0
VERTEX
8
L1D11
10
-47.358
20
-186.183
0
VERTEX
8
L1D11
10
-47.159
20
-183.456
0
VERTEX
8
L1D11
10
-47.04
20
-180.724
0
VERTEX
8
L1D11
10
-47
20
-177.99
0
VERTEX
8
L1D11
10
-47
20
177.99
0
VERTEX
8
L1D11
10
-46.961
20
180.856
0
VERTEX
8
L1D11
10
-46.842
20
183.719
0
VERTEX
8
L1D11
10
-46.645
20
186.578
0
VERTEX
8
L1D11
10
-46.369
20
189.431
0
VERTEX
8
L1D11
10
-46.014
20
192.275
0
VERTEX
8
L1D11
10
-45.582
20
195.108
0
VERTEX
8
L1D11
10
-45.071
20
197.928
0
VERTEX
8
L1D11
10
-44.483
20
200.733
0
VERTEX
8
L1D11
10
-43.818
20
203.521
0
VERTEX
8
L1D11
10
-43.076
20
206.289
0
VERTEX
8
L1D11
10
-42.258
20
209.036
0
VERTEX
8
L1D11
10
-41.365
20
211.759
0
VERTEX
8
L1D11
10
-40.397
20
214.456
0
VERTEX
8
L1D11
10
-39.355
20
217.126
0
VERTEX
8
L1D11
10
-38.24
20
219.766
0
VERTEX
8
L1D11
10
-37.053
20
222.375
0
VERTEX
8
L1D11
10
-35.794
20
224.95
0
VERTEX
8
L1D11
10
-34.465
20
227.489
0
VERTEX
8
L1D11
10
-33.067
20
229.99
0
VERTEX
8
L1D11
10
-31.6
20
232.452
0
VERTEX
8
L1D11
10
-30.065
20
234.873
0
VERTEX
8
L1D11
10
-28.465
20
237.25
0
VERTEX
8
L1D11
10
-26.8
20
239.583
0
VERTEX
8
L1D11
10
-25.071
20
241.868
0
VERTEX
8
L1D11
10
-23.279
20
244.105
0
VERTEX
8
L1D11
10
-21.427
20
246.292
0
VERTEX
8
L1D11
10
-19.515
20
248.427
0
VERTEX
8
L1D11
10
-17.545
20
250.509
0
VERTEX
8
L1D11
10
-15.519
20
252.535
0
VERTEX
8
L1D11
10
-13.437
20
254.505
0
VERTEX
8
L1D11
10
-11.302
20
256.417
0
VERTEX
8
L1D11
10
-9.115
20
258.269
0
VERTEX
8
L1D11
10
-6.878
20
260.061
0
VERTEX
8
L1D11
10
-4.592
20
261.79
0
VERTEX
8
L1D11
10
-2.26
20
263.455
0
VERTEX
8
L1D11
10
0.117
20
265.055
0
VERTEX
8
L1D11
10
2.538
20
266.59
0
VERTEX
8
L1D11
10
5
20
268.057
0
VERTEX
8
L1D11
10
7.501
20
269.455
0
VERTEX
8
L1D11
10
10.041
20
270.785
0
VERTEX
8
L1D11
10
12.615
20
272.043
0
VERTEX
8
L1D11
10
15.224
20
273.23
0
VERTEX
8
L1D11
10
17.864
20
274.345
0
VERTEX
8
L1D11
10
20.534
20
275.387
0
VERTEX
8
L1D11
10
23.231
20
276.355
0
VERTEX
8
L1D11
10
25.954
20
277.248
0
VERTEX
8
L1D11
10
28.701
20
278.066
0
VERTEX
8
L1D11
10
31.47
20
278.808
0
VERTEX
8
L1D11
10
31.47
20
268.446
0
VERTEX
8
L1D11
10
30.04
20
268.041
0
VERTEX
8
L1D11
10
27.433
20
267.219
0
VERTEX
8
L1D11
10
24.85
20
266.321
0
VERTEX
8
L1D11
10
22.295
20
265.349
0
VERTEX
8
L1D11
10
19.769
20
264.302
0
VERTEX
8
L1D11
10
17.274
20
263.183
0
VERTEX
8
L1D11
10
14.813
20
261.992
0
VERTEX
8
L1D11
10
12.388
20
260.729
0
VERTEX
8
L1D11
10
10
20
259.396
0
VERTEX
8
L1D11
10
7.652
20
257.995
0
VERTEX
8
L1D11
10
5.346
20
256.526
0
VERTEX
8
L1D11
10
3.084
20
254.99
0
VERTEX
8
L1D11
10
0.867
20
253.39
0
VERTEX
8
L1D11
10
-1.302
20
251.725
0
VERTEX
8
L1D11
10
-3.422
20
249.998
0
VERTEX
8
L1D11
10
-5.491
20
248.21
0
VERTEX
8
L1D11
10
-7.507
20
246.363
0
VERTEX
8
L1D11
10
-9.468
20
244.458
0
VERTEX
8
L1D11
10
-11.373
20
242.497
0
VERTEX
8
L1D11
10
-13.22
20
240.481
0
VERTEX
8
L1D11
10
-15.008
20
238.412
0
VERTEX
8
L1D11
10
-16.735
20
236.292
0
VERTEX
8
L1D11
10
-18.4
20
234.123
0
VERTEX
8
L1D11
10
-20
20
231.906
0
VERTEX
8
L1D11
10
-21.536
20
229.644
0
VERTEX
8
L1D11
10
-23.005
20
227.338
0
VERTEX
8
L1D11
10
-24.406
20
224.99
0
VERTEX
8
L1D11
10
-25.739
20
222.602
0
VERTEX
8
L1D11
10
-27.001
20
220.177
0
VERTEX
8
L1D11
10
-28.193
20
217.716
0
VERTEX
8
L1D11
10
-29.312
20
215.222
0
VERTEX
8
L1D11
10
-30.359
20
212.695
0
VERTEX
8
L1D11
10
-31.331
20
210.14
0
VERTEX
8
L1D11
10
-32.229
20
207.557
0
VERTEX
8
L1D11
10
-33.051
20
204.95
0
VERTEX
8
L1D11
10
-33.797
20
202.319
0
VERTEX
8
L1D11
10
-34.466
20
199.668
0
VERTEX
8
L1D11
10
-35.058
20
196.999
0
VERTEX
8
L1D11
10
-35.572
20
194.313
0
VERTEX
8
L1D11
10
-36.008
20
191.614
0
VERTEX
8
L1D11
10
-36.364
20
188.903
0
VERTEX
8
L1D11
10
-36.642
20
186.183
0
VERTEX
8
L1D11
10
-36.841
20
183.456
0
VERTEX
8
L1D11
10
-36.96
20
180.724
0
VERTEX
8
L1D11
10
-37
20
177.99
0
VERTEX
8
L1D11
10
-37
20
-177.99
0
VERTEX
8
L1D11
10
-37.039
20
-180.856
0
VERTEX
8
L1D11
10
-37.158
20
-183.719
0
VERTEX
8
L1D11
10
-37.355
20
-186.578
0
VERTEX
8
L1D11
10
-37.631
20
-189.431
0
VERTEX
8
L1D11
10
-37.986
20
-192.275
0
VERTEX
8
L1D11
10
-38.418
20
-195.108
0
VERTEX
8
L1D11
10
-38.929
20
-197.928
0
VERTEX
8
L1D11
10
-39.517
20
-200.733
0
VERTEX
8
L1D11
10
-40.182
20
-203.521
0
VERTEX
8
L1D11
10
-40.924
20
-206.289
0
VERTEX
8
L1D11
10
-41.742
20
-209.036
0
VERTEX
8
L1D11
10
-42.635
20
-211.759
0
VERTEX
8
L1D11
10
-43.603
20
-214.456
0
VERTEX
8
L1D11
10
-44.645
20
-217.126
0
VERTEX
8
L1D11
10
-45.76
20
-219.766
0
VERTEX
8
L1D11
10
-46.947
20
-222.375
0
VERTEX
8
L1D11
10
-48.206
20
-224.95
0
VERTEX
8
L1D11
10
-49.535
20
-227.489
0
VERTEX
8
L1D11
10
-50.933
20
-229.99
0
VERTEX
8
L1D11
10
-52.4
20
-232.452
0
VERTEX
8
L1D11
10
-53.935
20
-234.873
0
VERTEX
8
L1D11
10
-55.535
20
-237.25
0
VERTEX
8
L1D11
10
-57.2
20
-239.583
0
VERTEX
8
L1D11
10
-58.929
20
-241.868
0
VERTEX
8
L1D11
10
-60.721
20
-244.105
0
VERTEX
8
L1D11
10
-62.573
20
-246.292
0
VERTEX
8
L1D11
10
-64.485
20
-248.427
0
VERTEX
8
L1D11
10
-66.455
20
-250.509
0
VERTEX
8
L1D11
10
-68.481
20
-252.535
0
VERTEX
8
L1D11
10
-70.563
20
-254.505
0
VERTEX
8
L1D11
10
-72.698
20
-256.417
0
VERTEX
8
L1D11
10
-74.885
20
-258.269
0
VERTEX
8
L1D11
10
-77.122
20
-260.061
0
VERTEX
8
L1D11
10
-79.408
20
-261.79
0
VERTEX
8
L1D11
10
-81.74
20
-263.455
0
VERTEX
8
L1D11
10
-84.117
20
-265.055
0
VERTEX
8
L1D11
10
-86.538
20
-266.59
0
VERTEX
8
L1D11
10
-89
20
-268.057
0
VERTEX
8
L1D11
10
-91.501
20
-269.455
0
VERTEX
8
L1D11
10
-94.041
20
-270.785
0
VERTEX
8
L1D11
10
-96.615
20
-272.043
0
VERTEX
8
L1D11
10
-99.224
20
-273.23
0
VERTEX
8
L1D11
10
-101.864
20
-274.345
0
VERTEX
8
L1D11
10
-104.534
20
-275.387
0
VERTEX
8
L1D11
10
-107.231
20
-276.355
0
VERTEX
8
L1D11
10
-109.954
20
-277.248
0
VERTEX
8
L1D11
10
-112.701
20
-278.066
0
SEQEND
0
POLYLINE
8
L1D11
70
1
40
0
41
0
66
1
0
VERTEX
8
L1D11
10
183.265
20
-251.319
0
VERTEX
8
L1D11
10
182.455
20
-250.509
0
VERTEX
8
L1D11
10
180.485
20
-248.427
0
VERTEX
8
L1D11
10
178.573
20
-246.292
0
VERTEX
8
L1D11
10
176.721
20
-244.105
0
VERTEX
8
L1D11
10
174.929
20
-241.868
0
VERTEX
8
L1D11
10
173.2
20
-239.583
0
VERTEX
8
L1D11
10
171.535
20
-237.25
0
VERTEX
8
L1D11
10
169.935
20
-234.873
0
VERTEX
8
L1D11
10
168.4
20
-232.452
0
VERTEX
8
L1D11
10
166.933
20
-229.99
0
VERTEX
8
L1D11
10
165.535
20
-227.489
0
VERTEX
8
L1D11
10
164.206
20
-224.95
0
VERTEX
8
L1D11
10
162.947
20
-222.375
0
VERTEX
8
L1D11
10
161.76
20
-219.766
0
VERTEX
8
L1D11
10
160.645
20
-217.126
0
VERTEX
8
L1D11
10
159.603
20
-214.456
0
VERTEX
8
L1D11
10
158.635
20
-211.759
0
VERTEX
8
L1D11
10
157.742
20
-209.036
0
VERTEX
8
L1D11
10
156.924
20
-206.289
0
VERTEX
8
L1D11
10
156.182
20
-203.521
0
VERTEX
8
L1D11
10
155.517
20
-200.733
0
VERTEX
8
L1D11
10
154.929
20
-197.928
0
VERTEX
8
L1D11
10
154.418
20
-195.108
0
VERTEX
8
L1D11
10
153.986
20
-192.275
0
VERTEX
8
L1D11
10
153.631
20
-189.431
0
VERTEX
8
L1D11
10
153.355
20
-186.578
0
VERTEX
8
L1D11
10
153.158
20
-183.719
0
VERTEX
8
L1D11
10
153.039
20
-180.856
0
VERTEX
8
L1D11
10
153
20
-177.99
0
VERTEX
8
L1D11
10
153
20
177.99
0
VERTEX
8
L1D11
10
152.96
20
180.724
0
VERTEX
8
L1D11
10
152.841
20
183.456
0
VERTEX
8
L1D11
10
152.642
20
186.183
0
VERTEX
8
L1D11
10
152.364
20
188.903
0
VERTEX
8
L1D11
10
152.008
20
191.614
0
VERTEX
8
L1D11
10
151.572
20
194.313
0
VERTEX
8
L1D11
10
151.058
20
196.999
0
VERTEX
8
L1D11
10
150.466
20
199.668
0
VERTEX
8
L1D11
10
149.797
20
202.319
0
VERTEX
8
L1D11
10
149.051
20
204.95
0
VERTEX
8
L1D11
10
148.229
20
207.557
0
VERTEX
8
L1D11
10
147.331
20
210.14
0
VERTEX
8
L1D11
10
146.359
20
212.695
0
VERTEX
8
L1D11
10
145.312
20
215.222
0
VERTEX
8
L1D11
10
144.193
20
217.716
0
VERTEX
8
L1D11
10
143.001
20
220.177
0
VERTEX
8
L1D11
10
141.739
20
222.602
0
VERTEX
8
L1D11
10
140.406
20
224.99
0
VERTEX
8
L1D11
10
139.005
20
227.338
0
VERTEX
8
L1D11
10
137.536
20
229.644
0
VERTEX
8
L1D11
10
136
20
231.906
0
VERTEX
8
L1D11
10
134.4
20
234.123
0
VERTEX
8
L1D11
10
132.735
20
236.292
0
VERTEX
8
L1D11
10
131.008
20
238.412
0
VERTEX
8
L1D11
10
129.22
20
240.481
0
VERTEX
8
L1D11
10
127.373
20
242.497
0
VERTEX
8
L1D11
10
125.468
20
244.458
0
VERTEX
8
L1D11
10
123.507
20
246.363
0
VERTEX
8
L1D11
10
121.491
20
248.21
0
VERTEX
8
L1D11
10
119.422
20
249.998
0
VERTEX
8
L1D11
10
117.302
20
251.725
0
VERTEX
8
L1D11
10
115.133
20
253.39
0
VERTEX
8
L1D11
10
112.916
20
254.99
0
VERTEX
8
L1D11
10
110.654
20
256.526
0
VERTEX
8
L1D11
10
108.348
20
257.995
0
VERTEX
8
L1D11
10
106
20
259.396
0
VERTEX
8
L1D11
10
103.612
20
260.729
0
VERTEX
8
L1D11
10
101.187
20
261.992
0
VERTEX
8
L1D11
10
98.726
20
263.183
0
VERTEX
8
L1D11
10
96.231
20
264.302
0
VERTEX
8
L1D11
10
93.705
20
265.349
0
VERTEX
8
L1D11
10
91.15
20
266.321
0
VERTEX
8
L1D11
10
88.567
20
267.219
0
VERTEX
8
L1D11
10
85.96
20
268.041
0
VERTEX
8
L1D11
10
83.329
20
268.787
0
VERTEX
8
L1D11
10
80.678
20
269.456
0
VERTEX
8
L1D11
10
78.008
20
270.048
0
VERTEX
8
L1D11
10
75.323
20
270.562
0
VERTEX
8
L1D11
10
72.624
20
270.998
0
VERTEX
8
L1D11
10
69.913
20
271.354
0
VERTEX
8
L1D11
10
67.193
20
271.632
0
VERTEX
8
L1D11
10
64.466
20
271.831
0
VERTEX
8
L1D11
10
61.734
20
271.95
0
VERTEX
8
L1D11
10
59
20
271.99
0
VERTEX
8
L1D11
10
57
20
271.99
0
VERTEX
8
L1D11
10
54.266
20
271.95
0
VERTEX
8
L1D11
10
51.534
20
271.831
0
VERTEX
8
L1D11
10
48.807
20
271.632
0
VERTEX
8
L1D11
10
46.087
20
271.354
0
VERTEX
8
L1D11
10
43.376
20
270.998
0
VERTEX
8
L1D11
10
40.677
20
270.562
0
VERTEX
8
L1D11
10
37.992
20
270.048
0
VERTEX
8
L1D11
10
35.322
20
269.456
0
VERTEX
8
L1D11
10
32.671
20
268.787
0
VERTEX
8
L1D11
10
31.47
20
268.446
0
VERTEX
8
L1D11
10
31.47
20
278.808
0
VERTEX
8
L1D11
10
34.257
20
279.473
0
VERTEX
8
L1D11
10
37.062
20
280.061
0
VERTEX
8
L1D11
10
39.882
20
280.572
0
VERTEX
8
L1D11
10
42.715
20
281.004
0
VERTEX
8
L1D11
10
45.559
20
281.359
0
VERTEX
8
L1D11
10
48.412
20
281.635
0
VERTEX
8
L1D11
10
51.271
20
281.832
0
VERTEX
8
L1D11
10
54.134
20
281.951
0
VERTEX
8
L1D11
10
57
20
281.99
0
VERTEX
8
L1D11
10
59
20
281.99
0
VERTEX
8
L1D11
10
61.866
20
281.951
0
VERTEX
8
L1D11
10
64.729
20
281.832
0
VERTEX
8
L1D11
10
67.588
20
281.635
0
VERTEX
8
L1D11
10
70.441
20
281.359
0
VERTEX
8
L1D11
10
73.285
20
281.004
0
VERTEX
8
L1D11
10
76.118
20
280.572
0
VERTEX
8
L1D11
10
78.938
20
280.061
0
VERTEX
8
L1D11
10
81.743
20
279.473
0
VERTEX
8
L1D11
10
84.53
20
278.808
0
VERTEX
8
L1D11
10
87.299
20
278.066
0
VERTEX
8
L1D11
10
90.046
20
277.248
0
VERTEX
8
L1D11
10
92.769
20
276.355
0
VERTEX
8
L1D11
10
95.466
20
275.387
0
VERTEX
8
L1D11
10
98.136
20
274.345
0
VERTEX
8
L1D11
10
100.776
20
273.23
0
VERTEX
8
L1D11
10
103.385
20
272.043
0
VERTEX
8
L1D11
10
105.959
20
270.785
0
VERTEX
8
L1D11
10
108.499
20
269.455
0
VERTEX
8
L1D11
10
111
20
268.057
0
VERTEX
8
L1D11
10
113.462
20
266.59
0
VERTEX
8
L1D11
10
115.883
20
265.055
0
VERTEX
8
L1D11
10
118.26
20
263.455
0
VERTEX
8
L1D11
10
120.592
20
261.79
0
VERTEX
8
L1D11
10
122.878
20
260.061
0
VERTEX
8
L1D11
10
125.115
20
258.269
0
VERTEX
8
L1D11
10
127.302
20
256.417
0
VERTEX
8
L1D11
10
129.437
20
254.505
0
VERTEX
8
L1D11
10
131.519
20
252.535
0
VERTEX
8
L1D11
10
133.545
20
250.509
0
VERTEX
8
L1D11
10
135.515
20
248.427
0
VERTEX
8
L1D11
10
137.427
20
246.292
0
VERTEX
8
L1D11
10
139.279
20
244.105
0
VERTEX
8
L1D11
10
141.071
20
241.868
0
VERTEX
8
L1D11
10
142.8
20
239.583
0
VERTEX
8
L1D11
10
144.465
20
237.25
0
VERTEX
8
L1D11
10
146.065
20
234.873
0
VERTEX
8
L1D11
10
147.6
20
232.452
0
VERTEX
8
L1D11
10
149.067
20
229.99
0
VERTEX
8
L1D11
10
150.465
20
227.489
0
VERTEX
8
L1D11
10
151.794
20
224.95
0
VERTEX
8
L1D11
10
153.053
20
222.375
0
VERTEX
8
L1D11
10
154.24
20
219.766
0
VERTEX
8
L1D11
10
155.355
20
217.126
0
VERTEX
8
L1D11
10
156.397
20
214.456
0
VERTEX
8
L1D11
10
157.365
20
211.759
0
VERTEX
8
L1D11
10
158.258
20
209.036
0
VERTEX
8
L1D11
10
159.076
20
206.289
0
VERTEX
8
L1D11
10
159.818
20
203.521
0
VERTEX
8
L1D11
10
160.483
20
200.733
0
VERTEX
8
L1D11
10
161.071
20
197.928
0
VERTEX
8
L1D11
10
161.582
20
195.108
0
VERTEX
8
L1D11
10
162.014
20
192.275
0
VERTEX
8
L1D11
10
162.369
20
189.431
0
VERTEX
8
L1D11
10
162.645
20
186.578
0
VERTEX
8
L1D11
10
162.842
20
183.719
0
VERTEX
8
L1D11
10
162.961
20
180.856
0
VERTEX
8
L1D11
10
163
20
177.99
0
VERTEX
8
L1D11
10
163
20
-177.99
0
VERTEX
8
L1D11
10
163.04
20
-180.724
0
VERTEX
8
L1D11
10
163.159
20
-183.456
0
VERTEX
8
L1D11
10
163.358
20
-186.183
0
VERTEX
8
L1D11
10
163.636
20
-188.903
0
VERTEX
8
L1D11
10
163.992
20
-191.614
0
VERTEX
8
L1D11
10
164.428
20
-194.313
0
VERTEX
8
L1D11
10
164.942
20
-196.999
0
VERTEX
8
L1D11
10
165.534
20
-199.668
0
VERTEX
8
L1D11
10
166.203
20
-202.319
0
VERTEX
8
L1D11
10
166.949
20
-204.95
0
VERTEX
8
L1D11
10
167.771
20
-207.557
0
VERTEX
8
L1D11
10
168.669
20
-210.14
0
VERTEX
8
L1D11
10
169.641
20
-212.695
0
VERTEX
8
L1D11
10
170.688
20
-215.222
0
VERTEX
8
L1D11
10
171.807
20
-217.716
0
VERTEX
8
L1D11
10
172.999
20
-220.177
0
VERTEX
8
L1D11
10
174.261
20
-222.602
0
VERTEX
8
L1D11
10
175.594
20
-224.99
0
VERTEX
8
L1D11
10
176.995
20
-227.338
0
VERTEX
8
L1D11
10
178.464
20
-229.644
0
VERTEX
8
L1D11
10
180
20
-231.906
0
VERTEX
8
L1D11
10
181.6
20
-234.123
0
VERTEX
8
L1D11
10
183.265
20
-236.292
0
SEQEND
0
POLYLINE
8
L1D11
70
1
40
0
41
0
66
1
0
VERTEX
8
L1D11
10
257
20
-281.99
0
VERTEX
8
L1D11
10
254.134
20
-281.951
0
VERTEX
8
L1D11
10
251.271
20
-281.832
0
VERTEX
8
L1D11
10
248.412
20
-281.635
0
VERTEX
8
L1D11
10
245.559
20
-281.359
0
VERTEX
8
L1D11
10
242.715
20
-281.004
0
VERTEX
8
L1D11
10
239.882
20
-280.572
0
VERTEX
8
L1D11
10
237.062
20
-280.061
0
VERTEX
8
L1D11
10
234.257
20
-279.473
0
VERTEX
8
L1D11
10
231.47
20
-278.808
0
VERTEX
8
L1D11
10
228.701
20
-278.066
0
VERTEX
8
L1D11
10
225.954
20
-277.248
0
VERTEX
8
L1D11
10
223.231
20
-276.355
0
VERTEX
8
L1D11
10
220.534
20
-275.387
0
VERTEX
8
L1D11
10
217.864
20
-274.345
0
VERTEX
8
L1D11
10
215.224
20
-273.23
0
VERTEX
8
L1D11
10
212.615
20
-272.043
0
VERTEX
8
L1D11
10
210.041
20
-270.785
0
VERTEX
8
L1D11
10
207.501
20
-269.455
0
VERTEX
8
L1D11
10
205
20
-268.057
0
VERTEX
8
L1D11
10
202.538
20
-266.59
0
VERTEX
8
L1D11
10
200.117
20
-265.055
0
VERTEX
8
L1D11
10
197.74
20
-263.455
0
VERTEX
8
L1D11
10
195.408
20
-261.79
0
VERTEX
8
L1D11
10
193.122
20
-260.061
0
VERTEX
8
L1D11
10
190.885
20
-258.269
0
VERTEX
8
L1D11
10
188.698
20
-256.417
0
VERTEX
8
L1D11
10
186.563
20
-254.505
0
VERTEX
8
L1D11
10
184.481
20
-252.535
0
VERTEX
8
L1D11
10
183.265
20
-251.319
0
VERTEX
8
L1D11
10
183.265
20
-236.292
0
VERTEX
8
L1D11
10
184.992
20
-238.412
0
VERTEX
8
L1D11
10
186.78
20
-240.481
0
VERTEX
8
L1D11
10
188.627
20
-242.497
0
VERTEX
8
L1D11
10
190.532
20
-244.458
0
VERTEX
8
L1D11
10
192.493
20
-246.363
0
VERTEX
8
L1D11
10
194.509
20
-248.21
0
VERTEX
8
L1D11
10
196.578
20
-249.998
0
VERTEX
8
L1D11
10
198.698
20
-251.725
0
VERTEX
8
L1D11
10
200.867
20
-253.39
0
VERTEX
8
L1D11
10
203.084
20
-254.99
0
VERTEX
8
L1D11
10
205.346
20
-256.526
0
VERTEX
8
L1D11
10
207.652
20
-257.995
0
VERTEX
8
L1D11
10
210
20
-259.396
0
VERTEX
8
L1D11
10
212.388
20
-260.729
0
VERTEX
8
L1D11
10
214.813
20
-261.992
0
VERTEX
8
L1D11
10
217.274
20
-263.183
0
VERTEX
8
L1D11
10
219.769
20
-264.302
0
VERTEX
8
L1D11
10
222.295
20
-265.349
0
VERTEX
8
L1D11
10
224.85
20
-266.321
0
VERTEX
8
L1D11
10
227.433
20
-267.219
0
VERTEX
8
L1D11
10
230.04
20
-268.041
0
VERTEX
8
L1D11
10
232.671
20
-268.787
0
VERTEX
8
L1D11
10
235.322
20
-269.456
0
VERTEX
8
L1D11
10
237.992
20
-270.048
0
VERTEX
8
L1D11
10
240.677
20
-270.562
0
VERTEX
8
L1D11
10
243.376
20
-270.998
0
VERTEX
8
L1D11
10
246.087
20
-271.354
0
VERTEX
8
L1D11
10
248.807
20
-271.632
0
VERTEX
8
L1D11
10
251.534
20
-271.831
0
VERTEX
8
L1D11
10
254.266
20
-271.95
0
VERTEX
8
L1D11
10
257
20
-271.99
0
VERTEX
8
L1D11
10
259
20
-271.99
0
VERTEX
8
L1D11
10
261.734
20
-271.95
0
VERTEX
8
L1D11
10
264.466
20
-271.831
0
VERTEX
8
L1D11
10
267.193
20
-271.632
0
VERTEX
8
L1D11
10
269.913
20
-271.354
0
VERTEX
8
L1D11
10
272.624
20
-270.998
0
VERTEX
8
L1D11
10
275.323
20
-270.562
0
VERTEX
8
L1D11
10
278.008
20
-270.048
0
VERTEX
8
L1D11
10
280.678
20
-269.456
0
VERTEX
8
L1D11
10
283.329
20
-268.787
0
VERTEX
8
L1D11
10
285.96
20
-268.041
0
VERTEX
8
L1D11
10
288.567
20
-267.219
0
VERTEX
8
L1D11
10
291.15
20
-266.321
0
VERTEX
8
L1D11
10
293.705
20
-265.349
0
VERTEX
8
L1D11
10
296.231
20
-264.302
0
VERTEX
8
L1D11
10
298.726
20
-263.183
0
VERTEX
8
L1D11
10
301.187
20
-261.992
0
VERTEX
8
L1D11
10
303.612
20
-260.729
0
VERTEX
8
L1D11
10
306
20
-259.396
0
VERTEX
8
L1D11
10
308.348
20
-257.995
0
VERTEX
8
L1D11
10
310.654
20
-256.526
0
VERTEX
8
L1D11
10
312.916
20
-254.99
0
VERTEX
8
L1D11
10
315.133
20
-253.39
0
VERTEX
8
L1D11
10
317.302
20
-251.725
0
VERTEX
8
L1D11
10
319.422
20
-249.998
0
VERTEX
8
L1D11
10
321.491
20
-248.21
0
VERTEX
8
L1D11
10
323.507
20
-246.363
0
VERTEX
8
L1D11
10
325.468
20
-244.458
0
VERTEX
8
L1D11
10
327.373
20
-242.497
0
VERTEX
8
L1D11
10
329.22
20
-240.481
0
VERTEX
8
L1D11
10
331.008
20
-238.412
0
VERTEX
8
L1D11
10
332.735
20
-236.292
0
VERTEX
8
L1D11
10
334.4
20
-234.123
0
VERTEX
8
L1D11
10
336
20
-231.906
0
VERTEX
8
L1D11
10
337.536
20
-229.644
0
VERTEX
8
L1D11
10
339.005
20
-227.338
0
VERTEX
8
L1D11
10
340.406
20
-224.99
0
VERTEX
8
L1D11
10
341.739
20
-222.602
0
VERTEX
8
L1D11
10
343.001
20
-220.177
0
VERTEX
8
L1D11
10
344.193
20
-217.716
0
VERTEX
8
L1D11
10
345.312
20
-215.222
0
VERTEX
8
L1D11
10
346.359
20
-212.695
0
VERTEX
8
L1D11
10
347.331
20
-210.14
0
VERTEX
8
L1D11
10
348.229
20
-207.557
0
VERTEX
8
L1D11
10
349.051
20
-204.95
0
VERTEX
8
L1D11
10
349.797
20
-202.319
0
VERTEX
8
L1D11
10
350.466
20
-199.668
0
VERTEX
8
L1D11
10
351.058
20
-196.999
0
VERTEX
8
L1D11
10
351.572
20
-194.313
0
VERTEX
8
L1D11
10
352.008
20
-191.614
0
VERTEX
8
L1D11
10
352.364
20
-188.903
0
VERTEX
8
L1D11
10
352.642
20
-186.183
0
VERTEX
8
L1D11
10
352.841
20
-183.456
0
VERTEX
8
L1D11
10
352.96
20
-180.724
0
VERTEX
8
L1D11
10
353
20
-177.99
0
VERTEX
8
L1D11
10
353
20
177.99
0
VERTEX
8
L1D11
10
353.039
20
180.856
0
VERTEX
8
L1D11
10
353.158
20
183.719
0
VERTEX
8
L1D11
10
353.355
20
186.578
0
VERTEX
8
L1D11
10
353.631
20
189.431
0
VERTEX
8
L1D11
10
353.986
20
192.275
0
VERTEX
8
L1D11
10
354.418
20
195.108
0
VERTEX
8
L1D11
10
354.929
20
197.928
0
VERTEX
8
L1D11
10
355.517
20
200.733
0
VERTEX
8
L1D11
10
356.182
20
203.521
0
VERTEX
8
L1D11
10
356.924
20
206.289
0
VERTEX
8
L1D11
10
357.742
20
209.036
0
VERTEX
8
L1D11
10
358.635
20
211.759
0
VERTEX
8
L1D11
10
359.603
20
214.456
0
VERTEX
8
L1D11
10
360.645
20
217.126
0
VERTEX
8
L1D11
10
361.76
20
219.766
0
VERTEX
8
L1D11
10
362.369
20
221.105
0
VERTEX
8
L1D11
10
362.369
20
-189.431
0
VERTEX
8
L1D11
10
362.014
20
-192.275
0
VERTEX
8
L1D11
10
361.582
20
-195.108
0
VERTEX
8
L1D11
10
361.071
20
-197.928
0
VERTEX
8
L1D11
10
360.483
20
-200.733
0
VERTEX
8
L1D11
10
359.818
20
-203.521
0
VERTEX
8
L1D11
10
359.076
20
-206.289
0
VERTEX
8
L1D11
10
358.258
20
-209.036
0
VERTEX
8
L1D11
10
357.365
20
-211.759
0
VERTEX
8
L1D11
10
356.397
20
-214.456
0
VERTEX
8
L1D11
10
355.355
20
-217.126
0
VERTEX
8
L1D11
10
354.24
20
-219.766
0
VERTEX
8
L1D11
10
353.053
20
-222.375
0
VERTEX
8
L1D11
10
351.794
20
-224.95
0
VERTEX
8
L1D11
10
350.465
20
-227.489
0
VERTEX
8
L1D11
10
349.067
20
-229.99
0
VERTEX
8
L1D11
10
347.6
20
-232.452
0
VERTEX
8
L1D11
10
346.065
20
-234.873
0
VERTEX
8
L1D11
10
344.465
20
-237.25
0
VERTEX
8
L1D11
10
342.8
20
-239.583
0
VERTEX
8
L1D11
10
341.071
20
-241.868
0
VERTEX
8
L1D11
10
339.279
20
-244.105
0
VERTEX
8
L1D11
10
337.427
20
-246.292
0
VERTEX
8
L1D11
10
335.515
20
-248.427
0
VERTEX
8
L1D11
10
333.545
20
-250.509
0
VERTEX
8
L1D11
10
331.519
20
-252.535
0
VERTEX
8
L1D11
10
329.437
20
-254.505
0
VERTEX
8
L1D11
10
327.302
20
-256.417
0
VERTEX
8
L1D11
10
325.115
20
-258.269
0
VERTEX
8
L1D11
10
322.878
20
-260.061
0
VERTEX
8
L1D11
10
320.592
20
-261.79
0
VERTEX
8
L1D11
10
318.26
20
-263.455
0
VERTEX
8
L1D11
10
315.883
20
-265.055
0
VERTEX
8
L1D11
10
313.462
20
-266.59
0
VERTEX
8
L1D11
10
311
20
-268.057
0
VERTEX
8
L1D11
10
308.499
20
-269.455
0
VERTEX
8
L1D11
10
305.959
20
-270.785
0
VERTEX
8
L1D11
10
303.385
20
-272.043
0
VERTEX
8
L1D11
10
300.776
20
-273.23
0
VERTEX
8
L1D11
10
298.136
20
-274.345
0
VERTEX
8
L1D11
10
295.466
20
-275.387
0
VERTEX
8
L1D11
10
292.769
20
-276.355
0
VERTEX
8
L1D11
10
290.046
20
-277.248
0
VERTEX
8
L1D11
10
287.299
20
-278.066
0
VERTEX
8
L1D11
10
284.53
20
-278.808
0
VERTEX
8
L1D11
10
281.743
20
-279.473
0
VERTEX
8
L1D11
10
278.938
20
-280.061
0
VERTEX
8
L1D11
10
276.118
20
-280.572
0
VERTEX
8
L1D11
10
273.285
20
-281.004
0
VERTEX
8
L1D11
10
270.441
20
-281.359
0
VERTEX
8
L1D11
10
267.588
20
-281.635
0
VERTEX
8
L1D11
10
264.729
20
-281.832
0
VERTEX
8
L1D11
10
261.866
20
-281.951
0
VERTEX
8
L1D11
10
259
20
-281.99
0
SEQEND
0
POLYLINE
8
L1D11
70
1
40
0
41
0
66
1
0
VERTEX
8
L1D11
10
362.369
20
-189.431
0
VERTEX
8
L1D11
10
362.369
20
221.105
0
VERTEX
8
L1D11
10
362.947
20
222.375
0
VERTEX
8
L1D11
10
364.206
20
224.95
0
VERTEX
8
L1D11
10
365.535
20
227.489
0
VERTEX
8
L1D11
10
366.933
20
229.99
0
VERTEX
8
L1D11
10
368.4
20
232.452
0
VERTEX
8
L1D11
10
369.935
20
234.873
0
VERTEX
8
L1D11
10
371.535
20
237.25
0
VERTEX
8
L1D11
10
373.2
20
239.583
0
VERTEX
8
L1D11
10
374.929
20
241.868
0
VERTEX
8
L1D11
10
376.721
20
244.105
0
VERTEX
8
L1D11
10
378.573
20
246.292
0
VERTEX
8
L1D11
10
380.485
20
248.427
0
VERTEX
8
L1D11
10
382.455
20
250.509
0
VERTEX
8
L1D11
10
384.481
20
252.535
0
VERTEX
8
L1D11
10
386.563
20
254.505
0
VERTEX
8
L1D11
10
388.698
20
256.417
0
VERTEX
8
L1D11
10
390.885
20
258.269
0
VERTEX
8
L1D11
10
393.122
20
260.061
0
VERTEX
8
L1D11
10
395.408
20
261.79
0
VERTEX
8
L1D11
10
397.74
20
263.455
0
VERTEX
8
L1D11
10
400.117
20
265.055
0
VERTEX
8
L1D11
10
402.538
20
266.59
0
VERTEX
8
L1D11
10
405
20
268.057
0
VERTEX
8
L1D11
10
407.501
20
269.455
0
VERTEX
8
L1D11
10
410.041
20
270.785
0
VERTEX
8
L1D11
10
412.615
20
272.043
0
VERTEX
8
L1D11
10
415.224
20
273.23
0
VERTEX
8
L1D11
10
417.864
20
274.345
0
VERTEX
8
L1D11
10
420.534
20
275.387
0
VERTEX
8
L1D11
10
423.231
20
276.355
0
VERTEX
8
L1D11
10
425.954
20
277.248
0
VERTEX
8
L1D11
10
428.701
20
278.066
0
VERTEX
8
L1D11
10
431.47
20
278.808
0
VERTEX
8
L1D11
10
434.257
20
279.473
0
VERTEX
8
L1D11
10
437.062
20
280.061
0
VERTEX
8
L1D11
10
439.882
20
280.572
0
VERTEX
8
L1D11
10
442.715
20
281.004
0
VERTEX
8
L1D11
10
445.559
20
281.359
0
VERTEX
8
L1D11
10
448.412
20
281.635
0
VERTEX
8
L1D11
10
451.271
20
281.832
0
VERTEX
8
L1D11
10
454.134
20
281.951
0
VERTEX
8
L1D11
10
457
20
281.99
0
VERTEX
8
L1D11
10
459
20
281.99
0
VERTEX
8
L1D11
10
461.866
20
281.951
0
VERTEX
8
L1D11
10
464.729
20
281.832
0
VERTEX
8
L1D11
10
467.588
20
281.635
0
VERTEX
8
L1D11
10
470.441
20
281.359
0
VERTEX
8
L1D11
10
473.285
20
281.004
0
VERTEX
8
L1D11
10
476.118
20
280.572
0
VERTEX
8
L1D11
10
478.938
20
280.061
0
VERTEX
8
L1D11
10
481.743
20
279.473
0
VERTEX
8
L1D11
10
484.53
20
278.808
0
VERTEX
8
L1D11
10
487.299
20
278.066
0
VERTEX
8
L1D11
10
490.046
20
277.248
0
VERTEX
8
L1D11
10
492.769
20
276.355
0
VERTEX
8
L1D11
10
495.466
20
275.387
0
VERTEX
8
L1D11
10
498.136
20
274.345
0
VERTEX
8
L1D11
10
500.776
20
273.23
0
VERTEX
8
L1D11
10
503.385
20
272.043
0
VERTEX
8
L1D11
10
505.959
20
270.785
0
VERTEX
8
L1D11
10
508.499
20
269.455
0
VERTEX
8
L1D11
10
511
20
268.057
0
VERTEX
8
L1D11
10
513.462
20
266.59
0
VERTEX
8
L1D11
10
515.883
20
265.055
0
VERTEX
8
L1D11
10
518.26
20
263.455
0
VERTEX
8
L1D11
10
520.592
20
261.79
0
VERTEX
8
L1D11
10
522.878
20
260.061
0
VERTEX
8
L1D11
10
525.115
20
258.269
0
VERTEX
8
L1D11
10
527.302
20
256.417
0
VERTEX
8
L1D11
10
529.437
20
254.505
0
VERTEX
8
L1D11
10
531.519
20
252.535
0
VERTEX
8
L1D11
10
533.545
20
250.509
0
VERTEX
8
L1D11
10
535.515
20
248.427
0
VERTEX
8
L1D11
10
537.427
20
246.292
0
VERTEX
8
L1D11
10
539.279
20
244.105
0
VERTEX
8
L1D11
10
541.071
20
241.868
0
VERTEX
8
L1D11
10
542.8
20
239.583
0
VERTEX
8
L1D11
10
544.465
20
237.25
0
VERTEX
8
L1D11
10
546.065
20
234.873
0
VERTEX
8
L1D11
10
547.6
20
232.452
0
VERTEX
8
L1D11
10
549.067
20
229.99
0
VERTEX
8
L1D11
10
549.067
20
204.894
0
VERTEX
8
L1D11
10
549.051
20
204.95
0
VERTEX
8
L1D11
10
548.229
20
207.557
0
VERTEX
8
L1D11
10
547.331
20
210.14
0
VERTEX
8
L1D11
10
546.359
20
212.695
0
VERTEX
8
L1D11
10
545.312
20
215.222
0
VERTEX
8
L1D11
10
544.193
20
217.716
0
VERTEX
8
L1D11
10
543.001
20
220.177
0
VERTEX
8
L1D11
10
541.739
20
222.602
0
VERTEX
8
L1D11
10
540.406
20
224.99
0
VERTEX
8
L1D11
10
539.005
20
227.338
0
VERTEX
8
L1D11
10
537.536
20
229.644
0
VERTEX
8
L1D11
10
536
20
231.906
0
VERTEX
8
L1D11
10
534.4
20
234.123
0
VERTEX
8
L1D11
10
532.735
20
236.292
0
VERTEX
8
L1D11
10
531.008
20
238.412
0
VERTEX
8
L1D11
10
529.22
20
240.481
0
VERTEX
8
L1D11
10
527.373
20
242.497
0
VERTEX
8
L1D11
10
525.468
20
244.458
0
VERTEX
8
L1D11
10
523.507
20
246.363
0
VERTEX
8
L1D11
10
521.491
20
248.21
0
VERTEX
8
L1D11
10
519.422
20
249.998
0
VERTEX
8
L1D11
10
517.302
20
251.725
0
VERTEX
8
L1D11
10
515.133
20
253.39
0
VERTEX
8
L1D11
10
512.916
20
254.99
0
VERTEX
8
L1D11
10
510.654
20
256.526
0
VERTEX
8
L1D11
10
508.348
20
257.995
0
VERTEX
8
L1D11
10
506
20
259.396
0
VERTEX
8
L1D11
10
503.612
20
260.729
0
VERTEX
8
L1D11
10
501.187
20
261.992
0
VERTEX
8
L1D11
10
498.726
20
263.183
0
VERTEX
8
L1D11
10
496.231
20
264.302
0
VERTEX
8
L1D11
10
493.705
20
265.349
0
VERTEX
8
L1D11
10
491.15
20
266.321
0
VERTEX
8
L1D11
10
488.567
20
267.219
0
VERTEX
8
L1D11
10
485.96
20
268.041
0
VERTEX
8
L1D11
10
483.329
20
268.787
0
VERTEX
8
L1D11
10
480.678
20
269.456
0
VERTEX
8
L1D11
10
478.008
20
270.048
0
VERTEX
8
L1D11
10
475.323
20
270.562
0
VERTEX
8
L1D11
10
472.624
20
270.998
0
VERTEX
8
L1D11
10
469.913
20
271.354
0
VERTEX
8
L1D11
10
467.193
20
271.632
0
VERTEX
8
L1D11
10
464.466
20
271.831
0
VERTEX
8
L1D11
10
461.734
20
271.95
0
VERTEX
8
L1D11
10
459
20
271.99
0
VERTEX
8
L1D11
10
457
20
271.99
0
VERTEX
8
L1D11
10
454.266
20
271.95
0
VERTEX
8
L1D11
10
451.534
20
271.831
0
VERTEX
8
L1D11
10
448.807
20
271.632
0
VERTEX
8
L1D11
10
446.087
20
271.354
0
VERTEX
8
L1D11
10
443.376
20
270.998
0
VERTEX
8
L1D11
10
440.677
20
270.562
0
VERTEX
8
L1D11
10
437.992
20
270.048
0
VERTEX
8
L1D11
10
435.322
20
269.456
0
VERTEX
8
L1D11
10
432.671
20
268.787
0
VERTEX
8
L1D11
10
430.04
20
268.041
0
VERTEX
8
L1D11
10
427.433
20
267.219
0
VERTEX
8
L1D11
10
424.85
20
266.321
0
VERTEX
8
L1D11
10
422.295
20
265.349
0
VERTEX
8
L1D11
10
419.769
20
264.302
0
VERTEX
8
L1D11
10
417.274
20
263.183
0
VERTEX
8
L1D11
10
414.813
20
261.992
0
VERTEX
8
L1D11
10
412.388
20
260.729
0
VERTEX
8
L1D11
10
410
20
259.396
0
VERTEX
8
L1D11
10
407.652
20
257.995
0
VERTEX
8
L1D11
10
405.346
20
256.526
0
VERTEX
8
L1D11
10
403.084
20
254.99
0
VERTEX
8
L1D11
10
400.867
20
253.39
0
VERTEX
8
L1D11
10
398.698
20
251.725
0
VERTEX
8
L1D11
10
396.578
20
249.998
0
VERTEX
8
L1D11
10
394.509
20
248.21
0
VERTEX
8
L1D11
10
392.493
20
246.363
0
VERTEX
8
L1D11
10
390.532
20
244.458
0
VERTEX
8
L1D11
10
388.627
20
242.497
0
VERTEX
8
L1D11
10
386.78
20
240.481
0
VERTEX
8
L1D11
10
384.992
20
238.412
0
VERTEX
8
L1D11
10
383.265
20
236.292
0
VERTEX
8
L1D11
10
381.6
20
234.123
0
VERTEX
8
L1D11
10
380
20
231.906
0
VERTEX
8
L1D11
10
378.464
20
229.644
0
VERTEX
8
L1D11
10
376.995
20
227.338
0
VERTEX
8
L1D11
10
375.594
20
224.99
0
VERTEX
8
L1D11
10
374.261
20
222.602
0
VERTEX
8
L1D11
10
372.999
20
220.177
0
VERTEX
8
L1D11
10
371.807
20
217.716
0
VERTEX
8
L1D11
10
370.688
20
215.222
0
VERTEX
8
L1D11
10
369.641
20
212.695
0
VERTEX
8
L1D11
10
368.669
20
210.14
0
VERTEX
8
L1D11
10
367.771
20
207.557
0
VERTEX
8
L1D11
10
366.949
20
204.95
0
VERTEX
8
L1D11
10
366.203
20
202.319
0
VERTEX
8
L1D11
10
365.534
20
199.668
0
VERTEX
8
L1D11
10
364.942
20
196.999
0
VERTEX
8
L1D11
10
364.428
20
194.313
0
VERTEX
8
L1D11
10
363.992
20
191.614
0
VERTEX
8
L1D11
10
363.636
20
188.903
0
VERTEX
8
L1D11
10
363.358
20
186.183
0
VERTEX
8
L1D11
10
363.159
20
183.456
0
VERTEX
8
L1D11
10
363.04
20
180.724
0
VERTEX
8
L1D11
10
363
20
177.99
0
VERTEX
8
L1D11
10
363
20
-177.99
0
VERTEX
8
L1D11
10
362.961
20
-180.856
0
VERTEX
8
L1D11
10
362.842
20
-183.719
0
VERTEX
8
L1D11
10
362.645
20
-186.578
0
SEQEND
0
POLYLINE
8
L1D11
70
1
40
0
41
0
66
1
0
VERTEX
8
L1D11
10
657
20
-281.99
0
VERTEX
8
L1D11
10
654.134
20
-281.951
0
VERTEX
8
L1D11
10
651.271
20
-281.832
0
VERTEX
8
L1D11
10
648.412
20
-281.635
0
VERTEX
8
L1D11
10
645.559
20
-281.359
0
VERTEX
8
L1D11
10
642.715
20
-281.004
0
VERTEX
8
L1D11
10
639.882
20
-280.572
0
VERTEX
8
L1D11
10
637.062
20
-280.061
0
VERTEX
8
L1D11
10
634.257
20
-279.473
0
VERTEX
8
L1D11
10
631.47
20
-278.808
0
VERTEX
8
L1D11
10
628.701
20
-278.066
0
VERTEX
8
L1D11
10
625.954
20
-277.248
0
VERTEX
8
L1D11
10
623.231
20
-276.355
0
VERTEX
8
L1D11
10
620.534
20
-275.387
0
VERTEX
8
L1D11
10
617.864
20
-274.345
0
VERTEX
8
L1D11
10
615.224
20
-273.23
0
VERTEX
8
L1D11
10
612.615
20
-272.043
0
VERTEX
8
L1D11
10
610.041
20
-270.785
0
VERTEX
8
L1D11
10
607.501
20
-269.455
0
VERTEX
8
L1D11
10
605
20
-268.057
0
VERTEX
8
L1D11
10
602.538
20
-266.59
0
VERTEX
8
L1D11
10
600.117
20
-265.055
0
VERTEX
8
L1D11
10
597.74
20
-263.455
0
VERTEX
8
L1D11
10
595.408
20
-261.79
0
VERTEX
8
L1D11
10
593.122
20
-260.061
0
VERTEX
8
L1D11
10
590.885
20
-258.269
0
VERTEX
8
L1D11
10
588.698
20
-256.417
0
VERTEX
8
L1D11
10
586.563
20
-254.505
0
VERTEX
8
L1D11
10
584.481
20
-252.535
0
VERTEX
8
L1D11
10
582.455
20
-250.509
0
VERTEX
8
L1D11
10
580.485
20
-248.427
0
VERTEX
8
L1D11
10
578.573
20
-246.292
0
VERTEX
8
L1D11
10
576.721
20
-244.105
0
VERTEX
8
L1D11
10
574.929
20
-241.868
0
VERTEX
8
L1D11
10
573.2
20
-239.583
0
VERTEX
8
L1D11
10
571.535
20
-237.25
0
VERTEX
8
L1D11
10
569.935
20
-234.873
0
VERTEX
8
L1D11
10
568.4
20
-232.452
0
VERTEX
8
L1D11
10
566.933
20
-229.99
0
VERTEX
8
L1D11
10
565.535
20
-227.489
0
VERTEX
8
L1D11
10
564.206
20
-224.95
0
VERTEX
8
L1D11
10
562.947
20
-222.375
0
VERTEX
8
L1D11
10
561.76
20
-219.766
0
VERTEX
8
L1D11
10
560.645
20
-217.126
0
VERTEX
8
L1D11
10
559.603
20
-214.456
0
VERTEX
8
L1D11
10
558.635
20
-211.759
0
VERTEX
8
L1D11
10
557.742
20
-209.036
0
VERTEX
8
L1D11
10
556.924
20
-206.289
0
VERTEX
8
L1D11
10
556.182
20
-203.521
0
VERTEX
8
L1D11
10
555.517
20
-200.733
0
VERTEX
8
L1D11
10
554.929
20
-197.928
0
VERTEX
8
L1D11
10
554.418
20
-195.108
0
VERTEX
8
L1D11
10
553.986
20
-192.275
0
VERTEX
8
L1D11
10
553.631
20
-189.431
0
VERTEX
8
L1D11
10
553.355
20
-186.578
0
VERTEX
8
L1D11
10
553.158
20
-183.719
0
VERTEX
8
L1D11
10
553.039
20
-180.856
0
VERTEX
8
L1D11
10
553
20
-177.99
0
VERTEX
8
L1D11
10
553
20
177.99
0
VERTEX
8
L1D11
10
552.96
20
180.724
0
VERTEX
8
L1D11
10
552.841
20
183.456
0
VERTEX
8
L1D11
10
552.642
20
186.183
0
VERTEX
8
L1D11
10
552.364
20
188.903
0
VERTEX
8
L1D11
10
552.008
20
191.614
0
VERTEX
8
L1D11
10
551.572
20
194.313
0
VERTEX
8
L1D11
10
551.058
20
196.999
0
VERTEX
8
L1D11
10
550.466
20
199.668
0
VERTEX
8
L1D11
10
549.797
20
202.319
0
VERTEX
8
L1D11
10
549.067
20
204.894
0
VERTEX
8
L1D11
10
549.067
20
229.99
0
VERTEX
8
L1D11
10
550.465
20
227.489
0
VERTEX
8
L1D11
10
551.794
20
224.95
0
VERTEX
8
L1D11
10
553.053
20
222.375
0
VERTEX
8
L1D11
10
554.24
20
219.766
0
VERTEX
8
L1D11
10
555.355
20
217.126
0
VERTEX
8
L1D11
10
556.397
20
214.456
0
VERTEX
8
L1D11
10
557.365
20
211.759
0
VERTEX
8
L1D11
10
558.258
20
209.036
0
VERTEX
8
L1D11
10
559.076
20
206.289
0
VERTEX
8
L1D11
10
559.818
20
203.521
0
VERTEX
8
L1D11
10
560.483
20
200.733
0
VERTEX
8
L1D11
10
561.071
20
197.928
0
VERTEX
8
L1D11
10
561.582
20
195.108
0
VERTEX
8
L1D11
10
562.014
20
192.275
0
VERTEX
8
L1D11
10
562.369
20
189.431
0
VERTEX
8
L1D11
10
562.645
20
186.578
0
VERTEX
8
L1D11
10
562.842
20
183.719
0
VERTEX
8
L1D11
10
562.961
20
180.856
0
VERTEX
8
L1D11
10
563
20
177.99
0
VERTEX
8
L1D11
10
563
20
-177.99
0
VERTEX
8
L1D11
10
563.04
20
-180.724
0
VERTEX
8
L1D11
10
563.159
20
-183.456
0
VERTEX
8
L1D11
10
563.358
20
-186.183
0
VERTEX
8
L1D11
10
563.636
20
-188.903
0
VERTEX
8
L1D11
10
563.992
20
-191.614
0
VERTEX
8
L1D11
10
564.428
20
-194.313
0
VERTEX
8
L1D11
10
564.942
20
-196.999
0
VERTEX
8
L1D11
10
565.534
20
-199.668
0
VERTEX
8
L1D11
10
566.203
20
-202.319
0
VERTEX
8
L1D11
10
566.949
20
-204.95
0
VERTEX
8
L1D11
10
567.771
20
-207.557
0
VERTEX
8
L1D11
10
568.669
20
-210.14
0
VERTEX
8
L1D11
10
569.641
20
-212.695
0
VERTEX
8
L1D11
10
570.688
20
-215.222
0
VERTEX
8
L1D11
10
571.807
20
-217.716
0
VERTEX
8
L1D11
10
572.999
20
-220.177
0
VERTEX
8
L1D11
10
574.261
20
-222.602
0
VERTEX
8
L1D11
10
575.594
20
-224.99
0
VERTEX
8
L1D11
10
576.995
20
-227.338
0
VERTEX
8
L1D11
10
578.464
20
-229.644
0
VERTEX
8
L1D11
10
580
20
-231.906
0
VERTEX
8
L1D11
10
581.6
20
-234.123
0
VERTEX
8
L1D11
10
583.265
20
-236.292
0
VERTEX
8
L1D11
10
584.992
20
-238.412
0
VERTEX
8
L1D11
10
586.78
20
-240.481
0
VERTEX
8
L1D11
10
588.627
20
-242.497
0
VERTEX
8
L1D11
10
590.532
20
-244.458
0
VERTEX
8
L1D11
10
592.493
20
-246.363
0
VERTEX
8
L1D11
10
594.509
20
-248.21
0
VERTEX
8
L1D11
10
596.578
20
-249.998
0
VERTEX
8
L1D11
10
598.698
20
-251.725
0
VERTEX
8
L1D11
10
600.867
20
-253.39
0
VERTEX
8
L1D11
10
603.084
20
-254.99
0
VERTEX
8
L1D11
10
605.346
20
-256.526
0
VERTEX
8
L1D11
10
607.652
20
-257.995
0
VERTEX
8
L1D11
10
610
20
-259.396
0
VERTEX
8
L1D11
10
612.388
20
-260.729
0
VERTEX
8
L1D11
10
614.813
20
-261.992
0
VERTEX
8
L1D11
10
617.274
20
-263.183
0
VERTEX
8
L1D11
10
619.769
20
-264.302
0
VERTEX
8
L1D11
10
622.295
20
-265.349
0
VERTEX
8
L1D11
10
624.85
20
-266.321
0
VERTEX
8
L1D11
10
627.433
20
-267.219
0
VERTEX
8
L1D11
10
630.04
20
-268.041
0
VERTEX
8
L1D11
10
632.671
20
-268.787
0
VERTEX
8
L1D11
10
635.322
20
-269.456
0
VERTEX
8
L1D11
10
637.992
20
-270.048
0
VERTEX
8
L1D11
10
640.677
20
-270.562
0
VERTEX
8
L1D11
10
643.376
20
-270.998
0
VERTEX
8
L1D11
10
646.087
20
-271.354
0
VERTEX
8
L1D11
10
648.807
20
-271.632
0
VERTEX
8
L1D11
10
651.534
20
-271.831
0
VERTEX
8
L1D11
10
654.266
20
-271.95
0
VERTEX
8
L1D11
10
657
20
-271.99
0
VERTEX
8
L1D11
10
659
20
-271.99
0
VERTEX
8
L1D11
10
661.734
20
-271.95
0
VERTEX
8
L1D11
10
664.466
20
-271.831
0
VERTEX
8
L1D11
10
667.193
20
-271.632
0
VERTEX
8
L1D11
10
669.913
20
-271.354
0
VERTEX
8
L1D11
10
672.624
20
-270.998
0
VERTEX
8
L1D11
10
675.323
20
-270.562
0
VERTEX
8
L1D11
10
678.008
20
-270.048
0
VERTEX
8
L1D11
10
680.678
20
-269.456
0
VERTEX
8
L1D11
10
683.329
20
-268.787
0
VERTEX
8
L1D11
10
685.96
20
-268.041
0
VERTEX
8
L1D11
10
688.567
20
-267.219
0
VERTEX
8
L1D11
10
691.15
20
-266.321
0
VERTEX
8
L1D11
10
693.705
20
-265.349
0
VERTEX
8
L1D11
10
696.231
20
-264.302
0
VERTEX
8
L1D11
10
698.726
20
-263.183
0
VERTEX
8
L1D11
10
701.187
20
-261.992
0
VERTEX
8
L1D11
10
703.612
20
-260.729
0
VERTEX
8
L1D11
10
706
20
-259.396
0
VERTEX
8
L1D11
10
708.348
20
-257.995
0
VERTEX
8
L1D11
10
710.654
20
-256.526
0
VERTEX
8
L1D11
10
712.916
20
-254.99
0
VERTEX
8
L1D11
10
715.133
20
-253.39
0
VERTEX
8
L1D11
10
715.133
20
-265.531
0
VERTEX
8
L1D11
10
713.462
20
-266.59
0
VERTEX
8
L1D11
10
711
20
-268.057
0
VERTEX
8
L1D11
10
708.499
20
-269.455
0
VERTEX
8
L1D11
10
705.959
20
-270.785
0
VERTEX
8
L1D11
10
703.385
20
-272.043
0
VERTEX
8
L1D11
10
700.776
20
-273.23
0
VERTEX
8
L1D11
10
698.136
20
-274.345
0
VERTEX
8
L1D11
10
695.466
20
-275.387
0
VERTEX
8
L1D11
10
692.769
20
-276.355
0
VERTEX
8
L1D11
10
690.046
20
-277.248
0
VERTEX
8
L1D11
10
687.299
20
-278.066
0
VERTEX
8
L1D11
10
684.53
20
-278.808
0
VERTEX
8
L1D11
10
681.743
20
-279.473
0
VERTEX
8
L1D11
10
678.938
20
-280.061
0
VERTEX
8
L1D11
10
676.118
20
-280.572
0
VERTEX
8
L1D11
10
673.285
20
-281.004
0
VERTEX
8
L1D11
10
670.441
20
-281.359
0
VERTEX
8
L1D11
10
667.588
20
-281.635
0
VERTEX
8
L1D11
10
664.729
20
-281.832
0
VERTEX
8
L1D11
10
661.866
20
-281.951
0
VERTEX
8
L1D11
10
659
20
-281.99
0
SEQEND
0
POLYLINE
8
L1D11
70
1
40
0
41
0
66
1
0
VERTEX
8
L1D11
10
715.133
20
-265.531
0
VERTEX
8
L1D11
10
715.133
20
-253.39
0
VERTEX
8
L1D11
10
717.302
20
-251.725
0
VERTEX
8
L1D11
10
719.422
20
-249.998
0
VERTEX
8
L1D11
10
721.491
20
-248.21
0
VERTEX
8
L1D11
10
723.507
20
-246.363
0
VERTEX
8
L1D11
10
725.468
20
-244.458
0
VERTEX
8
L1D11
10
727.373
20
-242.497
0
VERTEX
8
L1D11
10
729.22
20
-240.481
0
VERTEX
8
L1D11
10
731.008
20
-238.412
0
VERTEX
8
L1D11
10
732.735
20
-236.292
0
VERTEX
8
L1D11
10
734.4
20
-234.123
0
VERTEX
8
L1D11
10
736
20
-231.906
0
VERTEX
8
L1D11
10
737.536
20
-229.644
0
VERTEX
8
L1D11
10
739.005
20
-227.338
0
VERTEX
8
L1D11
10
740.406
20
-224.99
0
VERTEX
8
L1D11
10
741.739
20
-222.602
0
VERTEX
8
L1D11
10
743.001
20
-220.177
0
VERTEX
8
L1D11
10
744.193
20
-217.716
0
VERTEX
8
L1D11
10
745.312
20
-215.222
0
VERTEX
8
L1D11
10
746.359
20
-212.695
0
VERTEX
8
L1D11
10
747.331
20
-210.14
0
VERTEX
8
L1D11
10
748.229
20
-207.557
0
VERTEX
8
L1D11
10
749.051
20
-204.95
0
VERTEX
8
L1D11
10
749.797
20
-202.319
0
VERTEX
8
L1D11
10
750.466
20
-199.668
0
VERTEX
8
L1D11
10
751.058
20
-196.999
0
VERTEX
8
L1D11
10
751.572
20
-194.313
0
VERTEX
8
L1D11
10
752.008
20
-191.614
0
VERTEX
8
L1D11
10
752.364
20
-188.903
0
VERTEX
8
L1D11
10
752.642
20
-186.183
0
VERTEX
8
L1D11
10
752.841
20
-183.456
0
VERTEX
8
L1D11
10
752.96
20
-180.724
0
VERTEX
8
L1D11
10
753
20
-177.99
0
VERTEX
8
L1D11
10
753
20
-99
0
VERTEX
8
L1D11
10
753.039
20
-96.134
0
VERTEX
8
L1D11
10
753.158
20
-93.271
0
VERTEX
8
L1D11
10
753.355
20
-90.412
0
VERTEX
8
L1D11
10
753.631
20
-87.559
0
VERTEX
8
L1D11
10
753.986
20
-84.715
0
VERTEX
8
L1D11
10
754.418
20
-81.882
0
VERTEX
8
L1D11
10
754.929
20
-79.062
0
VERTEX
8
L1D11
10
755.517
20
-76.257
0
VERTEX
8
L1D11
10
756.182
20
-73.47
0
VERTEX
8
L1D11
10
756.924
20
-70.701
0
VERTEX
8
L1D11
10
757.742
20
-67.954
0
VERTEX
8
L1D11
10
758.635
20
-65.231
0
VERTEX
8
L1D11
10
759.603
20
-62.534
0
VERTEX
8
L1D11
10
760.645
20
-59.864
0
VERTEX
8
L1D11
10
761.76
20
-57.224
0
VERTEX
8
L1D11
10
762.947
20
-54.615
0
VERTEX
8
L1D11
10
764.206
20
-52.041
0
VERTEX
8
L1D11
10
765.535
20
-49.501
0
VERTEX
8
L1D11
10
766.933
20
-47
0
VERTEX
8
L1D11
10
768.4
20
-44.538
0
VERTEX
8
L1D11
10
769.935
20
-42.117
0
VERTEX
8
L1D11
10
771.535
20
-39.74
0
VERTEX
8
L1D11
10
773.2
20
-37.408
0
VERTEX
8
L1D11
10
774.929
20
-35.122
0
VERTEX
8
L1D11
10
776.721
20
-32.885
0
VERTEX
8
L1D11
10
778.573
20
-30.698
0
VERTEX
8
L1D11
10
780.485
20
-28.563
0
VERTEX
8
L1D11
10
782.455
20
-26.481
0
VERTEX
8
L1D11
10
784.481
20
-24.455
0
VERTEX
8
L1D11
10
786.563
20
-22.485
0
VERTEX
8
L1D11
10
788.698
20
-20.573
0
VERTEX
8
L1D11
10
790.885
20
-18.721
0
VERTEX
8
L1D11
10
793.122
20
-16.929
0
VERTEX
8
L1D11
10
795.408
20
-15.2
0
VERTEX
8
L1D11
10
797.74
20
-13.535
0
VERTEX
8
L1D11
10
800.117
20
-11.935
0
VERTEX
8
L1D11
10
802.538
20
-10.4
0
VERTEX
8
L1D11
10
805
20
-8.933
0
VERTEX
8
L1D11
10
807.501
20
-7.535
0
VERTEX
8
L1D11
10
810.041
20
-6.206
0
VERTEX
8
L1D11
10
812.615
20
-4.947
0
VERTEX
8
L1D11
10
815.224
20
-3.76
0
VERTEX
8
L1D11
10
817.864
20
-2.645
0
VERTEX
8
L1D11
10
820.534
20
-1.603
0
VERTEX
8
L1D11
10
823.231
20
-0.635
0
VERTEX
8
L1D11
10
825.954
20
0.258
0
VERTEX
8
L1D11
10
828.701
20
1.076
0
VERTEX
8
L1D11
10
831.47
20
1.818
0
VERTEX
8
L1D11
10
834.257
20
2.483
0
VERTEX
8
L1D11
10
837.062
20
3.071
0
VERTEX
8
L1D11
10
839.882
20
3.582
0
VERTEX
8
L1D11
10
842.715
20
4.014
0
VERTEX
8
L1D11
10
845.559
20
4.369
0
VERTEX
8
L1D11
10
848.412
20
4.645
0
VERTEX
8
L1D11
10
851.271
20
4.842
0
VERTEX
8
L1D11
10
854.134
20
4.961
0
VERTEX
8
L1D11
10
857
20
5
0
VERTEX
8
L1D11
10
958
20
5
0
VERTEX
8
L1D11
10
958
20
-5
0
VERTEX
8
L1D11
10
857
20
-5
0
VERTEX
8
L1D11
10
854.266
20
-5.04
0
VERTEX
8
L1D11
10
851.534
20
-5.159
0
VERTEX
8
L1D11
10
848.807
20
-5.358
0
VERTEX
8
L1D11
10
846.087
20
-5.636
0
VERTEX
8
L1D11
10
843.376
20
-5.992
0
VERTEX
8
L1D11
10
840.677
20
-6.428
0
VERTEX
8
L1D11
10
837.992
20
-6.942
0
VERTEX
8
L1D11
10
835.322
20
-7.534
0
VERTEX
8
L1D11
10
832.671
20
-8.203
0
VERTEX
8
L1D11
10
830.04
20
-8.949
0
VERTEX
8
L1D11
10
827.433
20
-9.771
0
VERTEX
8
L1D11
10
824.85
20
-10.669
0
VERTEX
8
L1D11
10
822.295
20
-11.641
0
VERTEX
8
L1D11
10
819.769
20
-12.688
0
VERTEX
8
L1D11
10
817.274
20
-13.807
0
VERTEX
8
L1D11
10
814.813
20
-14.999
0
VERTEX
8
L1D11
10
812.388
20
-16.261
0
VERTEX
8
L1D11
10
810
20
-17.594
0
VERTEX
8
L1D11
10
807.652
20
-18.995
0
VERTEX
8
L1D11
10
805.346
20
-20.464
0
VERTEX
8
L1D11
10
803.084
20
-22
0
VERTEX
8
L1D11
10
800.867
20
-23.6
0
VERTEX
8
L1D11
10
798.698
20
-25.265
0
VERTEX
8
L1D11
10
796.578
20
-26.992
0
VERTEX
8
L1D11
10
794.509
20
-28.78
0
VERTEX
8
L1D11
10
792.493
20
-30.627
0
VERTEX
8
L1D11
10
790.532
20
-32.532
0
VERTEX
8
L1D11
10
788.627
20
-34.493
0
VERTEX
8
L1D11
10
786.78
20
-36.509
0
VERTEX
8
L1D11
10
784.992
20
-38.578
0
VERTEX
8
L1D11
10
783.265
20
-40.698
0
VERTEX
8
L1D11
10
781.6
20
-42.867
0
VERTEX
8
L1D11
10
780
20
-45.084
0
VERTEX
8
L1D11
10
778.464
20
-47.346
0
VERTEX
8
L1D11
10
776.995
20
-49.652
0
VERTEX
8
L1D11
10
775.594
20
-52
0
VERTEX
8
L1D11
10
774.261
20
-54.388
0
VERTEX
8
L1D11
10
772.999
20
-56.813
0
VERTEX
8
L1D11
10
771.807
20
-59.274
0
VERTEX
8
L1D11
10
770.688
20
-61.769
0
VERTEX
8
L1D11
10
769.641
20
-64.295
0
VERTEX
8
L1D11
10
768.669
20
-66.85
0
VERTEX
8
L1D11
10
767.771
20
-69.433
0
VERTEX
8
L1D11
10
766.949
20
-72.04
0
VERTEX
8
L1D11
10
766.203
20
-74.671
0
VERTEX
8
L1D11
10
765.534
20
-77.322
0
VERTEX
8
L1D11
10
764.942
20
-79.992
0
VERTEX
8
L1D11
10
764.428
20
-82.677
0
VERTEX
8
L1D11
10
763.992
20
-85.376
0
VERTEX
8
L1D11
10
763.636
20
-88.087
0
VERTEX
8
L1D11
10
763.358
20
-90.807
0
VERTEX
8
L1D11
10
763.159
20
-93.534
0
VERTEX
8
L1D11
10
763.04
20
-96.266
0
VERTEX
8
L1D11
10
763
20
-99
0
VERTEX
8
L1D11
10
763
20
-177.99
0
VERTEX
8
L1D11
10
762.961
20
-180.856
0
VERTEX
8
L1D11
10
762.842
20
-183.719
0
VERTEX
8
L1D11
10
762.645
20
-186.578
0
VERTEX
8
L1D11
10
762.369
20
-189.431
0
VERTEX
8
L1D11
10
762.014
20
-192.275
0
VERTEX
8
L1D11
10
761.582
20
-195.108
0
VERTEX
8
L1D11
10
761.071
20
-197.928
0
VERTEX
8
L1D11
10
760.483
20
-200.733
0
VERTEX
8
L1D11
10
759.818
20
-203.521
0
VERTEX
8
L1D11
10
759.076
20
-206.289
0
VERTEX
8
L1D11
10
758.258
20
-209.036
0
VERTEX
8
L1D11
10
757.365
20
-211.759
0
VERTEX
8
L1D11
10
756.397
20
-214.456
0
VERTEX
8
L1D11
10
755.355
20
-217.126
0
VERTEX
8
L1D11
10
754.24
20
-219.766
0
VERTEX
8
L1D11
10
753.053
20
-222.375
0
VERTEX
8
L1D11
10
751.794
20
-224.95
0
VERTEX
8
L1D11
10
750.465
20
-227.489
0
VERTEX
8
L1D11
10
749.067
20
-229.99
0
VERTEX
8
L1D11
10
747.6
20
-232.452
0
VERTEX
8
L1D11
10
746.065
20
-234.873
0
VERTEX
8
L1D11
10
744.465
20
-237.25
0
VERTEX
8
L1D11
10
742.8
20
-239.583
0
VERTEX
8
L1D11
10
741.071
20
-241.868
0
VERTEX
8
L1D11
10
739.279
20
-244.105
0
VERTEX
8
L1D11
10
737.427
20
-246.292
0
VERTEX
8
L1D11
10
735.515
20
-248.427
0
VERTEX
8
L1D11
10
733.545
20
-250.509
0
VERTEX
8
L1D11
10
731.519
20
-252.535
0
VERTEX
8
L1D11
10
729.437
20
-254.505
0
VERTEX
8
L1D11
10
727.302
20
-256.417
0
VERTEX
8
L1D11
10
725.115
20
-258.269
0
VERTEX
8
L1D11
10
722.878
20
-260.061
0
VERTEX
8
L1D11
10
720.592
20
-261.79
0
VERTEX
8
L1D11
10
718.26
20
-263.455
0
VERTEX
8
L1D11
10
715.883
20
-265.055
0
SEQEND
0
POLYLINE
8
L1D11
70
1
40
0
41
0
66
1
0
VERTEX
8
L1D11
10
-1505
20
-150
0
VERTEX
8
L1D11
10
-1505
20
50
0
VERTEX
8
L1D11
10
-1495
20
50
0
VERTEX
8
L1D11
10
-1495
20
-150
0
SEQEND
0
POLYLINE
8
L1D11
70
1
40
0
41
0
66
1
0
VERTEX
8
L1D11
10
-1505
20
50
0
VERTEX
8
L1D11
10
-1505
20
975
0
VERTEX
8
L1D11
10
-1495
20
975
0
VERTEX
8
L1D11
10
-1495
20
50
0
SEQEND
0
POLYLINE
8
L1D11
70
1
40
0
41
0
66
1
0
VERTEX
8
L1D11
10
-1505
20
-975
0
VERTEX
8
L1D11
10
-1505
20
-150
0
VERTEX
8
L1D11
10
-1495
20
-150
0
VERTEX
8
L1D11
10
-1495
20
-975
0
SEQEND
0
ENDBLK
0
BLOCK
2
TOP_main
70
0
10
0
20
0
0
INSERT
8
0
2
TOP_main_1
10
0
20
0
41
1
42
1
50
0
0
INSERT
8
0
2
TOP_main_1_NoCheese_99
10
0
20
0
41
1
42
1
50
0
0
ENDBLK
0
ENDSEC
0
SECTION
2
ENTITIES
0
INSERT
8
0
2
TOP_main
10
0
20
0
41
1
42
1
50
0
0
ENDSEC
0
EOF
